<svg width="332" height="291" viewBox="0 0 332 291" fill="none" xmlns="http://www.w3.org/2000/svg">
<path d="M25.5671 154.11H23.7671V163.72H11.7521V174.231H0.0390625V185.643H1.83907V176.032H13.5521V165.522H25.5651L25.5671 154.11Z" fill="#1E1A15"/>
<path d="M261.324 234.897C267.129 234.897 271.835 230.191 271.835 224.386C271.835 218.581 267.129 213.875 261.324 213.875C255.519 213.875 250.813 218.581 250.813 224.386C250.813 230.191 255.519 234.897 261.324 234.897Z" fill="#34A853"/>
<path d="M261.325 235.799C259.068 235.799 256.862 235.13 254.985 233.876C253.108 232.622 251.645 230.84 250.782 228.754C249.918 226.669 249.692 224.374 250.132 222.161C250.573 219.947 251.66 217.914 253.256 216.318C254.852 214.722 256.885 213.635 259.099 213.194C261.312 212.754 263.607 212.98 265.692 213.844C267.777 214.708 269.56 216.17 270.814 218.047C272.068 219.924 272.737 222.13 272.737 224.387C272.738 225.886 272.443 227.37 271.87 228.755C271.296 230.14 270.456 231.398 269.396 232.458C268.336 233.518 267.078 234.358 265.693 234.932C264.308 235.505 262.824 235.8 261.325 235.799ZM261.325 214.776C259.424 214.776 257.566 215.34 255.986 216.396C254.406 217.452 253.174 218.953 252.447 220.709C251.719 222.465 251.529 224.397 251.9 226.261C252.271 228.125 253.186 229.837 254.53 231.181C255.874 232.525 257.586 233.441 259.45 233.811C261.314 234.182 263.247 233.992 265.003 233.265C266.759 232.537 268.26 231.305 269.316 229.725C270.371 228.145 270.935 226.287 270.935 224.386C270.928 221.839 269.913 219.399 268.113 217.598C266.312 215.797 263.872 214.782 261.325 214.774V214.776Z" fill="#1E1A15"/>
<path d="M253.816 222.735C250.935 222.735 248.119 221.881 245.723 220.28C243.328 218.68 241.461 216.405 240.359 213.743C239.256 211.082 238.968 208.153 239.53 205.327C240.092 202.502 241.479 199.906 243.516 197.869C245.553 195.832 248.149 194.445 250.974 193.883C253.8 193.321 256.729 193.609 259.39 194.712C262.052 195.814 264.327 197.681 265.927 200.077C267.528 202.472 268.382 205.288 268.382 208.169C268.373 212.029 266.836 215.729 264.106 218.459C261.376 221.189 257.676 222.726 253.816 222.735ZM253.816 195.405C251.292 195.405 248.824 196.154 246.725 197.556C244.626 198.959 242.99 200.952 242.024 203.284C241.057 205.617 240.805 208.183 241.297 210.659C241.79 213.135 243.005 215.409 244.791 217.195C246.576 218.98 248.85 220.195 251.326 220.688C253.802 221.18 256.368 220.927 258.701 219.961C261.033 218.995 263.026 217.359 264.429 215.26C265.831 213.161 266.58 210.693 266.58 208.169C266.573 204.786 265.226 201.543 262.834 199.15C260.442 196.758 257.199 195.41 253.816 195.403V195.405Z" fill="#1E1A15"/>
<path d="M306.974 113.115H327.396L317.185 95.4861L306.974 113.115Z" fill="#4385F5"/>
<path d="M328.957 114.016H305.412L317.185 93.6841L328.957 114.016ZM308.535 112.216H325.835L317.186 97.2901L308.535 112.216Z" fill="#1E1A15"/>
<path d="M331.961 105.307H302.409L317.185 79.7791L331.961 105.307ZM305.532 103.507H328.838L317.185 83.3791L305.532 103.507Z" fill="#1E1A15"/>
<path d="M99.2979 1.69385H73.1689V8.90185H99.2979V1.69385Z" fill="#EA4235"/>
<path d="M100.198 9.80296H72.2681V0.792969H100.198V9.80296ZM74.0691 8.00298H98.3961V2.59297H74.0681L74.0691 8.00298Z" fill="#1E1A15"/>
<path d="M39.3821 83.833L31.5431 61.884C34.0497 60.6675 36.0697 58.6369 37.2729 56.1238C38.476 53.6108 38.7913 50.764 38.1672 48.0486C37.5431 45.3331 36.0165 42.9097 33.8369 41.1741C31.6572 39.4386 28.9533 38.4937 26.1671 38.4937C23.3809 38.4937 20.677 39.4386 18.4974 41.1741C16.3177 42.9097 14.7911 45.3331 14.167 48.0486C13.5429 50.764 13.8582 53.6108 15.0614 56.1238C16.2646 58.6369 18.2845 60.6675 20.7911 61.884L12.9531 83.833H39.3821Z" fill="#1E1A15"/>
<path d="M244.055 78.1281C244.055 78.1281 272.196 69.8091 270.184 51.1281C268.802 38.3041 260.123 35.9011 244.055 32.4781C234.384 30.4061 227.927 20.7351 214.923 8.51207C201.919 -3.71093 193.75 3.94707 193.75 3.94707C193.75 3.94707 169.724 -0.552937 183.239 50.4981L244.055 78.1281Z" fill="#1E1A15"/>
<path d="M193.119 61.5501V34.1301C193.119 34.1301 182.157 32.6301 186.632 12.6871L195.612 8.69312C195.612 8.69312 202.58 20.6461 213.061 27.1331V63.0221L193.119 61.5501Z" fill="white"/>
<path d="M213.962 64.0132L192.218 62.3911V34.8512C190.167 34.1921 188.399 32.8584 187.202 31.0672C184.379 27.0132 183.902 20.7671 185.76 12.5071L185.85 12.0562L195.971 7.55615L196.391 8.24715C196.451 8.36715 203.391 20.0801 213.54 26.3871L213.961 26.6572L213.962 64.0132ZM194.02 60.7132L212.16 62.0641V27.6731C203.18 21.9371 196.903 12.5061 195.252 9.89415L187.413 13.3781C185.821 20.7961 186.242 26.5621 188.674 30.0781C189.715 31.7065 191.355 32.8607 193.239 33.2921L194.02 33.4121V60.7132Z" fill="#1E1A15"/>
<path d="M217.506 121.164L108.787 118.371C105.334 118.253 101.918 119.118 98.9363 120.864C92.1493 124.888 85.0013 135.164 97.6443 161.318C97.6443 161.318 138.459 248.503 139.75 248.503C141.041 248.503 163.476 239.493 163.476 239.493L134.885 154.801L207.835 158.435L217.506 121.164Z" fill="white"/>
<path d="M139.81 249.376C139.059 249.376 138.789 249.376 131.881 235.261C128.337 228.023 123.472 217.932 117.465 205.288C107.224 183.724 96.9832 161.888 96.8932 161.68C91.1872 149.907 88.9342 140.116 90.1662 132.638C90.5249 130.052 91.4618 127.581 92.9073 125.408C94.3527 123.234 96.2695 121.415 98.5152 120.084C101.647 118.266 105.226 117.361 108.846 117.471L218.676 120.294L208.555 159.367L136.206 155.767L164.647 240.009L163.866 240.309C157.079 243.039 141.127 249.376 139.81 249.376ZM108.31 119.244C105.188 119.224 102.117 120.044 99.4202 121.617C97.392 122.804 95.6613 124.438 94.3602 126.395C93.0591 128.351 92.2219 130.579 91.9122 132.909C90.7412 140.027 92.9332 149.427 98.4892 160.87C113.836 193.67 137.081 242.679 140.145 247.485C142.698 246.764 154.531 242.109 162.399 238.956L133.658 153.813L207.178 157.477L216.338 122.038L108.757 119.274C108.608 119.248 108.457 119.238 108.306 119.244H108.31Z" fill="#1E1A15"/>
<path d="M215.429 126.63C215.429 126.63 224.799 167.264 187.559 168.315L113.078 159.455C113.078 159.455 59.3782 254.809 57.5472 254.028C55.7162 253.247 37.4292 244.72 37.4292 243.668C37.4292 242.616 72.3292 163.841 85.2112 137.832C88.6652 130.832 95.4222 126.032 114.403 126.632H163.567L172.307 117.021L215.429 126.63Z" fill="white"/>
<path d="M57.5511 254.931C57.4161 254.93 57.2829 254.899 57.161 254.841C56.17 254.42 51.0611 252.048 46.3791 249.735C36.4981 244.87 36.498 244.359 36.498 243.635C36.498 243.365 36.498 243.064 42.234 229.97C45.928 221.561 50.6731 210.809 55.6591 199.727C61.6961 186.272 76.5591 153.236 84.4001 137.409C86.278 133.415 89.5597 130.25 93.6201 128.519C98.5451 126.327 105.333 125.396 114.433 125.696H163.176L172.006 115.996L216.154 125.877L216.274 126.418C216.454 127.229 220.749 146.39 211.048 158.918C206.003 165.435 198.104 168.889 187.532 169.189H187.412L113.531 160.419C111.489 164.053 99.1451 185.947 86.7421 207.48C78.8131 221.265 72.416 232.227 67.731 240.036C64.938 244.691 62.7461 248.265 61.1841 250.668C60.3431 251.989 59.6521 252.981 59.1721 253.611C58.6921 254.27 58.1821 254.931 57.5511 254.931ZM38.39 243.458C40.612 245.14 53.9171 251.447 57.3711 252.978C61.3951 248.323 92.0891 194.804 112.241 159.005L112.541 158.494L113.141 158.554L187.592 167.414C197.533 167.114 204.981 163.9 209.666 157.834C217.955 147.112 215.282 130.594 214.682 127.381L172.576 118.011L163.927 127.531H114.343C94.371 126.9 88.9051 132.306 85.9621 138.223C73.7981 162.85 40.883 236.851 38.39 243.458Z" fill="#1E1A15"/>
<path d="M126.327 222.105C126.327 222.105 142.154 221.324 153.567 208.891L174.89 266.404C174.89 266.404 160.955 282.532 143.896 290.25L148.281 269.828L126.327 222.105Z" fill="#1E1A15"/>
<path d="M151.676 272.588L146.686 274.818L147.421 276.463L152.412 274.233L151.676 272.588Z" fill="white"/>
<path d="M153.939 266.817L147.878 269.371L148.578 271.032L154.639 268.478L153.939 266.817Z" fill="white"/>
<path d="M153.084 261.264L145.904 264.558L146.656 266.196L153.836 262.902L153.084 261.264Z" fill="white"/>
<path d="M146.809 266.704L145.428 265.112C144.828 264.391 139.511 258.084 139.992 253.85C140.035 253.319 140.195 252.805 140.46 252.343C140.725 251.881 141.088 251.483 141.524 251.177L141.614 251.117C142.102 250.843 142.654 250.704 143.214 250.714C143.773 250.725 144.32 250.885 144.797 251.177C147.05 252.619 147.77 257.003 147.019 264.602L146.809 266.704ZM142.544 252.679C142.334 252.848 142.159 253.058 142.03 253.295C141.902 253.532 141.821 253.792 141.793 254.06C141.523 256.312 143.685 259.86 145.393 262.169C145.844 254.931 144.493 253.159 143.831 252.739C143.643 252.612 143.423 252.538 143.196 252.528C142.969 252.517 142.743 252.57 142.544 252.679Z" fill="white"/>
<path d="M147.199 266.463L145.157 265.983C144.737 265.893 134.586 263.37 132.093 258.895C131.785 258.369 131.594 257.783 131.532 257.177C131.47 256.571 131.538 255.959 131.733 255.381L131.763 255.291C132.037 254.713 132.459 254.217 132.985 253.853C133.512 253.489 134.125 253.271 134.763 253.219C137.857 253.039 141.671 256.913 146.146 264.661L147.199 266.463ZM133.414 255.952C133.312 256.286 133.28 256.637 133.322 256.983C133.363 257.33 133.476 257.664 133.654 257.964C135.065 260.487 140.081 262.529 143.415 263.58C138.55 255.711 135.815 254.931 134.826 254.991C134.531 255.028 134.25 255.134 134.004 255.301C133.759 255.468 133.556 255.691 133.414 255.952Z" fill="#1E1A15"/>
<path d="M53.377 205.166C53.377 205.166 64.277 216.666 81.157 217.209L51.457 270.878C51.457 270.878 30.134 270.848 13.165 262.919L31.485 252.919L53.377 205.166Z" fill="#1E1A15"/>
<path d="M26.7616 255.065L25.8281 256.606L30.322 259.329L31.2554 257.788L26.7616 255.065Z" fill="white"/>
<path d="M31.639 252.307L30.8301 253.917L36.6536 256.843L37.4625 255.232L31.639 252.307Z" fill="white"/>
<path d="M33.9404 247.964L33.189 249.602L40.3692 252.896L41.1206 251.258L33.9404 247.964Z" fill="white"/>
<path d="M32.9248 249.765L33.2248 247.693C33.3748 246.762 34.6968 238.623 38.2398 236.221C38.6689 235.914 39.1583 235.702 39.6754 235.599C40.1926 235.496 40.7258 235.503 41.2398 235.621L41.3298 235.651C41.8584 235.843 42.3264 236.172 42.6853 236.605C43.0442 237.038 43.2812 237.559 43.3718 238.114C43.7318 240.757 40.8788 244.181 34.6318 248.535L32.9248 249.765ZM40.4028 237.331C39.9907 237.336 39.591 237.473 39.2618 237.721C37.3998 238.982 36.1088 242.947 35.4478 245.77C41.2138 241.385 41.6948 239.193 41.5748 238.412C41.5366 238.187 41.4422 237.976 41.3004 237.797C41.1586 237.619 40.974 237.479 40.7638 237.391C40.6463 237.357 40.5251 237.337 40.4028 237.332V237.331Z" fill="white"/>
<path d="M33.3749 249.915L32.4139 248.053C32.2039 247.663 27.4889 238.353 29.2909 233.517C29.4853 232.936 29.8035 232.404 30.2236 231.958C30.6436 231.512 31.1556 231.163 31.7239 230.934L31.8139 230.904C32.4295 230.733 33.0797 230.729 33.6974 230.892C34.3151 231.056 34.878 231.381 35.3279 231.835C37.4599 234.057 37.0399 239.493 34.0969 247.935L33.3749 249.915ZM32.3239 232.615C32.0033 232.752 31.7164 232.957 31.4831 233.216C31.2497 233.475 31.0757 233.782 30.9729 234.115C29.9819 236.815 31.6939 241.954 33.0729 245.197C35.8659 236.397 34.6949 233.815 34.0039 233.097C33.7843 232.886 33.5164 232.732 33.2236 232.648C32.9308 232.564 32.622 232.552 32.3239 232.615Z" fill="#1E1A15"/>
<path d="M252.855 90.6223L249.371 71.6113C248.885 68.8601 247.799 66.2498 246.19 63.966C244.581 61.6822 242.489 59.7809 240.061 58.3973L213.422 43.1403C213.422 43.1403 192.249 58.0063 192.849 41.4883L184.41 43.5883C176.818 45.3508 169.995 49.5102 164.949 55.4513L154.107 68.2173L172.247 86.0873L166.24 122.126L216.725 140.446L220.779 120.775L231.741 92.3943L252.855 90.6223Z" fill="#4385F5"/>
<path d="M217.416 141.648L165.25 122.727L171.317 86.4172L152.907 68.2772L164.29 54.8522C169.478 48.7835 176.462 44.5235 184.232 42.6891L193.812 40.3162L193.782 41.5162C193.662 44.8162 194.443 46.9222 196.095 47.8232C200.295 50.1062 209.67 44.6702 212.943 42.3872L213.424 42.0572L240.574 57.5842C243.119 59.0291 245.311 61.0202 246.994 63.4142C248.677 65.8083 249.808 68.5456 250.305 71.4292L253.939 91.4012L232.439 93.2012L221.717 120.981L217.416 141.648ZM167.261 121.526L216.061 139.245L219.935 120.535L219.965 120.475L231.137 91.5532L251.8 89.8112L248.5 71.7612C248.038 69.1378 247.005 66.6481 245.474 64.4683C243.943 62.2885 241.951 60.4719 239.64 59.1472L213.481 44.1912C211.529 45.4822 204.171 50.1672 198.555 50.1672C197.398 50.2076 196.25 49.9489 195.221 49.4162C193.149 48.3052 192.068 46.0222 191.947 42.6292L184.647 44.4292C177.245 46.1705 170.587 50.2197 165.636 55.9922L155.336 68.1252L173.206 85.7252L167.261 121.526Z" fill="#1E1A15"/>
<path d="M123.923 71.3661C123.923 71.3661 120.139 101.999 127.523 107.706C134.13 112.812 150.949 109.506 171.671 82.4791L154.556 67.7661L142.843 80.0791L123.923 71.3661Z" fill="white"/>
<path d="M134.224 110.623C131.635 110.712 129.09 109.942 126.986 108.431C123.686 105.878 122.031 98.8202 122.061 87.4082C122.111 82.0195 122.432 76.6367 123.022 71.2802L123.172 70.0492L142.633 78.9992L154.496 66.5352L172.906 82.3622L172.396 83.0532C155.518 105.067 142.724 109.692 136.596 110.503C135.786 110.563 134.975 110.623 134.224 110.623ZM124.703 72.7232C123.712 81.9132 122.631 102.786 128.097 107.023C130.109 108.555 132.962 109.155 136.356 108.705C142.156 107.954 154.226 103.539 170.443 82.6372L154.616 69.0372L143.053 81.2002L124.703 72.7232Z" fill="#1E1A15"/>
<path d="M82.5078 50.467L73.0479 67.946L78.2478 70.769L80.5609 66.5041L85.2758 69.057L82.9629 73.3221L86.7469 75.364L89.0598 71.0991L93.7748 73.652L91.4629 77.9171L96.4178 80.5901L105.878 63.1111L82.5078 50.467Z" fill="#FCBC03"/>
<path d="M96.7739 81.8221L90.2269 78.278L92.5399 74.013L89.4169 72.306L87.1049 76.571L81.7289 73.6581L84.0419 69.393L80.9169 67.6761L78.6049 71.941L71.8179 68.277L82.1169 49.2061L107.074 62.721L96.7739 81.8221ZM92.6898 77.557L96.0539 79.389L104.643 63.506L82.8689 51.7061L74.2799 67.593L77.8799 69.545L80.1929 65.28L86.4999 68.704L84.1869 72.9691L86.3789 74.14L88.6919 69.875L94.9989 73.299L92.6898 77.557Z" fill="#1E1A15"/>
<path d="M116.114 61.76C116.114 61.76 113.714 57.26 117.014 56.654C120.314 56.048 125.423 62.961 126.024 67.166L116.114 61.76Z" fill="white"/>
<path d="M127.197 68.817L115.484 62.417L115.364 62.177C115.214 61.877 113.802 59.177 114.733 57.277C114.939 56.863 115.244 56.5064 115.621 56.2391C115.998 55.9717 116.436 55.802 116.895 55.745C117.556 55.6747 118.224 55.7396 118.859 55.9358C119.494 56.1319 120.083 56.4552 120.589 56.886C123.532 58.986 126.505 63.733 126.956 67.007L127.197 68.817ZM116.806 61.099L124.614 65.364C123.539 62.6326 121.781 60.2225 119.509 58.364C118.871 57.8026 118.045 57.5023 117.196 57.523C116.596 57.643 116.415 57.883 116.325 58.064C115.968 58.816 116.446 60.318 116.806 61.099Z" fill="#1E1A15"/>
<path d="M81.9334 41.2435L77.5996 49.1453L168.021 98.7378L172.355 90.836L81.9334 41.2435Z" fill="#FCBC03"/>
<path d="M168.372 99.9311L76.3818 49.5061L81.5818 40.0161L173.572 90.4411L168.372 99.9311ZM78.8148 48.8161L167.652 97.4991L171.106 91.1921L82.2688 42.4791L78.8148 48.8161Z" fill="#1E1A15"/>
<path d="M173.779 129.634C168.775 126.893 164.696 122.729 162.058 117.669C159.42 112.61 158.341 106.882 158.959 101.209C159.577 95.5366 161.862 90.1747 165.527 85.8013C169.192 81.4279 174.072 78.2396 179.549 76.6394C185.026 75.0392 190.854 75.0991 196.297 76.8114C201.74 78.5238 206.553 81.8117 210.128 86.2595C213.702 90.7072 215.877 96.1149 216.378 101.799C216.879 107.483 215.683 113.188 212.942 118.192C209.263 124.899 203.072 129.872 195.728 132.018C188.385 134.163 180.491 133.306 173.779 129.634ZM195.733 89.57C192.814 87.969 189.485 87.2697 186.168 87.5606C182.851 87.8514 179.695 89.1193 177.098 91.204C174.502 93.2887 172.582 96.0964 171.581 99.2722C170.581 102.448 170.545 105.849 171.477 109.046C172.409 112.242 174.269 115.09 176.82 117.23C179.371 119.37 182.499 120.705 185.809 121.067C189.119 121.428 192.462 120.8 195.415 119.262C198.369 117.724 200.799 115.345 202.4 112.425C204.545 108.51 205.048 103.903 203.798 99.6173C202.548 95.3315 199.647 91.7176 195.733 89.57Z" fill="#FCBC03"/>
<path d="M187.594 134.079C180.059 134.07 172.808 131.206 167.299 126.065C161.79 120.924 158.434 113.887 157.905 106.371C157.376 98.8543 159.714 91.4167 164.449 85.5549C169.183 79.6931 175.962 75.8424 183.422 74.778C190.881 73.7135 198.467 75.5143 204.652 79.8178C210.837 84.1213 215.162 90.608 216.757 97.9723C218.351 105.337 217.097 113.031 213.246 119.508C209.396 125.985 203.235 130.762 196.003 132.879C193.271 133.674 190.44 134.078 187.594 134.079ZM187.684 76.3861C181.475 76.3779 175.439 78.4373 170.529 82.2393C165.62 86.0413 162.116 91.3697 160.57 97.3838C159.025 103.398 159.525 109.755 161.993 115.454C164.461 121.152 168.755 125.866 174.199 128.853C177.936 130.907 182.092 132.08 186.351 132.281C190.611 132.482 194.859 131.707 198.773 130.014C202.686 128.321 206.161 125.755 208.93 122.514C211.7 119.272 213.692 115.44 214.753 111.31C215.815 107.18 215.918 102.862 215.054 98.6869C214.191 94.5113 212.384 90.5885 209.772 87.2184C207.16 83.8483 203.812 81.1202 199.983 79.2427C196.155 77.3652 191.948 76.3881 187.684 76.3861ZM187.594 122.066C184.889 122.061 182.221 121.438 179.793 120.244C177.365 119.05 175.242 117.318 173.586 115.179C171.93 113.039 170.785 110.55 170.238 107.901C169.69 105.252 169.755 102.512 170.428 99.892C171.101 97.2717 172.363 94.8398 174.119 92.7818C175.875 90.7239 178.078 89.0943 180.56 88.0175C183.042 86.9407 185.737 86.4451 188.439 86.5686C191.141 86.6921 193.78 87.4314 196.153 88.7301C199.231 90.4166 201.739 92.9785 203.361 96.0914C204.982 99.2042 205.643 102.728 205.26 106.217C204.878 109.706 203.468 113.003 201.211 115.69C198.953 118.378 195.949 120.335 192.579 121.314C190.965 121.817 189.284 122.071 187.594 122.066ZM187.684 88.3991C183.793 88.3873 180.032 89.7962 177.106 92.3612C174.181 94.9262 172.292 98.471 171.795 102.33C171.298 106.189 172.226 110.097 174.406 113.319C176.586 116.542 179.867 118.859 183.634 119.834C187.401 120.808 191.394 120.375 194.863 118.614C198.333 116.853 201.041 113.887 202.478 110.271C203.915 106.656 203.983 102.64 202.67 98.9774C201.356 95.3151 198.75 92.2584 195.342 90.3811C192.997 89.0867 190.363 88.405 187.684 88.3991Z" fill="#1E1A15"/>
<path d="M227.39 92.2411L231.444 119.12L206.216 102.302C206.216 102.302 194.774 94.4931 192.101 106.202C192.101 106.202 187.266 108.302 189.101 112.809C189.101 112.809 184.146 114.309 185.857 121.068C188.532 121.365 191.239 121.026 193.757 120.077C193.757 120.077 199.613 121.519 202.316 129.327C202.316 129.327 236.824 153.654 251.269 140.439C251.269 140.439 257.546 136.839 255.769 117.314L252.615 89.8411L227.39 92.2411Z" fill="white"/>
<path d="M239.821 145.312C234.595 145.312 228.321 143.78 221.05 140.687C214.329 137.756 207.894 134.207 201.829 130.087L201.589 129.907L201.499 129.637C199.277 123.237 194.862 121.408 193.811 121.048C191.233 121.964 188.481 122.283 185.762 121.979L185.191 121.859L185.041 121.288C183.599 115.612 186.513 113.179 188.041 112.338C187.11 108.854 189.573 106.538 191.375 105.581C192.216 102.337 193.775 100.235 196.09 99.3341C200.745 97.5021 206.511 101.376 206.782 101.556L230.298 117.233L226.398 91.4331L253.458 88.8501L256.702 117.201C258.414 135.972 252.738 140.567 251.867 141.137C248.77 143.93 244.776 145.312 239.821 145.312ZM203.091 128.764C206.124 130.836 237.539 151.799 250.691 139.786L250.751 139.726L250.841 139.666C250.901 139.636 256.577 135.882 254.895 117.412L251.832 90.8331L228.432 93.0551L232.632 121.016L205.723 103.056C205.663 103.026 200.467 99.5421 196.713 101.014C194.913 101.735 193.65 103.537 192.989 106.39L192.899 106.841L192.479 107.021C192.059 107.201 188.515 108.913 189.956 112.457L190.316 113.357L189.385 113.657C189.235 113.717 185.571 114.948 186.622 120.234C188.947 120.355 191.273 120.018 193.469 119.243L193.709 119.153L193.949 119.213C194.231 119.273 200.208 120.835 203.091 128.764Z" fill="#1E1A15"/>
<path d="M197.775 114.917C197.745 114.887 193.575 112.184 189.875 113.505L189.275 111.793C193.84 110.171 198.585 113.265 198.795 113.385L197.775 114.917Z" fill="#1E1A15"/>
<path d="M201.619 109.812C201.439 109.632 197.444 105.187 192.399 107.049L191.768 105.367C197.985 103.084 202.76 108.4 202.968 108.611L201.619 109.812Z" fill="#1E1A15"/>
<path d="M139.39 82.3319C138.88 83.4729 136.69 86.2319 134.735 80.4699C134.735 80.4699 130.17 85.6699 128.035 76.8059C128.035 76.8059 122.599 83.9839 121.548 73.2619C121.608 70.5856 121.92 67.9209 122.479 65.3029C122.584 64.8899 122.8 64.5135 123.103 64.2144C123.406 63.9153 123.786 63.7049 124.2 63.6059C124.615 63.5069 125.048 63.5232 125.454 63.6529C125.86 63.7826 126.223 64.0209 126.503 64.3419C127.514 65.6222 128.054 67.2107 128.035 68.8419L128.455 67.0419C128.523 66.7406 128.663 66.4603 128.863 66.2251C129.063 65.9899 129.317 65.8068 129.604 65.6916C129.89 65.5764 130.201 65.5326 130.508 65.5638C130.815 65.595 131.11 65.7004 131.368 65.8709C132.69 66.7709 134.161 68.4839 134.642 71.8469L135.213 70.2549C135.297 70.0157 135.435 69.7988 135.615 69.6207C135.795 69.4425 136.014 69.3078 136.254 69.2268C136.495 69.1457 136.75 69.1204 137.002 69.1528C137.253 69.1853 137.494 69.2745 137.706 69.4139C139.298 70.4649 141.22 72.7139 140.649 77.2529C140.44 78.9912 140.017 80.697 139.39 82.3319Z" fill="white"/>
<path d="M137.438 84.9159H137.318C136.147 84.8559 135.156 83.8949 134.345 82.0029C133.888 82.3616 133.359 82.6194 132.795 82.7592C132.231 82.899 131.644 82.9176 131.072 82.8139C129.572 82.4539 128.429 81.0419 127.588 78.6139C126.627 79.4849 125.215 80.3859 123.804 79.9949C122.062 79.5139 121.041 77.3519 120.65 73.3879V73.2679C120.7 70.5298 121.022 67.8034 121.611 65.1289C121.757 64.5598 122.056 64.0414 122.476 63.6297C122.895 63.218 123.419 62.9286 123.99 62.7926C124.562 62.6567 125.16 62.6794 125.72 62.8583C126.28 63.0373 126.78 63.3656 127.167 63.8079C127.624 64.3333 127.99 64.9316 128.25 65.5779C128.532 65.2713 128.881 65.0347 129.271 64.8869C129.691 64.7206 130.146 64.6582 130.596 64.7053C131.045 64.7523 131.477 64.9072 131.854 65.1569C133.26 66.1154 134.313 67.5076 134.854 69.1209C135.16 68.7934 135.541 68.5458 135.965 68.3999C136.328 68.2754 136.716 68.2376 137.097 68.2897C137.477 68.3418 137.84 68.4823 138.157 68.6999C139.689 69.7209 142.121 72.1839 141.491 77.4089C141.298 79.2497 140.864 81.0571 140.2 82.7849C139.977 83.3577 139.602 83.8587 139.115 84.2342C138.628 84.6096 138.049 84.8454 137.438 84.9159ZM135.095 78.7289L135.606 80.2009C136.567 82.9939 137.348 83.1139 137.438 83.1139C137.798 83.1439 138.338 82.5139 138.579 81.9729C139.158 80.4166 139.532 78.7911 139.69 77.1379C140.2 73.0839 138.579 71.1009 137.137 70.1379C137.045 70.0762 136.941 70.036 136.832 70.0204C136.722 70.0048 136.611 70.0142 136.506 70.0479C136.39 70.0847 136.284 70.1469 136.196 70.2299C136.108 70.313 136.039 70.4148 135.995 70.5279L134.163 75.5439L133.682 71.9439C133.352 69.4209 132.361 67.6189 130.799 66.5979C130.66 66.5097 130.502 66.4559 130.338 66.4409C130.174 66.426 130.008 66.4504 129.856 66.5121C129.703 66.5738 129.567 66.671 129.46 66.7957C129.352 66.9203 129.276 67.0689 129.237 67.2289L127.375 75.3379L127.045 68.8809C127.067 67.4528 126.613 66.058 125.754 64.9169C125.581 64.7212 125.358 64.5765 125.109 64.4982C124.86 64.42 124.595 64.4113 124.341 64.473C124.088 64.5348 123.856 64.6647 123.671 64.8487C123.486 65.0327 123.354 65.2637 123.291 65.5169C122.765 68.048 122.464 70.6208 122.391 73.2049C122.811 77.4699 123.923 78.1299 124.253 78.2199C125.214 78.4899 126.686 77.0199 127.253 76.2679L128.394 74.7679L128.845 76.5999C129.476 79.2129 130.407 80.7999 131.458 81.0749C132.479 81.3449 133.65 80.3239 134.011 79.9039L135.095 78.7289Z" fill="#1E1A15"/>
<path d="M225.587 77.9614L223.817 78.3003L226.523 92.4295L228.293 92.0906L225.587 77.9614Z" fill="#1E1A15"/>
</svg>
