<svg width="24" height="23" viewBox="0 0 24 23" fill="none" xmlns="http://www.w3.org/2000/svg">
<path opacity="0.5" d="M1.30273 11.5797C1.30273 6.59112 1.30273 4.09684 2.852 2.54652C4.40127 0.996195 6.8966 0.997253 11.8852 0.997253C16.8737 0.997253 19.368 0.997253 20.9172 2.54652C22.4665 4.09579 22.4676 6.59112 22.4676 11.5797" stroke="#1C274C" stroke-width="1.5"/>
<path d="M1.30267 13.6962C1.30267 10.7331 1.30267 9.25154 1.87942 8.11922C2.38669 7.12366 3.19611 6.31424 4.19167 5.80697C5.32399 5.23022 6.80553 5.23022 9.76861 5.23022H14.0016C16.9647 5.23022 18.4462 5.23022 19.5785 5.80697C20.5741 6.31424 21.3835 7.12366 21.8908 8.11922C22.4675 9.25154 22.4675 10.7331 22.4675 13.6962C22.4675 16.6592 22.4675 18.1408 21.8908 19.2731C21.3835 20.2687 20.5741 21.0781 19.5785 21.5854C18.4462 22.1621 16.9647 22.1621 14.0016 22.1621H9.76861C6.80553 22.1621 5.32399 22.1621 4.19167 21.5854C3.19611 21.0781 2.38669 20.2687 1.87942 19.2731C1.30267 18.1408 1.30267 16.6592 1.30267 13.6962Z" stroke="#1C274C" stroke-width="1.5"/>
<path d="M11.8851 16.8709V10.5215M11.8851 10.5215L14.5307 13.1671M11.8851 10.5215L9.2395 13.1671" stroke="#1C274C" stroke-width="1.5" stroke-linecap="round" stroke-linejoin="round"/>
</svg>
