<svg width="111" height="67" viewBox="0 0 111 67" fill="none" xmlns="http://www.w3.org/2000/svg">
<path d="M109.386 1.29907H1.84003V65.2981H109.386V1.29907Z" fill="white"/>
<path d="M110.416 66.328H0.811035V0.27002H110.416V66.328ZM2.87 64.27H108.357V2.33002H2.87V64.27Z" fill="#F5B3A5"/>
<path d="M23.734 30.262C29.628 30.262 34.406 25.484 34.406 19.59C34.406 13.696 29.628 8.91797 23.734 8.91797C17.84 8.91797 13.062 13.696 13.062 19.59C13.062 25.484 17.84 30.262 23.734 30.262Z" fill="white"/>
<path d="M23.734 31.1201C21.4536 31.1201 19.2244 30.4439 17.3283 29.1769C15.4322 27.91 13.9543 26.1093 13.0817 24.0024C12.209 21.8956 11.9806 19.5773 12.4255 17.3407C12.8704 15.1041 13.9685 13.0496 15.581 11.4371C17.1935 9.82463 19.248 8.7265 21.4846 8.28161C23.7212 7.83672 26.0395 8.06506 28.1464 8.93774C30.2532 9.81041 32.0539 11.2883 33.3209 13.1844C34.5878 15.0805 35.264 17.3097 35.264 19.5901C35.2632 22.6478 34.0482 25.5801 31.8861 27.7422C29.724 29.9043 26.7917 31.1193 23.734 31.1201ZM23.734 9.74108C21.793 9.74108 19.8956 10.3167 18.2817 11.3951C16.6678 12.4734 15.4098 14.0062 14.667 15.7994C13.9242 17.5927 13.7299 19.566 14.1086 21.4697C14.4872 23.3734 15.422 25.1221 16.7945 26.4946C18.167 27.8671 19.9157 28.8019 21.8194 29.1805C23.7231 29.5592 25.6964 29.3649 27.4897 28.6221C29.283 27.8793 30.8157 26.6213 31.894 25.0074C32.9724 23.3935 33.548 21.4961 33.548 19.5551C33.5483 18.2662 33.2946 16.9899 32.8015 15.7991C32.3084 14.6083 31.5855 13.5263 30.6741 12.615C29.7628 11.7036 28.6808 10.9807 27.49 10.4876C26.2992 9.9945 25.0229 9.74082 23.734 9.74108Z" fill="#2E2E76"/>
<path d="M21.366 25.4581L15.738 19.7961L16.938 18.5961L21.3651 23.0231L30.047 14.3071L31.282 15.5421L21.366 25.4581Z" fill="#2E2E76"/>
<path d="M64.158 13.928H43.603V15.644H64.158V13.928Z" fill="#2E2E76"/>
<path d="M98.268 18.9722H43.603V20.6882H98.268V18.9722Z" fill="#2E2E76"/>
<path d="M98.268 24.0171H43.603V25.7331H98.268V24.0171Z" fill="#2E2E76"/>
<path d="M23.631 57.646C29.525 57.646 34.303 52.868 34.303 46.974C34.303 41.08 29.525 36.302 23.631 36.302C17.737 36.302 12.959 41.08 12.959 46.974C12.959 52.868 17.737 57.646 23.631 57.646Z" fill="white"/>
<path d="M23.631 58.538C21.3506 58.538 19.1214 57.8618 17.2253 56.5949C15.3292 55.328 13.8514 53.5272 12.9787 51.4203C12.106 49.3135 11.8777 46.9953 12.3226 44.7587C12.7675 42.5221 13.8656 40.4676 15.4781 38.8551C17.0906 37.2426 19.145 36.1445 21.3816 35.6996C23.6182 35.2547 25.9366 35.483 28.0434 36.3557C30.1502 37.2284 31.951 38.7062 33.2179 40.6023C34.4848 42.4984 35.161 44.7276 35.161 47.008C35.1602 50.0658 33.9452 52.998 31.7831 55.1601C29.621 57.3222 26.6887 58.5372 23.631 58.538ZM23.631 37.159C21.69 37.159 19.7925 37.7346 18.1786 38.813C16.5647 39.8914 15.3069 41.4241 14.5641 43.2174C13.8213 45.0107 13.6269 46.9839 14.0056 48.8876C14.3843 50.7914 15.3189 52.5401 16.6915 53.9126C18.064 55.2851 19.8127 56.2198 21.7164 56.5984C23.6202 56.9771 25.5934 56.7828 27.3867 56.04C29.18 55.2972 30.7127 54.0393 31.7911 52.4254C32.8694 50.8115 33.445 48.914 33.445 46.973C33.4397 44.3718 32.4041 41.8786 30.5648 40.0393C28.7254 38.2 26.2322 37.1643 23.631 37.159Z" fill="#2E2E76"/>
<path d="M21.503 52.8421L15.841 47.2151L17.076 46.0151L21.503 50.4421L30.185 41.7241L31.385 42.9591L21.503 52.8421Z" fill="#2E2E76"/>
<path d="M64.158 41.3459H43.603V43.0619H64.158V41.3459Z" fill="#2E2E76"/>
<path d="M98.268 46.3911H43.603V48.1071H98.268V46.3911Z" fill="#2E2E76"/>
<path d="M98.268 51.4011H43.603V53.1171H98.268V51.4011Z" fill="#2E2E76"/>
</svg>
