<svg width="71" height="69" viewBox="0 0 71 69" fill="none" xmlns="http://www.w3.org/2000/svg">
<path d="M41.264 1.9711C35.2614 1.09277 29.1327 1.8964 23.5595 4.29263C17.9862 6.68886 13.1867 10.5838 9.69455 15.5445C6.20238 20.5051 4.15438 26.337 3.77826 32.3919C3.40214 38.4468 4.71263 44.4874 7.56403 49.8421L2.00702 66.9661L20.435 63.0201C23.9268 64.9644 27.7393 66.2661 31.691 66.8631C40.2396 68.011 48.8962 65.7455 55.7865 60.5572C62.6768 55.3688 67.2461 47.6752 68.5051 39.1423C69.764 30.6094 67.6112 21.924 62.5128 14.9669C57.4144 8.00975 49.7809 3.34081 41.265 1.9711H41.264Z" fill="white"/>
<path d="M0.497009 68.339L6.46802 49.946C3.18853 43.6636 1.98687 36.5027 3.03601 29.494C4.35532 20.632 9.13373 12.6544 16.3242 7.30915C23.5147 1.96387 32.5308 -0.313169 41.397 0.976997C45.7885 1.62369 50.0097 3.12905 53.8195 5.40708C57.6293 7.68512 60.953 10.6912 63.601 14.2538C66.249 17.8164 68.1694 21.8656 69.2525 26.1703C70.3356 30.4751 70.5602 34.951 69.9135 39.3425C69.2668 43.734 67.7615 47.9552 65.4834 51.765C63.2054 55.5747 60.1993 58.8985 56.6367 61.5465C53.0742 64.1945 49.0249 66.1149 44.7202 67.198C40.4155 68.2811 35.9395 68.5057 31.548 67.859C27.6002 67.2848 23.7877 66.0061 20.292 64.084L0.497009 68.339ZM20.64 61.922L20.983 62.128C26.8897 65.4373 33.6999 66.771 40.4185 65.9345C47.1372 65.0979 53.4123 62.1348 58.3271 57.478C63.2419 52.8213 66.5389 46.715 67.7364 40.0512C68.9338 33.3873 67.9689 26.5152 64.9828 20.4387C61.9966 14.3623 57.1456 9.39991 51.1385 6.27662C45.1314 3.15333 38.2829 2.03276 31.5936 3.07865C24.9043 4.12454 18.7247 7.28208 13.9577 12.0899C9.1906 16.8978 6.08587 23.1041 5.09702 29.802C4.08507 36.5181 5.27805 43.3813 8.49701 49.362L8.703 49.74L3.55603 65.594L20.64 61.922Z" fill="#F5B3A5"/>
<path d="M29.047 34.1601L34.366 39.3421L43.288 29.425L29.047 34.1601Z" fill="white"/>
<path d="M34.401 40.575L28.4641 34.775L29.664 33.575L34.297 38.105L42.636 28.874L43.906 30.006L34.401 40.575Z" fill="#2E2E76"/>
<path d="M48.7791 46.994H23.557V21.772H48.7791V46.994ZM25.272 45.278H47.063V23.488H25.273L25.272 45.278Z" fill="#2E2E76"/>
</svg>
