<svg width="75" height="134" viewBox="0 0 75 134" fill="none" xmlns="http://www.w3.org/2000/svg">
<path d="M73.409 1.92212H1.63995V132.239H73.409V1.92212Z" fill="white"/>
<path d="M74.4199 133.246H0.297974V0.446045H74.4199V133.246ZM2.35596 131.187H72.356V2.50504H2.35596V131.187Z" fill="#F5B3A5"/>
<path d="M35.094 46.4641L27.613 39.1551L29.2599 37.4391L34.991 42.998L45.2859 31.571L47.0699 33.1841L35.094 46.4641Z" fill="#2E2E76"/>
<path d="M73.409 1.92212H1.63995V15.1431H73.409V1.92212Z" fill="white"/>
<path d="M74.4199 16.231H0.297974V0.446045H74.4199V16.231ZM2.35596 14.172H72.356V2.50504H2.35596V14.172Z" fill="#F5B3A5"/>
<path d="M8.25097 11.365C9.81559 11.365 11.084 10.0966 11.084 8.53197C11.084 6.96735 9.81559 5.69897 8.25097 5.69897C6.68635 5.69897 5.41797 6.96735 5.41797 8.53197C5.41797 10.0966 6.68635 11.365 8.25097 11.365Z" fill="#2563F6"/>
<path d="M17.222 11.365C18.5259 11.365 19.583 10.0966 19.583 8.53197C19.583 6.96735 18.5259 5.69897 17.222 5.69897C15.918 5.69897 14.861 6.96735 14.861 8.53197C14.861 10.0966 15.918 11.365 17.222 11.365Z" fill="#89EFD7"/>
<path d="M26.193 11.365C27.7576 11.365 29.026 10.0966 29.026 8.53197C29.026 6.96735 27.7576 5.69897 26.193 5.69897C24.6284 5.69897 23.36 6.96735 23.36 8.53197C23.36 10.0966 24.6284 11.365 26.193 11.365Z" fill="#F5B3A5"/>
</svg>
