<svg width="22" height="20" viewBox="0 0 22 20" fill="none" xmlns="http://www.w3.org/2000/svg">
<path d="M1.69097 9.00299C1.65157 8.91251 1.59474 8.83068 1.52372 8.76216C1.45269 8.69364 1.36887 8.63979 1.27703 8.60366C1.18519 8.56754 1.08714 8.54986 0.988473 8.55163C0.889803 8.55341 0.792448 8.5746 0.701968 8.61399C0.611487 8.65339 0.529652 8.71022 0.461135 8.78124C0.392618 8.85227 0.338761 8.93609 0.302639 9.02793C0.266517 9.11977 0.248837 9.21782 0.250609 9.31649C0.252382 9.41516 0.273571 9.51251 0.312967 9.60299L1.69097 9.00299ZM21.691 9.59399C21.7628 9.41247 21.7609 9.21011 21.6859 9.0299C21.6109 8.84969 21.4685 8.70584 21.2891 8.6289C21.1097 8.55195 20.9074 8.54799 20.7251 8.61784C20.5429 8.6877 20.395 8.82586 20.313 9.00299L21.691 9.59399ZM11.002 15.553C9.65945 15.5394 8.33501 15.2419 7.11564 14.68C5.89628 14.1182 4.80959 13.3047 3.92697 12.293C3.28238 11.5943 2.71262 10.8302 2.22697 10.013C2.04197 9.70199 1.90597 9.44499 1.81797 9.26799C1.77397 9.17999 1.74097 9.11099 1.71797 9.06799L1.69597 9.01899V9.00899L1.00197 9.30299L0.312967 9.60299V9.60899L0.321968 9.62899L0.352967 9.69699C0.379967 9.75499 0.418968 9.83699 0.469968 9.93999C0.569968 10.146 0.725967 10.44 0.931967 10.781C1.47347 11.6889 2.10861 12.5375 2.82697 13.313C3.84997 14.4762 5.10685 15.4106 6.51551 16.055C7.92418 16.6995 9.45294 17.0395 11.002 17.053V15.553ZM14.315 14.934C13.2597 15.348 12.1355 15.558 11.002 15.553V17.053C12.3234 17.058 13.6338 16.8127 14.864 16.33L14.315 14.934ZM21.002 9.30299L20.313 9.00299L20.307 9.01599L20.279 9.07799C20.253 9.13399 20.212 9.21999 20.156 9.32899C20.044 9.54899 19.872 9.86499 19.639 10.24C19.0386 11.2081 18.3164 12.095 17.49 12.879L18.517 13.973C19.4398 13.1004 20.2464 12.1126 20.917 11.034C21.176 10.618 21.368 10.264 21.497 10.012C21.561 9.88599 21.61 9.78399 21.643 9.71199L21.681 9.62799L21.692 9.60399V9.59699L21.002 9.30299ZM17.489 12.885C16.5704 13.763 15.4933 14.4584 14.315 14.934L14.864 16.334C16.219 15.7888 17.458 14.991 18.515 13.983L17.489 12.885Z" fill="#1C274C"/>
<path opacity="0.5" d="M11.7521 16.303C11.7521 16.1041 11.6731 15.9133 11.5324 15.7727C11.3917 15.632 11.201 15.553 11.0021 15.553C10.8032 15.553 10.6124 15.632 10.4717 15.7727C10.3311 15.9133 10.2521 16.1041 10.2521 16.303H11.7521ZM15.2181 15.223C15.1653 15.1384 15.0962 15.0652 15.0148 15.0076C14.9334 14.9501 14.8413 14.9093 14.744 14.8877C14.6467 14.8662 14.546 14.8642 14.4479 14.882C14.3498 14.8998 14.2562 14.937 14.1727 14.9914C14.0891 15.0457 14.0172 15.1162 13.9612 15.1987C13.9052 15.2812 13.8662 15.374 13.8465 15.4718C13.8268 15.5695 13.8268 15.6702 13.8465 15.7679C13.8661 15.8657 13.9051 15.9585 13.9611 16.041L15.2181 15.223ZM8.04407 16.041C8.10004 15.9585 8.139 15.8657 8.15867 15.7679C8.17834 15.6702 8.17833 15.5695 8.15863 15.4718C8.13893 15.374 8.09994 15.2812 8.04394 15.1987C7.98794 15.1162 7.91605 15.0457 7.83249 14.9914C7.74892 14.937 7.65535 14.8998 7.55725 14.882C7.45915 14.8642 7.35849 14.8662 7.26115 14.8877C7.16381 14.9093 7.07175 14.9501 6.99035 15.0076C6.90894 15.0652 6.83984 15.1384 6.78707 15.223L8.04407 16.041ZM5.37407 17.394C5.3181 17.4765 5.27914 17.5694 5.25947 17.6671C5.2398 17.7649 5.23981 17.8655 5.25952 17.9633C5.27922 18.061 5.31821 18.1538 5.3742 18.2363C5.4302 18.3188 5.50209 18.3893 5.58565 18.4437C5.66922 18.4981 5.76279 18.5352 5.86089 18.553C5.95899 18.5708 6.05965 18.5689 6.15699 18.5473C6.25433 18.5257 6.3464 18.485 6.4278 18.4274C6.5092 18.3698 6.5783 18.2966 6.63107 18.212L5.37407 17.394ZM18.5321 12.903C18.3914 12.7623 18.2005 12.6833 18.0016 12.6833C17.8026 12.6833 17.6118 12.7623 17.4711 12.903C17.3304 13.0437 17.2513 13.2345 17.2513 13.4335C17.2513 13.6325 17.3304 13.8233 17.4711 13.964L18.5321 12.903ZM18.9711 15.464C19.1118 15.6047 19.3026 15.6838 19.5016 15.6838C19.7005 15.6838 19.8914 15.6047 20.0321 15.464C20.1728 15.3233 20.2518 15.1325 20.2518 14.9335C20.2518 14.7345 20.1728 14.5437 20.0321 14.403L18.9711 15.464ZM10.2521 18.803C10.2521 19.0019 10.3311 19.1927 10.4717 19.3334C10.6124 19.474 10.8032 19.553 11.0021 19.553C11.201 19.553 11.3917 19.474 11.5324 19.3334C11.6731 19.1927 11.7521 19.0019 11.7521 18.803H10.2521ZM15.3731 18.212C15.4258 18.2966 15.4949 18.3698 15.5763 18.4274C15.6577 18.485 15.7498 18.5257 15.8471 18.5473C15.9445 18.5689 16.0452 18.5708 16.1433 18.553C16.2414 18.5352 16.3349 18.4981 16.4185 18.4437C16.5021 18.3893 16.5739 18.3188 16.6299 18.2363C16.6859 18.1538 16.7249 18.061 16.7446 17.9633C16.7643 17.8655 16.7643 17.7649 16.7447 17.6671C16.725 17.5694 16.686 17.4765 16.6301 17.394L15.3731 18.212ZM4.53207 13.962C4.60705 13.8937 4.66738 13.8109 4.70942 13.7185C4.75146 13.6262 4.77433 13.5263 4.77666 13.4249C4.77898 13.3235 4.76071 13.2226 4.72294 13.1285C4.68518 13.0343 4.6287 12.9488 4.55694 12.8771C4.48517 12.8054 4.39961 12.749 4.30542 12.7114C4.21123 12.6737 4.11038 12.6555 4.00896 12.6579C3.90755 12.6603 3.80768 12.6833 3.71539 12.7254C3.62311 12.7676 3.54033 12.828 3.47207 12.903L4.53207 13.962ZM1.97207 14.403C1.8423 14.5457 1.77247 14.7328 1.77707 14.9256C1.78167 15.1184 1.86035 15.302 1.99678 15.4383C2.1332 15.5746 2.31688 15.6531 2.50967 15.6575C2.70246 15.6619 2.88955 15.5919 3.03207 15.462L1.97207 14.403ZM6.78707 15.223L5.37307 17.394L6.63007 18.212L8.04407 16.041L6.78707 15.223ZM17.4731 13.964L18.9731 15.464L20.0321 14.403L18.5321 12.903L17.4731 13.964ZM10.2521 16.303V18.803H11.7521V16.303H10.2521ZM13.9611 16.041L15.3731 18.212L16.6301 17.394L15.2181 15.223L13.9611 16.041ZM3.47207 12.903L1.97207 14.403L3.03207 15.462L4.53207 13.962L3.47207 12.903Z" fill="#1C274C"/>
</svg>
