<svg width="23" height="20" viewBox="0 0 23 20" fill="none" xmlns="http://www.w3.org/2000/svg">
<path d="M2.42601 8.79474C2.38662 8.70426 2.32979 8.62243 2.25876 8.55391C2.18774 8.48539 2.10392 8.43153 2.01208 8.39541C1.92024 8.35929 1.82219 8.34161 1.72352 8.34338C1.62485 8.34516 1.52749 8.36634 1.43701 8.40574C1.34653 8.44514 1.2647 8.50197 1.19618 8.57299C1.12766 8.64402 1.07381 8.72784 1.03769 8.81968C1.00156 8.91151 0.983884 9.00957 0.985656 9.10824C0.987428 9.20691 1.00862 9.30426 1.04801 9.39474L2.42601 8.79474ZM22.426 9.38574C22.4978 9.20422 22.496 9.00186 22.421 8.82165C22.3459 8.64144 22.2036 8.49759 22.0242 8.42064C21.8448 8.3437 21.6425 8.33974 21.4602 8.40959C21.2779 8.47944 21.13 8.61761 21.048 8.79474L22.426 9.38574ZM11.737 15.3447C10.3945 15.3311 9.07005 15.0336 7.85069 14.4718C6.63132 13.9099 5.54463 13.0964 4.66201 12.0847C4.01743 11.3861 3.44767 10.6219 2.96201 9.80474C2.77701 9.49374 2.64101 9.23674 2.55301 9.05974C2.50901 8.97174 2.47601 8.90274 2.45301 8.85974L2.43101 8.81074V8.80074L1.73701 9.09474L1.04801 9.39474V9.40074L1.05701 9.42074L1.08801 9.48874C1.11501 9.54674 1.15401 9.62874 1.20501 9.73174C1.30501 9.93774 1.46101 10.2317 1.66701 10.5727C2.20852 11.4806 2.84365 12.3292 3.56201 13.1047C4.58502 14.268 5.8419 15.2023 7.25056 15.8468C8.65923 16.4912 10.188 16.8313 11.737 16.8447V15.3447ZM15.05 14.7257C13.9948 15.1397 12.8706 15.3498 11.737 15.3447V16.8447C13.0585 16.8498 14.3689 16.6044 15.599 16.1217L15.05 14.7257ZM21.737 9.09474L21.048 8.79474L21.042 8.80774L21.014 8.86974C20.988 8.92574 20.947 9.01174 20.891 9.12074C20.779 9.34074 20.607 9.65674 20.374 10.0317C19.7736 10.9998 19.0514 11.8867 18.225 12.6707L19.252 13.7647C20.1748 12.8921 20.9814 11.9043 21.652 10.8257C21.911 10.4097 22.103 10.0557 22.232 9.80374C22.296 9.67774 22.345 9.57574 22.378 9.50374L22.416 9.41974L22.427 9.39574V9.38874L21.737 9.09474ZM18.224 12.6767C17.3055 13.5548 16.2283 14.2501 15.05 14.7257L15.599 16.1257C16.954 15.5806 18.193 14.7828 19.25 13.7747L18.224 12.6767Z" fill="#1C274C"/>
<path opacity="0.5" d="M12.487 16.0948C12.487 15.8959 12.408 15.7051 12.2673 15.5644C12.1267 15.4238 11.9359 15.3448 11.737 15.3448C11.5381 15.3448 11.3473 15.4238 11.2067 15.5644C11.066 15.7051 10.987 15.8959 10.987 16.0948H12.487ZM15.953 15.0148C15.9002 14.9302 15.8311 14.857 15.7497 14.7994C15.6683 14.7418 15.5763 14.7011 15.4789 14.6795C15.3816 14.6579 15.2809 14.656 15.1828 14.6738C15.0847 14.6916 14.9911 14.7287 14.9076 14.7831C14.824 14.8375 14.7521 14.908 14.6961 14.9905C14.6401 15.073 14.6011 15.1658 14.5814 15.2635C14.5617 15.3613 14.5617 15.4619 14.5814 15.5597C14.6011 15.6574 14.64 15.7503 14.696 15.8328L15.953 15.0148ZM8.779 15.8328C8.83497 15.7503 8.87393 15.6574 8.8936 15.5597C8.91327 15.4619 8.91325 15.3613 8.89355 15.2635C8.87385 15.1658 8.83486 15.073 8.77886 14.9905C8.72286 14.908 8.65098 14.8375 8.56741 14.7831C8.48385 14.7287 8.39028 14.6916 8.29218 14.6738C8.19408 14.656 8.09341 14.6579 7.99607 14.6795C7.89873 14.7011 7.80667 14.7418 7.72527 14.7994C7.64387 14.857 7.57476 14.9302 7.522 15.0148L8.779 15.8328ZM6.109 17.1858C6.05302 17.2683 6.01406 17.3611 5.99439 17.4589C5.97472 17.5566 5.97474 17.6573 5.99444 17.755C6.01414 17.8528 6.05313 17.9456 6.10913 18.0281C6.16513 18.1106 6.23701 18.1811 6.32058 18.2354C6.40414 18.2898 6.49771 18.327 6.59581 18.3448C6.69391 18.3626 6.79458 18.3606 6.89192 18.3391C6.98926 18.3175 7.08132 18.2767 7.16272 18.2192C7.24412 18.1616 7.31323 18.0884 7.366 18.0038L6.109 17.1858ZM19.267 12.6948C19.1263 12.5541 18.9355 12.475 18.7365 12.475C18.5375 12.475 18.3467 12.5541 18.206 12.6948C18.0653 12.8355 17.9863 13.0263 17.9863 13.2253C17.9863 13.4242 18.0653 13.6151 18.206 13.7558L19.267 12.6948ZM19.706 15.2558C19.8467 15.3965 20.0375 15.4755 20.2365 15.4755C20.4355 15.4755 20.6263 15.3965 20.767 15.2558C20.9077 15.1151 20.9867 14.9242 20.9867 14.7253C20.9867 14.5263 20.9077 14.3355 20.767 14.1948L19.706 15.2558ZM10.987 18.5948C10.987 18.7937 11.066 18.9844 11.2067 19.1251C11.3473 19.2658 11.5381 19.3448 11.737 19.3448C11.9359 19.3448 12.1267 19.2658 12.2673 19.1251C12.408 18.9844 12.487 18.7937 12.487 18.5948H10.987ZM16.108 18.0038C16.1608 18.0884 16.2299 18.1616 16.3113 18.2192C16.3927 18.2767 16.4847 18.3175 16.5821 18.3391C16.6794 18.3606 16.7801 18.3626 16.8782 18.3448C16.9763 18.327 17.0698 18.2898 17.1534 18.2354C17.237 18.1811 17.3089 18.1106 17.3649 18.0281C17.4209 17.9456 17.4598 17.8528 17.4796 17.755C17.4993 17.6573 17.4993 17.5566 17.4796 17.4589C17.4599 17.3611 17.421 17.2683 17.365 17.1858L16.108 18.0038ZM5.267 13.7538C5.34197 13.6854 5.4023 13.6026 5.44434 13.5103C5.48638 13.418 5.50926 13.3181 5.51158 13.2166C5.51391 13.1152 5.49563 13.0144 5.45787 12.9202C5.4201 12.8261 5.36363 12.7406 5.29186 12.6689C5.22009 12.5972 5.13453 12.5408 5.04034 12.5031C4.94615 12.4654 4.8453 12.4473 4.74389 12.4497C4.64247 12.4521 4.5426 12.4751 4.45032 12.5172C4.35804 12.5593 4.27526 12.6197 4.20699 12.6948L5.267 13.7538ZM2.707 14.1948C2.57723 14.3374 2.50739 14.5246 2.51199 14.7174C2.51659 14.9101 2.59528 15.0937 2.7317 15.23C2.86812 15.3663 3.0518 15.4448 3.2446 15.4493C3.43739 15.4537 3.62447 15.3837 3.767 15.2538L2.707 14.1948ZM7.522 15.0148L6.10799 17.1858L7.365 18.0038L8.779 15.8328L7.522 15.0148ZM18.208 13.7558L19.708 15.2558L20.767 14.1948L19.267 12.6948L18.208 13.7558ZM10.987 16.0948V18.5948H12.487V16.0948H10.987ZM14.696 15.8328L16.108 18.0038L17.365 17.1858L15.953 15.0148L14.696 15.8328ZM4.20699 12.6948L2.707 14.1948L3.767 15.2538L5.267 13.7538L4.20699 12.6948Z" fill="#1C274C"/>
</svg>
