<svg width="23" height="20" viewBox="0 0 23 20" fill="none" xmlns="http://www.w3.org/2000/svg">
<path d="M2.42607 8.79523C2.38668 8.70475 2.32985 8.62291 2.25882 8.5544C2.1878 8.48588 2.10398 8.43202 2.01214 8.3959C1.9203 8.35978 1.82225 8.3421 1.72358 8.34387C1.62491 8.34564 1.52756 8.36683 1.43707 8.40623C1.34659 8.44563 1.26476 8.50246 1.19624 8.57348C1.12773 8.6445 1.07387 8.72833 1.03775 8.82016C1.00162 8.912 0.983945 9.01005 0.985717 9.10872C0.987489 9.20739 1.00868 9.30475 1.04807 9.39523L2.42607 8.79523ZM22.4261 9.38623C22.4979 9.2047 22.496 9.00234 22.421 8.82214C22.346 8.64193 22.2037 8.49807 22.0243 8.42113C21.8449 8.34419 21.6425 8.34023 21.4602 8.41008C21.278 8.47993 21.1301 8.6181 21.0481 8.79523L22.4261 9.38623ZM11.7371 15.3452C10.3946 15.3316 9.07011 15.0341 7.85075 14.4723C6.63138 13.9104 5.5447 13.0969 4.66208 12.0852C4.01749 11.3866 3.44773 10.6224 2.96207 9.80523C2.77707 9.49423 2.64107 9.23723 2.55307 9.06023C2.50907 8.97223 2.47608 8.90323 2.45308 8.86023L2.43107 8.81123V8.80123L1.73707 9.09523L1.04807 9.39523V9.40123L1.05707 9.42123L1.08807 9.48923C1.11507 9.54723 1.15407 9.62923 1.20507 9.73223C1.30507 9.93823 1.46107 10.2322 1.66707 10.5732C2.20858 11.4811 2.84371 12.3297 3.56207 13.1052C4.58508 14.2685 5.84196 15.2028 7.25062 15.8473C8.65929 16.4917 10.1881 16.8318 11.7371 16.8452V15.3452ZM15.0501 14.7262C13.9948 15.1402 12.8706 15.3502 11.7371 15.3452V16.8452C13.0585 16.8502 14.3689 16.6049 15.5991 16.1222L15.0501 14.7262ZM21.7371 9.09523L21.0481 8.79523L21.0421 8.80823L21.0141 8.87023C20.9881 8.92623 20.9471 9.01223 20.8911 9.12123C20.7791 9.34123 20.6071 9.65723 20.3741 10.0322C19.7737 11.0003 19.0515 11.8872 18.2251 12.6712L19.2521 13.7652C20.1749 12.8926 20.9815 11.9048 21.6521 10.8262C21.9111 10.4102 22.1031 10.0562 22.2321 9.80423C22.2961 9.67823 22.3451 9.57623 22.3781 9.50423L22.4161 9.42023L22.4271 9.39623V9.38923L21.7371 9.09523ZM18.2241 12.6772C17.3055 13.5553 16.2284 14.2506 15.0501 14.7262L15.5991 16.1262C16.9541 15.5811 18.1931 14.7832 19.2501 13.7752L18.2241 12.6772Z" fill="#1C274C"/>
<path opacity="0.5" d="M12.4872 16.0953C12.4872 15.8963 12.4082 15.7056 12.2675 15.5649C12.1269 15.4243 11.9361 15.3453 11.7372 15.3453C11.5383 15.3453 11.3475 15.4243 11.2068 15.5649C11.0662 15.7056 10.9872 15.8963 10.9872 16.0953H12.4872ZM15.9532 15.0153C15.9004 14.9307 15.8313 14.8574 15.7499 14.7999C15.6685 14.7423 15.5764 14.7015 15.4791 14.68C15.3818 14.6584 15.2811 14.6565 15.183 14.6742C15.0849 14.692 14.9913 14.7292 14.9078 14.7836C14.8242 14.838 14.7523 14.9085 14.6963 14.991C14.6403 15.0734 14.6013 15.1663 14.5816 15.264C14.5619 15.3617 14.5619 15.4624 14.5816 15.5602C14.6012 15.6579 14.6402 15.7508 14.6962 15.8333L15.9532 15.0153ZM8.77918 15.8333C8.83515 15.7508 8.87411 15.6579 8.89378 15.5602C8.91345 15.4624 8.91343 15.3617 8.89373 15.264C8.87403 15.1663 8.83504 15.0734 8.77904 14.991C8.72305 14.9085 8.65116 14.838 8.5676 14.7836C8.48403 14.7292 8.39046 14.692 8.29236 14.6742C8.19426 14.6565 8.0936 14.6584 7.99626 14.68C7.89892 14.7015 7.80685 14.7423 7.72545 14.7999C7.64405 14.8574 7.57495 14.9307 7.52218 15.0153L8.77918 15.8333ZM6.10918 17.1863C6.05321 17.2688 6.01425 17.3616 5.99458 17.4593C5.97491 17.5571 5.97492 17.6578 5.99462 17.7555C6.01432 17.8532 6.05331 17.9461 6.10931 18.0286C6.16531 18.1111 6.23719 18.1815 6.32076 18.2359C6.40433 18.2903 6.49789 18.3275 6.596 18.3453C6.6941 18.3631 6.79476 18.3611 6.8921 18.3395C6.98944 18.318 7.0815 18.2772 7.1629 18.2196C7.2443 18.1621 7.31341 18.0889 7.36618 18.0043L6.10918 17.1863ZM19.2672 12.6953C19.1265 12.5546 18.9357 12.4755 18.7367 12.4755C18.5377 12.4755 18.3469 12.5546 18.2062 12.6953C18.0655 12.836 17.9864 13.0268 17.9864 13.2258C17.9864 13.4247 18.0655 13.6156 18.2062 13.7563L19.2672 12.6953ZM19.7062 15.2563C19.8469 15.397 20.0377 15.476 20.2367 15.476C20.4357 15.476 20.6265 15.397 20.7672 15.2563C20.9079 15.1156 20.9869 14.9247 20.9869 14.7258C20.9869 14.5268 20.9079 14.336 20.7672 14.1953L19.7062 15.2563ZM10.9872 18.5953C10.9872 18.7942 11.0662 18.9849 11.2068 19.1256C11.3475 19.2662 11.5383 19.3453 11.7372 19.3453C11.9361 19.3453 12.1269 19.2662 12.2675 19.1256C12.4082 18.9849 12.4872 18.7942 12.4872 18.5953H10.9872ZM16.1082 18.0043C16.1609 18.0889 16.2301 18.1621 16.3115 18.2196C16.3929 18.2772 16.4849 18.318 16.5823 18.3395C16.6796 18.3611 16.7803 18.3631 16.8784 18.3453C16.9765 18.3275 17.07 18.2903 17.1536 18.2359C17.2372 18.1815 17.309 18.1111 17.365 18.0286C17.421 17.9461 17.46 17.8532 17.4797 17.7555C17.4994 17.6578 17.4995 17.5571 17.4798 17.4593C17.4601 17.3616 17.4212 17.2688 17.3652 17.1863L16.1082 18.0043ZM5.26718 13.7543C5.34215 13.6859 5.40249 13.6031 5.44453 13.5108C5.48657 13.4184 5.50944 13.3186 5.51177 13.2171C5.51409 13.1157 5.49582 13.0149 5.45805 12.9207C5.42028 12.8266 5.36381 12.7411 5.29204 12.6694C5.22028 12.5977 5.13471 12.5413 5.04053 12.5036C4.94634 12.4659 4.84549 12.4477 4.74407 12.4502C4.64266 12.4526 4.54279 12.4756 4.4505 12.5177C4.35822 12.5598 4.27544 12.6202 4.20718 12.6953L5.26718 13.7543ZM2.70718 14.1953C2.57741 14.3379 2.50758 14.5251 2.51218 14.7178C2.51678 14.9106 2.59546 15.0942 2.73188 15.2305C2.86831 15.3668 3.05199 15.4453 3.24478 15.4498C3.43757 15.4542 3.62465 15.3842 3.76718 15.2543L2.70718 14.1953ZM7.52218 15.0153L6.10818 17.1863L7.36518 18.0043L8.77918 15.8333L7.52218 15.0153ZM18.2082 13.7563L19.7082 15.2563L20.7672 14.1953L19.2672 12.6953L18.2082 13.7563ZM10.9872 16.0953V18.5953H12.4872V16.0953H10.9872ZM14.6962 15.8333L16.1082 18.0043L17.3652 17.1863L15.9532 15.0153L14.6962 15.8333ZM4.20718 12.6953L2.70718 14.1953L3.76718 15.2543L5.26718 13.7543L4.20718 12.6953Z" fill="#1C274C"/>
</svg>
