<svg width="55" height="75" viewBox="0 0 55 75" fill="none" xmlns="http://www.w3.org/2000/svg">
<path d="M53.824 23.0072V73.1072H1.32404V1.7312H33.924L53.824 23.0072Z" fill="white"/>
<path d="M54.856 74.1372H0.294006V0.701172H34.3699L54.857 22.5952L54.856 74.1372ZM2.35596 72.0782H52.794V23.4182L33.4739 2.76016H2.349L2.35596 72.0782Z" fill="#F5B3A5"/>
<path d="M53.827 23.0072V23.1792H33.7521V1.7312H33.9241L53.827 23.0072Z" fill="white"/>
<path d="M54.8571 24.2072H32.723V0.701172H34.37L54.8571 22.5952V24.2072ZM34.782 22.1482H51.631L34.782 4.16617V22.1482Z" fill="#F5B3A5"/>
<path d="M29.977 17.1731H10.76V18.8891H29.977V17.1731Z" fill="#2E2E76"/>
<path d="M42.331 26.7812H10.932V28.4972H42.331V26.7812Z" fill="#2E2E76"/>
<path d="M42.331 36.3901H10.932V38.1061H42.331V36.3901Z" fill="#2E2E76"/>
<path d="M42.331 45.9983H10.932V47.7143H42.331V45.9983Z" fill="#2E2E76"/>
<path d="M42.331 55.6072H10.932V57.3232H42.331V55.6072Z" fill="#2E2E76"/>
</svg>
