<svg width="27" height="27" viewBox="0 0 27 27" fill="none" xmlns="http://www.w3.org/2000/svg">
<path d="M13.404 0.9599C10.8924 0.9599 8.43724 1.70468 6.34891 3.10005C4.26059 4.49542 2.63294 6.47872 1.67179 8.79914C0.710641 11.1196 0.459161 13.6729 0.949151 16.1362C1.43914 18.5996 2.64859 20.8623 4.42457 22.6383C6.20054 24.4143 8.46327 25.6237 10.9266 26.1137C13.39 26.6037 15.9433 26.3522 18.2637 25.3911C20.5841 24.4299 22.5674 22.8023 23.9628 20.7139C25.3582 18.6256 26.1029 16.1704 26.1029 13.6588C26.0993 10.292 24.7602 7.06406 22.3795 4.68334C19.9988 2.30263 16.7709 0.963541 13.404 0.9599ZM13.3077 17.2769C13.1121 17.4728 12.8796 17.628 12.6237 17.7335C12.3678 17.839 12.0935 17.8928 11.8167 17.8918C11.5385 17.8921 11.2629 17.8376 11.0058 17.7314C10.7487 17.6252 10.515 17.4693 10.3182 17.2727L7.37207 14.4186L8.85361 12.8979L11.8093 15.7626L17.9566 9.73061L19.4381 11.2386L13.3077 17.2769Z" fill="white"/>
</svg>
