<svg width="26" height="26" viewBox="0 0 26 26" fill="none" xmlns="http://www.w3.org/2000/svg">
<path d="M12.7669 0.088501C10.2553 0.088501 7.80009 0.833279 5.71177 2.22865C3.62345 3.62403 1.9958 5.60732 1.03465 7.92774C0.0734954 10.2482 -0.177985 12.8015 0.312005 15.2648C0.801995 17.7282 2.01145 19.9909 3.78742 21.7669C5.56339 23.5429 7.82612 24.7523 10.2895 25.2423C12.7528 25.7323 15.3061 25.4808 17.6266 24.5197C19.947 23.5585 21.9303 21.9309 23.3257 19.8425C24.721 17.7542 25.4658 15.299 25.4658 12.7874C25.4622 9.42056 24.1231 6.19266 21.7424 3.81195C19.3616 1.43123 16.1337 0.0921425 12.7669 0.088501ZM12.6706 16.4055C12.475 16.6014 12.2425 16.7566 11.9866 16.8621C11.7306 16.9676 11.4564 17.0214 11.1795 17.0204C10.9013 17.0207 10.6258 16.9662 10.3687 16.86C10.1116 16.7538 9.87789 16.5979 9.68107 16.4013L6.73492 13.5472L8.21646 12.0265L11.1721 14.8912L17.3195 8.85921L18.801 10.3672L12.6706 16.4055Z" fill="#1C274C"/>
</svg>
