<svg width="28" height="28" viewBox="0 0 28 28" fill="none" xmlns="http://www.w3.org/2000/svg">
<path d="M26.4317 14.0935C26.4317 19.9523 26.4317 22.8812 24.6118 24.7011C22.7918 26.5211 19.863 26.5211 14.0042 26.5211C8.14541 26.5211 5.21654 26.5211 3.3966 24.7011C1.57666 22.8812 1.57666 19.9523 1.57666 14.0935C1.57666 8.23476 1.57666 5.3059 3.3966 3.48596C5.21654 1.66602 8.14541 1.66602 14.0042 1.66602" stroke="#1C274C" stroke-width="2" stroke-linecap="round"/>
<path opacity="0.5" d="M1.57666 14.7154L3.75368 12.8106C4.29947 12.333 5.00636 12.0807 5.73119 12.1049C6.45602 12.129 7.14459 12.4277 7.65744 12.9404L12.9906 18.2715C13.4041 18.6853 13.9505 18.9399 14.5334 18.9905C15.1163 19.0411 15.6983 18.8843 16.177 18.5479L16.5477 18.2872C17.2382 17.8019 18.073 17.5653 18.9155 17.6161C19.758 17.6668 20.5583 18.002 21.1855 18.5668L25.1919 22.1721" stroke="#1C274C" stroke-width="2" stroke-linecap="round"/>
<path d="M20.2186 1.66602V12.8506M20.2186 1.66602L23.9464 5.39386M20.2186 1.66602L16.4907 5.39386" stroke="#1C274C" stroke-width="2" stroke-linecap="round" stroke-linejoin="round"/>
</svg>
