<svg width="28" height="28" viewBox="0 0 28 28" fill="none" xmlns="http://www.w3.org/2000/svg">
<path d="M26.7867 14.0935C26.7867 19.9523 26.7867 22.8812 24.9668 24.7011C23.1468 26.5211 20.218 26.5211 14.3592 26.5211C8.50039 26.5211 5.57152 26.5211 3.75158 24.7011C1.93164 22.8812 1.93164 19.9523 1.93164 14.0935C1.93164 8.23476 1.93164 5.3059 3.75158 3.48596C5.57152 1.66602 8.50039 1.66602 14.3592 1.66602" stroke="#1C274C" stroke-width="2" stroke-linecap="round"/>
<path opacity="0.5" d="M1.93164 14.7154L4.10866 12.8106C4.65445 12.333 5.36134 12.0807 6.08617 12.1049C6.811 12.129 7.49957 12.4277 8.01242 12.9404L13.3455 18.2715C13.7591 18.6853 14.3055 18.9399 14.8884 18.9905C15.4713 19.0411 16.0533 18.8843 16.532 18.5479L16.9027 18.2872C17.5932 17.8019 18.428 17.5653 19.2705 17.6161C20.113 17.6668 20.9133 18.002 21.5405 18.5668L25.5469 22.1721" stroke="#1C274C" stroke-width="2" stroke-linecap="round"/>
<path d="M20.5728 1.66602V12.8506M20.5728 1.66602L24.3007 5.39386M20.5728 1.66602L16.845 5.39386" stroke="#1C274C" stroke-width="2" stroke-linecap="round" stroke-linejoin="round"/>
</svg>
