<svg width="24" height="24" viewBox="0 0 24 24" fill="none" xmlns="http://www.w3.org/2000/svg">
<path d="M22.8719 12.2973C22.8719 17.3079 22.8719 19.8133 21.3147 21.3694C19.7575 22.9255 17.2532 22.9266 12.2426 22.9266C7.23193 22.9266 4.72661 22.9266 3.16941 21.3694C1.61222 19.8122 1.61328 17.3079 1.61328 12.2973C1.61328 7.28662 1.61328 4.78129 3.16941 3.2241C4.72554 1.66691 7.23193 1.66797 12.2426 1.66797" stroke="#1C274C" stroke-width="1.5" stroke-linecap="round"/>
<path opacity="0.5" d="M1.61328 12.8288L3.47554 11.1994C3.94171 10.7903 4.54595 10.5737 5.16585 10.5934C5.78576 10.6131 6.37499 10.8678 6.8142 11.3057L11.3742 15.8656C11.728 16.2194 12.1953 16.4371 12.6939 16.4802C13.1924 16.5234 13.6901 16.3893 14.0995 16.1016L14.4184 15.8784C15.0091 15.4634 15.7231 15.261 16.4436 15.3045C17.1642 15.3479 17.8488 15.6346 18.3853 16.1176L21.809 19.2064" stroke="#1C274C" stroke-width="1.5" stroke-linecap="round"/>
<path d="M17.557 1.66797V11.2343M17.557 1.66797L20.7457 4.85676M17.557 1.66797L14.3682 4.85676" stroke="#1C274C" stroke-width="1.5" stroke-linecap="round" stroke-linejoin="round"/>
</svg>
