<svg width="26" height="27" viewBox="0 0 26 27" fill="none" xmlns="http://www.w3.org/2000/svg">
<path fill-rule="evenodd" clip-rule="evenodd" d="M5.74899 13.3823C5.74976 12.5789 5.87906 11.7808 6.13199 11.0183L1.83999 7.7373C0.980191 9.49277 0.533203 11.4216 0.533203 13.3763C0.533203 15.331 0.980191 17.2598 1.83999 19.0153L6.12799 15.7373C5.87795 14.978 5.75036 14.1837 5.74999 13.3843" fill="#FBBC05"/>
<path fill-rule="evenodd" clip-rule="evenodd" d="M13.2838 5.85822C14.9961 5.8558 16.656 6.44902 17.9788 7.53622L21.6888 3.83622C20.2217 2.54253 18.4765 1.60396 16.5883 1.09321C14.7001 0.582455 12.7197 0.513237 10.8004 0.890915C8.88119 1.26859 7.07466 2.08303 5.52079 3.27113C3.96691 4.45923 2.70741 5.9891 1.83984 7.74222L6.13184 11.0162C6.62816 9.51221 7.58695 8.20346 8.87134 7.2768C10.1557 6.35014 11.7001 5.85295 13.2838 5.85622" fill="#EB4335"/>
<path fill-rule="evenodd" clip-rule="evenodd" d="M13.2838 20.9073C11.7001 20.9106 10.1557 20.4134 8.87134 19.4867C7.58695 18.5601 6.62816 17.2513 6.13184 15.7473L1.83984 19.0233C2.89208 21.1584 4.52259 22.9552 6.54578 24.2092C8.56897 25.4631 10.9036 26.1239 13.2838 26.1163C16.3546 26.1464 19.3229 25.0127 21.5918 22.9433L17.5168 19.7903C16.2386 20.554 14.7704 20.9402 13.2818 20.9043" fill="#34A853"/>
<path fill-rule="evenodd" clip-rule="evenodd" d="M25.4562 13.3821C25.4454 12.6021 25.3481 11.8257 25.1662 11.0671H13.2852V15.9871H20.1242C19.9776 16.7669 19.6709 17.5077 19.2233 18.1628C18.7758 18.818 18.1972 19.3731 17.5242 19.7931L21.5972 22.9421C22.8757 21.7088 23.8805 20.2202 24.5462 18.5732C25.2119 16.9262 25.5236 15.1575 25.4612 13.3821" fill="#4285F4"/>
</svg>
