<svg width="179" height="12" viewBox="0 0 179 12" fill="none" xmlns="http://www.w3.org/2000/svg">
<path d="M6.46819 11.8999C9.69691 11.8999 12.3143 9.28248 12.3143 6.05376C12.3143 2.82504 9.69691 0.207642 6.46819 0.207642C3.23947 0.207642 0.62207 2.82504 0.62207 6.05376C0.62207 9.28248 3.23947 11.8999 6.46819 11.8999Z" fill="#4B74FF"/>
<path d="M34.1044 11.8999C37.3331 11.8999 39.9505 9.28248 39.9505 6.05376C39.9505 2.82504 37.3331 0.207642 34.1044 0.207642C30.8757 0.207642 28.2583 2.82504 28.2583 6.05376C28.2583 9.28248 30.8757 11.8999 34.1044 11.8999Z" fill="#4B74FF"/>
<path d="M61.7407 11.8999C64.9694 11.8999 67.5868 9.28248 67.5868 6.05376C67.5868 2.82504 64.9694 0.207642 61.7407 0.207642C58.5119 0.207642 55.8945 2.82504 55.8945 6.05376C55.8945 9.28248 58.5119 11.8999 61.7407 11.8999Z" fill="#4B74FF"/>
<path d="M89.3769 11.8999C92.6056 11.8999 95.223 9.28248 95.223 6.05376C95.223 2.82504 92.6056 0.207642 89.3769 0.207642C86.1482 0.207642 83.5308 2.82504 83.5308 6.05376C83.5308 9.28248 86.1482 11.8999 89.3769 11.8999Z" fill="#4B74FF"/>
<path d="M117.013 11.8999C120.242 11.8999 122.859 9.28248 122.859 6.05376C122.859 2.82504 120.242 0.207642 117.013 0.207642C113.784 0.207642 111.167 2.82504 111.167 6.05376C111.167 9.28248 113.784 11.8999 117.013 11.8999Z" fill="#4B74FF"/>
<path d="M144.649 11.8999C147.878 11.8999 150.495 9.28248 150.495 6.05376C150.495 2.82504 147.878 0.207642 144.649 0.207642C141.421 0.207642 138.803 2.82504 138.803 6.05376C138.803 9.28248 141.421 11.8999 144.649 11.8999Z" fill="#E1F0F0"/>
<path d="M172.286 11.8999C175.514 11.8999 178.132 9.28248 178.132 6.05376C178.132 2.82504 175.514 0.207642 172.286 0.207642C169.057 0.207642 166.439 2.82504 166.439 6.05376C166.439 9.28248 169.057 11.8999 172.286 11.8999Z" fill="#E1F0F0"/>
</svg>
