<svg width="50" height="53" viewBox="0 0 50 53" fill="none" xmlns="http://www.w3.org/2000/svg">
<path d="M12.5332 13.0209C14.8909 13.0209 16.8022 11.1096 16.8022 8.75191C16.8022 6.39421 14.8909 4.48291 12.5332 4.48291C10.1755 4.48291 8.26416 6.39421 8.26416 8.75191C8.26416 11.1096 10.1755 13.0209 12.5332 13.0209Z" fill="#4B74FF"/>
<path d="M36.5971 52.3182C43.8503 52.3182 49.7301 46.4384 49.7301 39.1852C49.7301 31.9321 43.8503 26.0522 36.5971 26.0522C29.344 26.0522 23.4641 31.9321 23.4641 39.1852C23.4641 46.4384 29.344 52.3182 36.5971 52.3182Z" fill="#4B74FF"/>
<path d="M24.5692 10.028C28.3215 10.0325 31.9271 11.4864 34.633 14.0859C37.339 16.6855 38.9362 20.2299 39.0912 23.979C42.8494 24.5946 46.2459 26.5816 48.6242 29.556C49.3643 25.9827 49.2993 22.2894 48.4339 18.7443C47.5684 15.1993 45.9242 11.8915 43.6208 9.06126C41.3173 6.23101 38.4123 3.94935 35.1169 2.38199C31.8215 0.814631 28.2183 0.000925615 24.5692 0C23.2394 1.12093e-07 21.964 0.52826 21.0237 1.46857C20.0834 2.40887 19.5552 3.68421 19.5552 5.01401C19.5552 6.3438 20.0834 7.61913 21.0237 8.55943C21.964 9.49974 23.2394 10.028 24.5692 10.028Z" fill="#1C274C"/>
<path d="M21.1871 39.1852C21.1871 39.0242 21.1941 38.8642 21.1991 38.7042C18.6968 38.1087 16.3974 36.8597 14.5358 35.0848C12.6742 33.3098 11.3171 31.0725 10.6031 28.6014C9.88913 26.1303 9.84388 23.514 10.472 21.0197C11.1001 18.5254 12.379 16.2425 14.1781 14.4042C13.2113 14.7846 12.158 14.8898 11.1351 14.7081C10.1121 14.5264 9.15948 14.065 8.38277 13.375C7.60606 12.6849 7.03563 11.7933 6.73474 10.7988C6.43384 9.80442 6.41424 8.7461 6.6781 7.74121C3.39103 11.2325 1.19794 15.6097 0.369398 20.3327C-0.459146 25.0558 0.113105 29.9181 2.01555 34.3198C3.918 38.7214 7.06741 42.4699 11.0752 45.1026C15.083 47.7353 19.7739 49.1372 24.5691 49.1352C24.6551 49.1352 24.7391 49.1292 24.8251 49.1282C22.4711 46.3505 21.1817 42.8262 21.1871 39.1852Z" fill="#1C274C"/>
</svg>
