<svg width="73" height="74" viewBox="0 0 73 74" fill="none" xmlns="http://www.w3.org/2000/svg">
<g filter="url(#filter0_d_2_1383)">
<path d="M36.4267 55.3828C47.9822 55.3828 57.3497 45.8511 57.3497 34.0932C57.3497 22.3354 47.9822 12.8037 36.4267 12.8037C24.8712 12.8037 15.5037 22.3354 15.5037 34.0932C15.5037 45.8511 24.8712 55.3828 36.4267 55.3828Z" fill="#1C274C"/>
</g>
<path opacity="0.5" d="M35.9063 44.8411C41.6895 44.8411 46.3777 40.1529 46.3777 34.3697C46.3777 28.5864 41.6895 23.8982 35.9063 23.8982C30.123 23.8982 25.4348 28.5864 25.4348 34.3697C25.4348 40.1529 30.123 44.8411 35.9063 44.8411Z" stroke="white" stroke-width="2"/>
<path d="M32.1897 34.3697C32.1897 32.3948 32.1897 31.4084 32.8033 30.7948C33.417 30.1812 34.4034 30.1812 36.3783 30.1812C38.3532 30.1812 39.3396 30.1812 39.9532 30.7948C40.5669 31.4084 40.5669 32.3948 40.5669 34.3697C40.5669 36.3447 40.5669 37.3311 39.9532 37.9447C39.3396 38.5583 38.3532 38.5583 36.3783 38.5583C34.4034 38.5583 33.417 38.5583 32.8033 37.9447C32.1897 37.3311 32.1897 36.3447 32.1897 34.3697Z" stroke="white" stroke-width="2"/>
<defs>
<filter id="filter0_d_2_1383" x="0.503662" y="0.803711" width="71.8459" height="72.5791" filterUnits="userSpaceOnUse" color-interpolation-filters="sRGB">
<feFlood flood-opacity="0" result="BackgroundImageFix"/>
<feColorMatrix in="SourceAlpha" type="matrix" values="0 0 0 0 0 0 0 0 0 0 0 0 0 0 0 0 0 0 127 0" result="hardAlpha"/>
<feOffset dy="3"/>
<feGaussianBlur stdDeviation="7.5"/>
<feColorMatrix type="matrix" values="0 0 0 0 0 0 0 0 0 0 0 0 0 0 0 0 0 0 0.102 0"/>
<feBlend mode="normal" in2="BackgroundImageFix" result="effect1_dropShadow_2_1383"/>
<feBlend mode="normal" in="SourceGraphic" in2="effect1_dropShadow_2_1383" result="shape"/>
</filter>
</defs>
</svg>
