<svg width="124" height="18" viewBox="0 0 124 18" fill="none" xmlns="http://www.w3.org/2000/svg">
<path d="M14.735 17.8653L9.102 13.7243L3.463 17.8653L5.626 11.1783L0 7.06328H6.952L9.102 0.363281L11.252 7.06328H18.203L12.573 11.1773L14.735 17.8653Z" fill="#4B74FF"/>
<path d="M41.1432 17.8653L35.5102 13.7243L29.8712 17.8653L32.0342 11.1783L26.4082 7.06328H33.3602L35.5102 0.363281L37.6602 7.06328H44.6112L38.9812 11.1773L41.1432 17.8653Z" fill="#4B74FF"/>
<path d="M67.5499 17.8653L61.9169 13.7243L56.2779 17.8653L58.4409 11.1783L52.8149 7.06328H59.7669L61.9169 0.363281L64.0669 7.06328H71.0179L65.3879 11.1773L67.5499 17.8653Z" fill="#4B74FF"/>
<path d="M93.9581 17.8653L88.3251 13.7243L82.6861 17.8653L84.8491 11.1783L79.2231 7.06328H86.1751L88.3251 0.363281L90.4751 7.06328H97.4261L91.7961 11.1773L93.9581 17.8653Z" fill="#4B74FF"/>
<path d="M120.365 17.8653L114.732 13.7243L109.093 17.8653L111.256 11.1783L105.63 7.06328H112.582L114.732 0.363281L116.882 7.06328H123.833L118.203 11.1773L120.365 17.8653Z" fill="#4B74FF"/>
</svg>
