<svg width="42" height="43" viewBox="0 0 42 43" fill="none" xmlns="http://www.w3.org/2000/svg">
<path d="M21.154 42.3511C32.5256 42.3511 41.744 32.9709 41.744 21.3998C41.744 9.8287 32.5256 0.448486 21.154 0.448486C9.78244 0.448486 0.563965 9.8287 0.563965 21.3998C0.563965 32.9709 9.78244 42.3511 21.154 42.3511Z" fill="#4B74FF"/>
<path d="M11.5846 17.7347C11.0272 17.1667 10.7165 16.4017 10.7202 15.6059C10.724 14.8101 11.0417 14.048 11.6044 13.4853C12.1671 12.9226 12.9293 12.6048 13.725 12.6011C14.5208 12.5974 15.2859 12.908 15.8538 13.4655L28.6646 26.2752C29.2309 26.8415 29.549 27.6095 29.549 28.4103C29.549 29.2112 29.2309 29.9792 28.6646 30.5455C28.0983 31.1117 27.3303 31.4299 26.5295 31.4299C25.7286 31.4299 24.9606 31.1117 24.3943 30.5455L11.5846 17.7347Z" stroke="white" stroke-width="1.5"/>
<path opacity="0.5" d="M13.8413 19.9108L18.0299 15.7222" stroke="white" stroke-width="1.5" stroke-linecap="round"/>
<path d="M24.4169 11.855C24.4539 11.7601 24.5187 11.6786 24.6027 11.6212C24.6868 11.5637 24.7863 11.533 24.8881 11.533C24.9899 11.533 25.0894 11.5637 25.1735 11.6212C25.2575 11.6786 25.3223 11.7601 25.3593 11.855L25.8096 13.0069C25.835 13.0714 25.8734 13.1301 25.9224 13.1793C25.9714 13.2285 26.0299 13.2671 26.0944 13.2927L27.2368 13.7451C27.3305 13.7833 27.4106 13.8485 27.467 13.9324C27.5234 14.0164 27.5535 14.1152 27.5535 14.2163C27.5535 14.3174 27.5234 14.4163 27.467 14.5002C27.4106 14.5841 27.3305 14.6493 27.2368 14.6875L26.0923 15.1388C26.0278 15.1645 25.9693 15.2031 25.9203 15.2523C25.8713 15.3014 25.8329 15.3601 25.8075 15.4247L25.3593 16.5713C25.3223 16.6662 25.2575 16.7477 25.1735 16.8052C25.0894 16.8626 24.9899 16.8934 24.8881 16.8934C24.7863 16.8934 24.6868 16.8626 24.6027 16.8052C24.5187 16.7477 24.4539 16.6662 24.4169 16.5713L23.9666 15.4195C23.9412 15.3549 23.9028 15.2962 23.8538 15.247C23.8048 15.1979 23.7463 15.1593 23.6818 15.1336L22.5394 14.6812C22.4457 14.643 22.3656 14.5778 22.3092 14.4939C22.2528 14.41 22.2227 14.3111 22.2227 14.21C22.2227 14.1089 22.2528 14.0101 22.3092 13.9261C22.3656 13.8422 22.4457 13.777 22.5394 13.7388L23.6839 13.2885C23.7483 13.2623 23.8066 13.2231 23.8552 13.1734C23.9039 13.1237 23.9418 13.0645 23.9666 12.9995L24.4169 11.855Z" stroke="white"/>
<path opacity="0.5" d="M28.4662 18.9988C28.5032 18.9039 28.568 18.8224 28.6521 18.765C28.7362 18.7075 28.8356 18.6768 28.9374 18.6768C29.0393 18.6768 29.1387 18.7075 29.2228 18.765C29.3069 18.8224 29.3717 18.9039 29.4087 18.9988L29.5731 19.4176C29.5992 19.4822 29.6383 19.5408 29.6881 19.5896C29.7378 19.6384 29.797 19.6765 29.8621 19.7014L30.2809 19.8669C30.3746 19.9051 30.4547 19.9703 30.5111 20.0542C30.5675 20.1381 30.5976 20.237 30.5976 20.3381C30.5976 20.4392 30.5675 20.538 30.5111 20.622C30.4547 20.7059 30.3746 20.7711 30.2809 20.8093L29.8621 20.9748C29.7976 21.0004 29.739 21.039 29.6901 21.0882C29.6411 21.1374 29.6027 21.196 29.5773 21.2606L29.4129 21.6795C29.3759 21.7744 29.3111 21.8559 29.227 21.9133C29.1429 21.9708 29.0435 22.0015 28.9416 22.0015C28.8398 22.0015 28.7403 21.9708 28.6563 21.9133C28.5722 21.8559 28.5074 21.7744 28.4704 21.6795L28.306 21.2606C28.2806 21.196 28.2422 21.1374 28.1932 21.0882C28.1442 21.039 28.0857 21.0004 28.0212 20.9748L27.6023 20.8093C27.5087 20.7711 27.4286 20.7059 27.3722 20.622C27.3158 20.538 27.2856 20.4392 27.2856 20.3381C27.2856 20.237 27.3158 20.1381 27.3722 20.0542C27.4286 19.9703 27.5087 19.9051 27.6023 19.8669L28.0212 19.7014C28.0857 19.6758 28.1442 19.6372 28.1932 19.588C28.2422 19.5388 28.2806 19.4801 28.306 19.4156L28.4662 18.9988Z" stroke="white"/>
<path opacity="0.5" d="M12.9331 25.468C12.9701 25.3732 13.0349 25.2917 13.119 25.2342C13.203 25.1767 13.3025 25.146 13.4043 25.146C13.5062 25.146 13.6056 25.1767 13.6897 25.2342C13.7738 25.2917 13.8385 25.3732 13.8755 25.468L14.0399 25.8869C14.0653 25.9515 14.1037 26.0102 14.1527 26.0594C14.2017 26.1086 14.2602 26.1472 14.3248 26.1728L14.7436 26.3372C14.8373 26.3754 14.9174 26.4406 14.9738 26.5245C15.0302 26.6084 15.0603 26.7073 15.0603 26.8084C15.0603 26.9095 15.0302 27.0083 14.9738 27.0922C14.9174 27.1762 14.8373 27.2414 14.7436 27.2796L14.3248 27.444C14.2602 27.4696 14.2017 27.5082 14.1527 27.5574C14.1037 27.6065 14.0653 27.6652 14.0399 27.7299L13.8755 28.1487C13.8385 28.2436 13.7738 28.3251 13.6897 28.3826C13.6056 28.44 13.5062 28.4708 13.4043 28.4708C13.3025 28.4708 13.203 28.44 13.119 28.3826C13.0349 28.3251 12.9701 28.2436 12.9331 28.1487L12.7687 27.7299C12.7422 27.666 12.7028 27.6083 12.6531 27.5602C12.6034 27.5121 12.5444 27.4747 12.4797 27.4503L12.0608 27.2859C11.9672 27.2477 11.8871 27.1825 11.8307 27.0985C11.7743 27.0146 11.7441 26.9158 11.7441 26.8147C11.7441 26.7135 11.7743 26.6147 11.8307 26.5308C11.8871 26.4469 11.9672 26.3816 12.0608 26.3434L12.4797 26.179C12.5442 26.1534 12.6028 26.1148 12.6518 26.0657C12.7008 26.0165 12.7391 25.9578 12.7645 25.8932L12.9331 25.468Z" stroke="white"/>
</svg>
