<svg width="23" height="14" viewBox="0 0 23 14" fill="none" xmlns="http://www.w3.org/2000/svg">
<path opacity="0.01" d="M22.3162 0.972656H0.326172V13.5384H22.3162V0.972656Z" fill="white"/>
<path d="M3.86431 9.859C5.02096 9.859 5.95861 8.92135 5.95861 7.7647C5.95861 6.60806 5.02096 5.67041 3.86431 5.67041C2.70767 5.67041 1.77002 6.60806 1.77002 7.7647C1.77002 8.92135 2.70767 9.859 3.86431 9.859Z" stroke="#1C274C" stroke-width="1.5"/>
<path opacity="0.5" d="M11.1944 9.859C12.351 9.859 13.2887 8.92135 13.2887 7.7647C13.2887 6.60806 12.351 5.67041 11.1944 5.67041C10.0377 5.67041 9.1001 6.60806 9.1001 7.7647C9.1001 8.92135 10.0377 9.859 11.1944 9.859Z" stroke="#1C274C" stroke-width="1.5"/>
<path d="M18.5245 9.859C19.6811 9.859 20.6188 8.92135 20.6188 7.7647C20.6188 6.60806 19.6811 5.67041 18.5245 5.67041C17.3678 5.67041 16.4302 6.60806 16.4302 7.7647C16.4302 8.92135 17.3678 9.859 18.5245 9.859Z" stroke="#1C274C" stroke-width="1.5"/>
</svg>
