<svg width="73" height="74" viewBox="0 0 73 74" fill="none" xmlns="http://www.w3.org/2000/svg">
<g filter="url(#filter0_d_2_505)">
<path d="M36.4269 55.3828C47.9824 55.3828 57.3499 45.8511 57.3499 34.0932C57.3499 22.3354 47.9824 12.8037 36.4269 12.8037C24.8714 12.8037 15.5038 22.3354 15.5038 34.0932C15.5038 45.8511 24.8714 55.3828 36.4269 55.3828Z" fill="#1C274C"/>
</g>
<path d="M36.7279 42.8274L42.2731 40.0544C47.1178 37.6324 49.5391 36.4211 49.5391 34.5033C49.5391 32.5856 47.1171 31.3749 42.2709 28.9544L36.7242 26.177C32.8147 24.2222 30.8599 23.2449 29.7285 23.547C29.1988 23.6871 28.7157 23.965 28.3282 24.3525C27.9408 24.7399 27.6629 25.2231 27.5227 25.7527C27.2228 26.8864 28.2002 28.8411 30.1528 32.7485C30.3842 33.1484 30.5634 33.5764 30.6859 34.022C30.7489 34.3403 30.7489 34.6678 30.6859 34.9861C30.5634 35.4317 30.3842 35.8597 30.1528 36.2596C28.198 40.1692 27.2206 42.124 27.5227 43.2554C27.6629 43.7851 27.9408 44.2682 28.3282 44.6556C28.7157 45.0431 29.1988 45.321 29.7285 45.4611C30.8629 45.7603 32.8176 44.7829 36.7279 42.8274Z" stroke="white" stroke-width="2"/>
<path opacity="0.5" d="M40.2798 35.36C40.3924 35.3608 40.504 35.3393 40.6082 35.2969C40.7125 35.2545 40.8074 35.192 40.8875 35.1129C40.9676 35.0339 41.0313 34.9398 41.0751 34.8361C41.1188 34.7324 41.1417 34.6211 41.1424 34.5085C41.1432 34.396 41.1217 34.2844 41.0793 34.1801C41.0369 34.0759 40.9744 33.981 40.8953 33.9009C40.8163 33.8208 40.7222 33.757 40.6185 33.7133C40.5148 33.6695 40.4035 33.6466 40.2909 33.6459L40.2798 35.36ZM31.3656 35.3104L40.2798 35.36L40.2909 33.6459L31.376 33.597L31.3656 35.3104Z" fill="white"/>
<defs>
<filter id="filter0_d_2_505" x="0.503845" y="0.803711" width="71.8461" height="72.5791" filterUnits="userSpaceOnUse" color-interpolation-filters="sRGB">
<feFlood flood-opacity="0" result="BackgroundImageFix"/>
<feColorMatrix in="SourceAlpha" type="matrix" values="0 0 0 0 0 0 0 0 0 0 0 0 0 0 0 0 0 0 127 0" result="hardAlpha"/>
<feOffset dy="3"/>
<feGaussianBlur stdDeviation="7.5"/>
<feColorMatrix type="matrix" values="0 0 0 0 0 0 0 0 0 0 0 0 0 0 0 0 0 0 0.102 0"/>
<feBlend mode="normal" in2="BackgroundImageFix" result="effect1_dropShadow_2_505"/>
<feBlend mode="normal" in="SourceGraphic" in2="effect1_dropShadow_2_505" result="shape"/>
</filter>
</defs>
</svg>
