<svg width="77" height="176" viewBox="0 0 77 176" fill="none" xmlns="http://www.w3.org/2000/svg">
<path d="M2.38794 175.436H0.328979V171.318H2.38794V175.436ZM2.38794 167.2H0.328979V163.082H2.38794V167.2ZM2.38794 158.964H0.328979V154.846H2.38794V158.964ZM2.38794 150.728H0.328979V146.61H2.38794V150.728ZM2.38794 142.492H0.328979V138.375H2.38794V142.492ZM2.38794 134.256H0.328979V130.138H2.38794V134.256ZM2.38794 126.02H0.328979V121.902H2.38794V126.02ZM2.38794 117.784H0.328979V113.666H2.38794V117.784ZM2.38794 109.548H0.328979V105.43H2.38794V109.548ZM2.38794 101.312H0.328979V97.194H2.38794V101.312ZM2.38794 93.076H0.328979V88.958H2.38794V93.076ZM2.38794 84.8401H0.328979V80.725H2.38794V84.8401ZM2.38794 76.604H0.328979V72.4861H2.38794V76.604ZM2.38794 68.368H0.328979V64.25H2.38794V68.368ZM2.38794 60.132H0.328979V56.014H2.38794V60.132ZM2.38794 51.8961H0.328979V47.778H2.38794V51.8961ZM2.38794 43.66H0.328979V39.545H2.38794V43.66ZM2.38794 35.424H0.328979V31.306H2.38794V35.424ZM76.1669 29.5901H74.108V25.472H76.1669V29.5901ZM2.38794 27.19H0.328979V23.0721H2.38794V27.19ZM76.1669 21.356H74.108V17.238H76.1669V21.356ZM2.38794 18.9561H0.328979V14.838H2.38794V18.9561ZM76.1669 13.122H74.108V9.00404H76.1669V13.122ZM2.38794 10.722H0.328979V6.60405H2.38794V10.722ZM76.1669 4.88805H74.108V1.45505H74.4509V0.425049H76.1669V4.88805ZM70.3329 2.48804H66.215V0.425049H70.329L70.3329 2.48804ZM62.097 2.48804H57.9789V0.425049H62.097V2.48804ZM53.861 2.48804H49.743V0.425049H53.861V2.48804ZM45.6249 2.48804H41.507V0.425049H45.629L45.6249 2.48804ZM37.389 2.48804H33.2709V0.425049H37.389V2.48804ZM29.153 2.48804H25.035V0.425049H29.153V2.48804ZM20.9169 2.48804H16.799V0.425049H20.9169V2.48804ZM12.681 2.48804H8.56293V0.425049H12.681V2.48804ZM4.44495 2.48804H0.328979V0.425049H4.44696L4.44495 2.48804Z" fill="#F5B3A5"/>
</svg>
