<svg width="23" height="19" viewBox="0 0 23 19" fill="none" xmlns="http://www.w3.org/2000/svg">
<path d="M3.79679 10.412L2.8944 11.2113C3.00197 11.3327 3.13294 11.4311 3.27945 11.5007C3.42597 11.5703 3.58503 11.6096 3.74709 11.6162C3.90916 11.6229 4.0709 11.5968 4.22262 11.5394C4.37435 11.4821 4.51294 11.3947 4.6301 11.2825L3.79679 10.412ZM7.23418 8.7826C7.35231 8.67406 7.4476 8.54303 7.51444 8.39719C7.58128 8.25136 7.61833 8.09364 7.62342 7.93329C7.62852 7.77295 7.60156 7.6132 7.54411 7.46341C7.48666 7.31362 7.39989 7.17681 7.28889 7.06099C7.17788 6.94517 7.04487 6.85268 6.89765 6.78893C6.75043 6.72519 6.59197 6.69147 6.43155 6.68976C6.27113 6.68805 6.11199 6.71839 5.96344 6.77898C5.8149 6.83958 5.67995 6.92922 5.5665 7.04265L7.23418 8.7826ZM2.48306 7.11386C2.37983 6.99024 2.25288 6.88856 2.10971 6.81482C1.96653 6.74109 1.81002 6.69679 1.64944 6.68455C1.48885 6.67232 1.32744 6.69239 1.17474 6.74358C1.02205 6.79477 0.881154 6.87604 0.760393 6.98259C0.639631 7.08915 0.541447 7.21882 0.471642 7.36396C0.401837 7.5091 0.361827 7.66675 0.353973 7.82761C0.346119 7.98847 0.370582 8.14927 0.425917 8.30052C0.481252 8.45176 0.566336 8.59039 0.676143 8.7082L2.48306 7.11386ZM15.9297 4.71492C16.149 4.94013 16.4476 5.07074 16.7619 5.0789C17.0761 5.08706 17.3812 4.97213 17.6119 4.7586C17.8426 4.54508 17.9808 4.24987 17.9969 3.93592C18.0131 3.62197 17.9059 3.31414 17.6983 3.07807L15.9297 4.71492ZM11.2934 0.281603C8.99355 0.273979 6.78489 1.1802 5.15319 2.80093C3.5215 4.42166 2.60041 6.62416 2.59253 8.92396H5.00211C5.00998 7.26321 5.6772 5.67359 6.85701 4.50475C8.03682 3.3359 9.6326 2.68355 11.2934 2.69118V0.281603ZM2.59147 8.92396V10.412H5.00211V8.92396H2.59147ZM4.6301 11.2825L7.23418 8.7826L5.5665 7.04265L2.96242 9.5415L4.6301 11.2825ZM4.69812 9.61378L2.48518 7.11386L0.678269 8.7082L2.89121 11.2071L4.69812 9.61378ZM17.7015 3.07807C16.8846 2.19447 15.8934 1.48978 14.7904 1.00847C13.6875 0.527154 12.4967 0.27966 11.2934 0.281603V2.69118C12.1643 2.68874 13.0263 2.86695 13.8248 3.21455C14.6234 3.56215 15.3412 4.07158 15.9329 4.71067L17.7015 3.07807Z" fill="white"/>
<path d="M18.6432 8.62642L19.5414 7.82606C19.4336 7.70481 19.3026 7.60655 19.156 7.53715C19.0094 7.46776 18.8503 7.42867 18.6882 7.42222C18.5261 7.41577 18.3644 7.44209 18.2128 7.49961C18.0611 7.55713 17.9227 7.64467 17.8057 7.75698L18.6432 8.62642ZM15.2079 10.2548C14.9768 10.4761 14.843 10.7801 14.836 11.1C14.8291 11.42 14.9495 11.7296 15.1707 11.9607C15.392 12.1919 15.6961 12.3256 16.016 12.3326C16.3359 12.3396 16.6455 12.2192 16.8767 11.9979L15.2079 10.2548ZM19.9665 11.9246C20.181 12.155 20.4772 12.2924 20.7917 12.3073C21.1061 12.3222 21.414 12.2135 21.6493 12.0044C21.8847 11.7953 22.0289 11.5024 22.0511 11.1883C22.0733 10.8743 21.9717 10.564 21.7681 10.3239L19.9665 11.9246ZM6.47843 14.3458C6.25769 14.1213 5.95784 13.992 5.64303 13.9857C5.32821 13.9794 5.02343 14.0966 4.79387 14.3121C4.56432 14.5276 4.42822 14.8244 4.41469 15.139C4.40116 15.4536 4.51127 15.761 4.72147 15.9954L6.47843 14.3458ZM11.1179 18.7558C13.4215 18.7671 15.6353 17.8629 17.2723 16.2422C18.9094 14.6215 19.8357 12.417 19.8475 10.1134H17.4379C17.4322 10.9376 17.2642 11.7527 16.9435 12.512C16.6228 13.2713 16.1557 13.96 15.5688 14.5387C14.982 15.1175 14.2868 15.575 13.5231 15.8851C12.7595 16.1953 11.9422 16.3519 11.1179 16.3462V18.7558ZM19.8475 10.1134V8.62536H17.4379V10.1134H19.8475ZM17.8088 7.75698L15.2079 10.2548L16.8767 11.9979L19.4776 9.50012L17.8088 7.75698ZM17.7429 9.42678L19.9623 11.9246L21.7639 10.3239L19.5414 7.82606L17.7429 9.42678ZM4.72147 15.9954C5.54156 16.8696 6.53248 17.5659 7.63279 18.0413C8.7331 18.5167 9.91934 18.7609 11.1179 18.759V16.3462C10.2488 16.3486 9.38845 16.1722 8.59033 15.8281C7.7922 15.484 7.07335 14.9795 6.47843 14.3458L4.72147 15.9954Z" fill="white"/>
</svg>
