<svg width="303" height="219" viewBox="0 0 303 219" fill="none" xmlns="http://www.w3.org/2000/svg">
<path d="M286.327 0.635254H16.1634C7.77768 0.635254 0.979736 7.43319 0.979736 15.8189V203.258C0.979736 211.644 7.77768 218.442 16.1634 218.442H286.327C294.713 218.442 301.511 211.644 301.511 203.258V15.8189C301.511 7.43319 294.713 0.635254 286.327 0.635254Z" stroke="#CCD6EB"/>
<path d="M283.709 30.479C290.938 30.479 296.799 24.6187 296.799 17.3896C296.799 10.1606 290.938 4.30029 283.709 4.30029C276.48 4.30029 270.62 10.1606 270.62 17.3896C270.62 24.6187 276.48 30.479 283.709 30.479Z" fill="white"/>
<path d="M288.358 13.8502L287.393 12.8857L283.782 16.4973L280.17 12.8857L279.206 13.8502L282.817 17.4618L279.206 21.0723L280.17 22.0368L283.782 18.4251L287.393 22.0368L288.358 21.0723L284.746 17.4618L288.358 13.8502Z" fill="black"/>
</svg>
