<svg width="124" height="18" viewBox="0 0 124 18" fill="none" xmlns="http://www.w3.org/2000/svg">
<path d="M14.903 17.5049L9.26997 13.3639L3.63097 17.5049L5.79397 10.8179L0.167969 6.70293H7.11997L9.26997 0.00292969L11.42 6.70293H18.371L12.741 10.8169L14.903 17.5049Z" fill="#4B74FF"/>
<path d="M41.3112 17.5049L35.6782 13.3639L30.0392 17.5049L32.2022 10.8179L26.5762 6.70293H33.5282L35.6782 0.00292969L37.8282 6.70293H44.7792L39.1492 10.8169L41.3112 17.5049Z" fill="#4B74FF"/>
<path d="M67.7179 17.5049L62.0849 13.3639L56.4459 17.5049L58.6089 10.8179L52.9829 6.70293H59.9349L62.0849 0.00292969L64.2349 6.70293H71.1859L65.5559 10.8169L67.7179 17.5049Z" fill="#4B74FF"/>
<path d="M94.1261 17.5049L88.4931 13.3639L82.8541 17.5049L85.0171 10.8179L79.3911 6.70293H86.3431L88.4931 0.00292969L90.6431 6.70293H97.5941L91.9641 10.8169L94.1261 17.5049Z" fill="#4B74FF"/>
<path d="M120.533 17.5049L114.9 13.3639L109.261 17.5049L111.424 10.8179L105.798 6.70293H112.75L114.9 0.00292969L117.05 6.70293H124.001L118.371 10.8169L120.533 17.5049Z" fill="#4B74FF"/>
</svg>
