<svg width="72" height="74" viewBox="0 0 72 74" fill="none" xmlns="http://www.w3.org/2000/svg">
<g filter="url(#filter0_d_2_893)">
<path d="M36.072 55.3828C47.6274 55.3828 56.995 45.8511 56.995 34.0932C56.995 22.3354 47.6274 12.8037 36.072 12.8037C24.5165 12.8037 15.1489 22.3354 15.1489 34.0932C15.1489 45.8511 24.5165 55.3828 36.072 55.3828Z" fill="#1C274C"/>
</g>
<path d="M43.6511 38.6955L45.6114 32.8137C47.3245 27.6753 48.1801 25.1067 46.824 23.7506C45.4679 22.3946 42.8993 23.2511 37.7609 24.9664L31.8749 26.9245C27.7282 28.3068 25.6549 28.9979 25.0685 30.0115C24.793 30.4852 24.6479 31.0233 24.6479 31.5712C24.6479 32.1192 24.793 32.6573 25.0685 33.131C25.658 34.1446 27.7314 34.8357 31.8749 36.218C32.3214 36.3371 32.7508 36.5131 33.1525 36.7415C33.4221 36.922 33.6537 37.1536 33.8341 37.4232C34.0626 37.8249 34.2386 38.2542 34.3577 38.7007C35.74 42.8474 36.4311 44.9208 37.4447 45.5072C37.9184 45.7826 38.4565 45.9277 39.0044 45.9277C39.5524 45.9277 40.0905 45.7826 40.5642 45.5072C41.5778 44.9166 42.2689 42.8432 43.6511 38.6955Z" stroke="white" stroke-width="2"/>
<path opacity="0.5" d="M40.8824 30.9036C40.9625 30.8245 41.0263 30.7304 41.07 30.6267C41.1138 30.523 41.1367 30.4117 41.1374 30.2992C41.1381 30.1866 41.1167 30.075 41.0743 29.9708C41.0319 29.8665 40.9694 29.7716 40.8903 29.6915C40.8112 29.6114 40.7171 29.5477 40.6134 29.5039C40.5097 29.4602 40.3984 29.4373 40.2859 29.4365C40.1733 29.4358 40.0617 29.4573 39.9575 29.4997C39.8532 29.5421 39.7583 29.6046 39.6782 29.6836L40.8824 30.9036ZM34.5441 37.1718L40.8824 30.9036L39.6782 29.6836L33.3398 35.9529L34.5441 37.1718Z" fill="white"/>
<defs>
<filter id="filter0_d_2_893" x="0.148926" y="0.803711" width="71.8462" height="72.5791" filterUnits="userSpaceOnUse" color-interpolation-filters="sRGB">
<feFlood flood-opacity="0" result="BackgroundImageFix"/>
<feColorMatrix in="SourceAlpha" type="matrix" values="0 0 0 0 0 0 0 0 0 0 0 0 0 0 0 0 0 0 127 0" result="hardAlpha"/>
<feOffset dy="3"/>
<feGaussianBlur stdDeviation="7.5"/>
<feColorMatrix type="matrix" values="0 0 0 0 0 0 0 0 0 0 0 0 0 0 0 0 0 0 0.102 0"/>
<feBlend mode="normal" in2="BackgroundImageFix" result="effect1_dropShadow_2_893"/>
<feBlend mode="normal" in="SourceGraphic" in2="effect1_dropShadow_2_893" result="shape"/>
</filter>
</defs>
</svg>
