<svg width="73" height="74" viewBox="0 0 73 74" fill="none" xmlns="http://www.w3.org/2000/svg">
<g filter="url(#filter0_d_2_1209)">
<path d="M36.4267 55.3828C47.9822 55.3828 57.3497 45.8511 57.3497 34.0932C57.3497 22.3354 47.9822 12.8037 36.4267 12.8037C24.8712 12.8037 15.5037 22.3354 15.5037 34.0932C15.5037 45.8511 24.8712 55.3828 36.4267 55.3828Z" fill="#1C274C"/>
</g>
<path d="M44.0059 38.6955L45.9661 32.8137C47.6793 27.6753 48.5348 25.1067 47.1787 23.7506C45.8227 22.3946 43.254 23.2511 38.1157 24.9664L32.2297 26.9245C28.083 28.3068 26.0096 28.9979 25.4232 30.0115C25.1478 30.4852 25.0027 31.0233 25.0027 31.5712C25.0027 32.1192 25.1478 32.6573 25.4232 33.131C26.0128 34.1446 28.0861 34.8357 32.2297 36.218C32.6762 36.3371 33.1055 36.5131 33.5072 36.7415C33.7768 36.922 34.0084 37.1536 34.1889 37.4232C34.4174 37.8249 34.5933 38.2542 34.7125 38.7007C36.0947 42.8474 36.7858 44.9208 37.7994 45.5072C38.2731 45.7826 38.8112 45.9277 39.3592 45.9277C39.9071 45.9277 40.4452 45.7826 40.9189 45.5072C41.9325 44.9166 42.6236 42.8432 44.0059 38.6955Z" stroke="white" stroke-width="2"/>
<path opacity="0.5" d="M41.2372 30.9036C41.3173 30.8245 41.381 30.7304 41.4248 30.6267C41.4685 30.523 41.4914 30.4117 41.4921 30.2992C41.4929 30.1866 41.4714 30.075 41.429 29.9708C41.3866 29.8665 41.3241 29.7716 41.245 29.6915C41.166 29.6114 41.0719 29.5477 40.9682 29.5039C40.8645 29.4602 40.7532 29.4373 40.6406 29.4365C40.5281 29.4358 40.4165 29.4573 40.3122 29.4997C40.2079 29.5421 40.1131 29.6046 40.033 29.6836L41.2372 30.9036ZM34.8988 37.1718L41.2372 30.9036L40.033 29.6836L33.6946 35.9529L34.8988 37.1718Z" fill="white"/>
<defs>
<filter id="filter0_d_2_1209" x="0.503662" y="0.803711" width="71.8459" height="72.5791" filterUnits="userSpaceOnUse" color-interpolation-filters="sRGB">
<feFlood flood-opacity="0" result="BackgroundImageFix"/>
<feColorMatrix in="SourceAlpha" type="matrix" values="0 0 0 0 0 0 0 0 0 0 0 0 0 0 0 0 0 0 127 0" result="hardAlpha"/>
<feOffset dy="3"/>
<feGaussianBlur stdDeviation="7.5"/>
<feColorMatrix type="matrix" values="0 0 0 0 0 0 0 0 0 0 0 0 0 0 0 0 0 0 0.102 0"/>
<feBlend mode="normal" in2="BackgroundImageFix" result="effect1_dropShadow_2_1209"/>
<feBlend mode="normal" in="SourceGraphic" in2="effect1_dropShadow_2_1209" result="shape"/>
</filter>
</defs>
</svg>
