<svg width="23" height="14" viewBox="0 0 23 14" fill="none" xmlns="http://www.w3.org/2000/svg">
<path opacity="0.01" d="M22.316 0.972656H0.325928V13.5384H22.316V0.972656Z" fill="white"/>
<path d="M3.86407 9.859C5.02071 9.859 5.95836 8.92135 5.95836 7.7647C5.95836 6.60806 5.02071 5.67041 3.86407 5.67041C2.70742 5.67041 1.76978 6.60806 1.76978 7.7647C1.76978 8.92135 2.70742 9.859 3.86407 9.859Z" stroke="#1C274C" stroke-width="1.5"/>
<path opacity="0.5" d="M11.1941 9.859C12.3508 9.859 13.2884 8.92135 13.2884 7.7647C13.2884 6.60806 12.3508 5.67041 11.1941 5.67041C10.0375 5.67041 9.09985 6.60806 9.09985 7.7647C9.09985 8.92135 10.0375 9.859 11.1941 9.859Z" stroke="#1C274C" stroke-width="1.5"/>
<path d="M18.5242 9.859C19.6809 9.859 20.6185 8.92135 20.6185 7.7647C20.6185 6.60806 19.6809 5.67041 18.5242 5.67041C17.3676 5.67041 16.4299 6.60806 16.4299 7.7647C16.4299 8.92135 17.3676 9.859 18.5242 9.859Z" stroke="#1C274C" stroke-width="1.5"/>
</svg>
