<svg width="87" height="37" viewBox="0 0 87 37" fill="none" xmlns="http://www.w3.org/2000/svg">
<path d="M2.42996 36.225H0.370972V32.1069H2.42996V36.225ZM2.42996 27.989H0.370972V23.871H2.42996V27.989ZM2.42996 19.7529H0.370972V15.6349H2.42996V19.7529ZM2.42996 11.517H0.370972V7.39893H2.42996V11.517ZM2.42996 3.28094H0.370972V0.77594H4.043V2.83496H2.42996V3.28094ZM86.401 2.80096H82.283V0.741943H86.401V2.80096ZM78.1649 2.80096H74.047V0.741943H78.1649V2.80096ZM69.929 2.80096H65.811V0.741943H69.929V2.80096ZM61.693 2.80096H57.571V0.741943H61.689L61.693 2.80096ZM53.457 2.80096H49.339V0.741943H53.457V2.80096ZM45.221 2.80096H41.103V0.741943H45.221V2.80096ZM36.985 2.80096H32.871V0.741943H36.989L36.985 2.80096ZM28.749 2.80096H24.631V0.741943H28.749V2.80096ZM20.513 2.80096H16.395V0.741943H20.513V2.80096ZM12.277 2.80096H8.16098V0.741943H12.279L12.277 2.80096Z" fill="#F5B3A5"/>
</svg>
