<svg width="26" height="26" viewBox="0 0 26 26" fill="none" xmlns="http://www.w3.org/2000/svg">
<path fill-rule="evenodd" clip-rule="evenodd" d="M5.90304 13.1472C5.90382 12.3438 6.03312 11.5457 6.28604 10.7832L1.99404 7.5022C1.13424 9.25766 0.687256 11.1865 0.687256 13.1412C0.687256 15.0959 1.13424 17.0247 1.99404 18.7802L6.28204 15.5022C6.032 14.7429 5.90441 13.9486 5.90404 13.1492" fill="#FBBC05"/>
<path fill-rule="evenodd" clip-rule="evenodd" d="M13.438 5.62312C15.1503 5.62069 16.8102 6.21391 18.133 7.30112L21.843 3.60111C20.3759 2.30743 18.6306 1.36885 16.7424 0.8581C14.8543 0.347347 12.8738 0.278129 10.9546 0.655808C9.03537 1.03349 7.22884 1.84792 5.67496 3.03602C4.12109 4.22412 2.86158 5.75399 1.99402 7.50711L6.28602 10.7811C6.78233 9.27711 7.74113 7.96835 9.02552 7.04169C10.3099 6.11503 11.8542 5.61784 13.438 5.62111" fill="#EB4335"/>
<path fill-rule="evenodd" clip-rule="evenodd" d="M13.438 20.6722C11.8542 20.6755 10.3099 20.1783 9.02552 19.2516C7.74113 18.325 6.78233 17.0162 6.28602 15.5122L1.99402 18.7882C3.04625 20.9233 4.67676 22.7201 6.69995 23.974C8.72314 25.228 11.0577 25.8888 13.438 25.8812C16.5088 25.9113 19.4771 24.7776 21.746 22.7082L17.671 19.5552C16.3928 20.3189 14.9245 20.7051 13.436 20.6692" fill="#34A853"/>
<path fill-rule="evenodd" clip-rule="evenodd" d="M25.61 13.147C25.5993 12.367 25.502 11.5906 25.32 10.832H13.439V15.752H20.278C20.1315 16.5318 19.8247 17.2726 19.3772 17.9277C18.9297 18.5828 18.3511 19.138 17.678 19.558L21.751 22.707C23.0296 21.4737 24.0344 19.9851 24.7001 18.3381C25.3658 16.6911 25.6775 14.9224 25.615 13.147" fill="#4285F4"/>
</svg>
