<svg width="52" height="52" viewBox="0 0 52 52" fill="none" xmlns="http://www.w3.org/2000/svg">
<path d="M32.2836 17.2245L20.3176 10.3157L6.5 33.6993L18.466 40.6081L32.2836 17.2245Z" fill="#FFC107"/>
<path d="M34.1351 40.6079C36.043 43.9125 40.3498 45.0126 43.5725 43.1366C46.8706 41.217 48.009 37.0037 46.1011 33.6992L32.2835 10.3156C30.3757 7.01105 26.0816 5.91095 22.8461 7.78696C19.5448 9.70122 18.4096 13.9198 20.3175 17.2244L34.1351 40.6079Z" fill="#1E88E5"/>
<path d="M12.483 44.0624C16.2986 44.0624 19.3918 40.9693 19.3918 37.1537C19.3918 33.338 16.2986 30.2449 12.483 30.2449C8.66739 30.2449 5.57422 33.338 5.57422 37.1537C5.57422 40.9693 8.66739 44.0624 12.483 44.0624Z" fill="#43A047"/>
</svg>
