<svg width="52" height="52" viewBox="0 0 52 52" fill="none" xmlns="http://www.w3.org/2000/svg">
<path d="M45.1632 39.8108C45.1632 42.7465 42.7845 45.1253 39.8488 45.1253H12.2136C9.27898 45.1253 6.89917 42.7465 6.89917 39.8108V12.1757C6.89917 9.23995 9.27898 6.86121 12.2136 6.86121H39.8488C42.7845 6.86121 45.1632 9.23995 45.1632 12.1757V39.8108Z" fill="#0288D1"/>
<path d="M13.2764 20.6788H18.5908V38.7479H13.2764V20.6788ZM15.9176 18.553H15.8879C14.3021 18.553 13.2764 17.371 13.2764 15.8947C13.2764 14.3864 14.3339 13.2385 15.9485 13.2385C17.5651 13.2385 18.5611 14.3864 18.5908 15.8947C18.5908 17.37 17.5651 18.553 15.9176 18.553ZM38.7857 38.7479H33.4713V29.0767C33.4713 26.7404 32.1692 25.1461 30.0785 25.1461C28.4831 25.1461 27.6201 26.2217 27.2013 27.2612C27.0482 27.6333 27.0939 28.6621 27.0939 29.1819V38.7479H21.7795V20.6788H27.0939V23.4593C27.8603 22.2731 29.0603 20.6788 32.1299 20.6788C35.9329 20.6788 38.7847 23.0703 38.7847 28.4102L38.7857 38.7479Z" fill="white"/>
</svg>
