<svg width="52" height="52" viewBox="0 0 52 52" fill="none" xmlns="http://www.w3.org/2000/svg">
<path d="M50.6925 31.6903L48.3616 33.4579L46.0371 31.8391C46.0371 31.669 46.0371 31.4883 46.0264 31.3077C46.0264 31.1376 46.0264 30.9569 46.0158 30.7762C45.867 26.5884 44.8041 22.103 42.6783 18.8187C41.0415 16.2996 38.9476 15.0986 36.6092 15.0986C34.1539 15.0986 32.1557 16.5654 29.9449 19.754C29.8811 19.8497 29.8067 19.9454 29.7429 20.0517C29.7004 20.1048 29.6685 20.1579 29.626 20.2217C29.5197 20.3811 29.4135 20.5406 29.3072 20.7106C28.3506 22.1987 27.3514 23.9312 26.2673 25.8444C26.1716 26.0251 26.0653 26.2058 25.9697 26.3865C25.9378 26.429 25.9059 26.4821 25.8847 26.5247L25.6614 26.9179L24.3435 29.2457C21.2505 34.7195 20.4639 35.9737 18.9227 38.0251C16.2124 41.6283 13.8953 42.9995 10.8448 42.9995C7.23093 42.9995 4.93509 41.437 3.52144 39.0774C2.36289 37.1642 1.79956 34.6451 1.79956 31.7753L7.08213 31.956C7.08213 33.8267 7.48602 35.251 8.0281 36.1226C8.72961 37.2492 9.76061 37.685 10.8341 37.685C12.2053 37.685 13.4807 37.398 15.9041 34.0393C17.8492 31.3502 20.145 27.5875 21.6862 25.2173L23.1424 22.9959L23.4506 22.5069L23.7695 22.0286L24.3009 21.2102C25.1087 19.9772 25.9803 18.6699 26.9157 17.4157C27.0219 17.2669 27.1282 17.1181 27.2452 16.9693C27.3514 16.8205 27.4684 16.6717 27.5746 16.5335C28.5313 15.3112 29.541 14.1739 30.6251 13.2385C32.5915 11.5273 34.7066 10.5813 36.8431 10.5813C40.425 10.5813 43.8369 12.6539 46.4516 16.5441C49.1194 20.5193 50.5118 25.4724 50.6713 30.6274C50.6819 30.7975 50.6819 30.9782 50.6819 31.1589C50.6925 31.3395 50.6925 31.5096 50.6925 31.6903Z" fill="#0081FB"/>
<path d="M5.96387 16.9119C8.38407 13.1864 11.8789 10.5813 15.8859 10.5813C18.2073 10.5813 20.5138 11.2669 22.9233 13.2311C25.5583 15.3781 28.3675 18.9133 31.8718 24.7401L33.1282 26.8308C36.1616 31.8752 37.8867 34.4698 38.8975 35.6942C40.1964 37.2662 41.0074 37.685 42.1893 37.685C45.1866 37.685 46.0338 34.9853 46.0338 31.838L50.6924 31.6924C50.6924 34.9821 50.043 37.3991 48.9376 39.308C47.8704 41.1543 45.7893 42.9995 42.2881 42.9995C40.1113 42.9995 38.1833 42.5275 36.0511 40.5197C34.4121 38.9785 32.4957 36.2405 31.0215 33.7799L26.636 26.4683C24.4358 22.7992 22.4174 20.0623 21.2493 18.824C19.993 17.4911 18.4411 15.8968 15.8636 15.8968C13.7772 15.8968 11.9426 17.3445 10.4599 19.5797L5.96387 16.9119Z" fill="url(#paint0_linear_13_4091)"/>
<path d="M15.8829 15.8958C13.8007 15.8958 11.9682 17.3434 10.4887 19.5787C8.39586 22.7376 7.11401 27.4419 7.11401 31.9603C7.11401 33.8235 7.11082 35.2255 7.64546 36.0907L3.56396 39.0806C2.40966 37.161 1.79956 34.7089 1.79956 31.8391C1.79956 26.6203 3.23978 21.1135 5.96396 16.9119C8.38098 13.1864 11.9045 10.5813 15.9041 10.5813L15.8829 15.8958Z" fill="url(#paint1_linear_13_4091)"/>
<path opacity="0.05" d="M23.7694 22.0287L23.4506 22.507L23.1423 22.9959C23.897 24.0907 24.7579 25.4087 25.6614 26.918L25.8846 26.5247C25.9058 26.4822 25.9377 26.4291 25.9696 26.3866C26.0653 26.2059 26.1716 26.0252 26.2672 25.8445C25.385 24.399 24.5347 23.1129 23.7694 22.0287ZM27.2451 16.9694C27.1282 17.1182 27.0219 17.267 26.9156 17.4158C27.6915 18.383 28.478 19.4778 29.3071 20.7107C29.4134 20.5407 29.5197 20.3812 29.626 20.2218C29.6685 20.158 29.7004 20.1049 29.7429 20.0517C29.8067 19.9454 29.8811 19.8498 29.9448 19.7541C29.137 18.5637 28.3505 17.4902 27.5746 16.5336C27.4683 16.6717 27.3514 16.8205 27.2451 16.9694Z" fill="black"/>
<path opacity="0.07" d="M23.7693 22.0287L23.4504 22.507C24.2051 23.5912 25.0554 24.8879 25.9695 26.3866C26.0651 26.2059 26.1714 26.0252 26.2671 25.8445C25.3849 24.399 24.5346 23.1129 23.7693 22.0287ZM26.9155 17.4158C27.6914 18.383 28.4779 19.4778 29.307 20.7107C29.4133 20.5407 29.5195 20.3812 29.6258 20.2218C28.8074 19.0101 28.0102 17.926 27.245 16.9694C27.128 17.1182 27.0217 17.267 26.9155 17.4158Z" fill="black"/>
<defs>
<linearGradient id="paint0_linear_13_4091" x1="45.7011" y1="26.7904" x2="15.1207" y2="26.7904" gradientUnits="userSpaceOnUse">
<stop stop-color="#0081FB"/>
<stop offset="0.995" stop-color="#0064E1"/>
</linearGradient>
<linearGradient id="paint1_linear_13_4091" x1="8.85184" y1="35.421" x2="8.85184" y2="14.3142" gradientUnits="userSpaceOnUse">
<stop stop-color="#0081FB"/>
<stop offset="0.995" stop-color="#0064E1"/>
</linearGradient>
</defs>
</svg>
