<svg width="54" height="55" viewBox="0 0 54 55" fill="none" xmlns="http://www.w3.org/2000/svg">
<path d="M10.051 5.22534C7.12762 5.22534 4.73657 7.61639 4.73657 10.5398V44.5523C4.73657 47.4757 7.12762 49.8667 10.051 49.8667H44.0635C46.9869 49.8667 49.378 47.4757 49.378 44.5523V10.5398C49.378 7.61639 46.9869 5.22534 44.0635 5.22534H10.051ZM10.051 7.35112H44.0635C45.8402 7.35112 47.2522 8.76309 47.2522 10.5398V44.5523C47.2522 46.329 45.8402 47.741 44.0635 47.741H10.051C8.27432 47.741 6.86235 46.329 6.86235 44.5523V10.5398C6.86235 8.76309 8.27432 7.35112 10.051 7.35112ZM28.1658 11.6027C27.8843 11.6027 27.6143 11.7144 27.415 11.9133C27.2158 12.1122 27.1035 12.382 27.1029 12.6635C27.1029 12.6635 27.0913 17.8453 27.0801 23.0391C27.0745 25.636 27.0677 28.2356 27.0635 30.1929C27.0593 32.1501 27.0573 33.3886 27.0573 33.4916C27.0573 35.421 25.305 36.9979 23.3081 36.9979C21.3271 36.9979 19.7457 35.4145 19.7457 33.4335C19.7457 31.4524 21.3271 29.8711 23.3081 29.8711C23.3752 29.8711 23.5105 29.8932 23.742 29.9209C23.8913 29.9388 24.0427 29.9248 24.1862 29.8799C24.3297 29.835 24.462 29.7601 24.5744 29.6602C24.6869 29.5603 24.7768 29.4378 24.8384 29.3006C24.8999 29.1634 24.9317 29.0146 24.9315 28.8643V24.3989C24.9315 24.1285 24.8284 23.8683 24.6433 23.6712C24.4582 23.4741 24.2049 23.355 23.935 23.3381C23.7694 23.3277 23.561 23.3069 23.3081 23.3069C17.7284 23.3069 13.1816 27.8538 13.1816 33.4335C13.1816 39.0131 17.7284 43.56 23.3081 43.56C28.8876 43.56 33.4346 39.0131 33.4346 33.4335V23.8155C34.9807 25.0521 36.9076 25.8354 39.0355 25.8354C39.3258 25.8354 39.6018 25.8182 39.8659 25.7939C40.1299 25.7696 40.3752 25.6475 40.5538 25.4516C40.7323 25.2558 40.8313 25.0002 40.8312 24.7352V19.7716C40.8314 19.5029 40.7298 19.2441 40.5468 19.0472C40.3639 18.8504 40.1132 18.7302 39.8452 18.7108C36.5028 18.471 33.8383 15.8672 33.4907 12.5555C33.4634 12.2942 33.3404 12.0522 33.1453 11.8763C32.9501 11.7003 32.6967 11.6028 32.434 11.6027H28.1658ZM29.2266 13.7285H31.6514C32.4239 17.2346 35.1637 19.9085 38.7055 20.5791V23.6246C36.4321 23.5091 34.4353 22.375 33.2602 20.5874C33.1345 20.3961 32.9505 20.2505 32.7354 20.1722C32.5202 20.0939 32.2856 20.0872 32.0664 20.153C31.8471 20.2187 31.655 20.3535 31.5185 20.5373C31.382 20.721 31.3085 20.9439 31.3088 21.1728V33.4335C31.3088 37.8641 27.7389 41.4342 23.3081 41.4342C18.8775 41.4342 15.3073 37.8641 15.3073 33.4335C15.3073 29.1813 18.6244 25.8063 22.8057 25.5344V27.8471C19.9215 28.1154 17.62 30.482 17.62 33.4335C17.62 36.5628 20.1787 39.1237 23.3081 39.1237C26.4215 39.1237 29.183 36.6725 29.183 33.4916C29.183 33.5436 29.185 32.1543 29.1893 30.197C29.1934 28.2398 29.2003 25.6402 29.2059 23.0433C29.2159 18.3805 29.2247 14.6311 29.2266 13.7285Z" fill="black"/>
</svg>
