<svg width="53" height="55" viewBox="0 0 53 55" fill="none" xmlns="http://www.w3.org/2000/svg">
<path d="M13.8921 13.6998C16.361 13.6998 18.3624 11.6984 18.3624 9.22955C18.3624 6.76068 16.361 4.75928 13.8921 4.75928C11.4233 4.75928 9.42188 6.76068 9.42188 9.22955C9.42188 11.6984 11.4233 13.6998 13.8921 13.6998Z" fill="#4B74FF"/>
<path d="M39.0906 54.8498C46.6857 54.8498 52.8427 48.6927 52.8427 41.0976C52.8427 33.5025 46.6857 27.3455 39.0906 27.3455C31.4954 27.3455 25.3384 33.5025 25.3384 41.0976C25.3384 48.6927 31.4954 54.8498 39.0906 54.8498Z" fill="#4B74FF"/>
<path d="M26.4955 10.566C30.4248 10.5707 34.2003 12.0931 37.0338 14.8152C39.8674 17.5374 41.5399 21.2488 41.7022 25.1747C45.6376 25.8193 49.1942 27.9 51.6846 31.0146C52.4597 27.2729 52.3916 23.4054 51.4853 19.6933C50.5791 15.9811 48.8574 12.5173 46.4453 9.55366C44.0332 6.58996 40.9913 4.20073 37.5405 2.55948C34.0897 0.918224 30.3167 0.0661548 26.4955 0.0651855C25.103 0.0651857 23.7676 0.618351 22.7829 1.60299C21.7983 2.58763 21.2451 3.9231 21.2451 5.31559C21.2451 6.70808 21.7983 8.04353 22.7829 9.02816C23.7676 10.0128 25.103 10.566 26.4955 10.566Z" fill="#1C274C"/>
<path d="M22.9541 41.0976C22.9541 40.929 22.9614 40.7615 22.9666 40.5939C20.3464 39.9704 17.9385 38.6625 15.9892 36.8038C14.0398 34.9452 12.6187 32.6024 11.8711 30.0148C11.1234 27.4272 11.0761 24.6876 11.7338 22.0756C12.3915 19.4637 13.7307 17.0732 15.6146 15.1483C14.6022 15.5466 13.4993 15.6567 12.4281 15.4665C11.3569 15.2763 10.3594 14.7931 9.54606 14.0705C8.73273 13.3479 8.13541 12.4142 7.82032 11.3729C7.50524 10.3316 7.48472 9.22341 7.76101 8.17114C4.31897 11.827 2.02249 16.4106 1.15488 21.3563C0.287273 26.3021 0.886504 31.3936 2.87865 36.0028C4.87079 40.612 8.16868 44.5371 12.3655 47.294C16.5622 50.0508 21.4742 51.5188 26.4955 51.5167C26.5856 51.5167 26.6735 51.5104 26.7636 51.5094C24.2986 48.6007 22.9484 44.9103 22.9541 41.0976Z" fill="#1C274C"/>
</svg>
