<svg width="153" height="175" viewBox="0 0 153 175" fill="none" xmlns="http://www.w3.org/2000/svg">
<path d="M125.784 70.4002C125.784 70.4002 130.245 70.0572 132.99 78.2932C132.99 78.2932 135.735 85.8423 131.961 91.3333L125.098 92.7063L119.95 72.4553L125.784 70.4002Z" fill="#2E2E76"/>
<path d="M118.578 74.8571L133.368 68.4061C135.044 64.5945 135.954 60.4901 136.045 56.3271C136.045 56.3271 142.634 56.5331 140.609 65.2491C140.609 65.2491 149.188 60.6161 150.252 67.7881C150.252 67.7881 153.546 74.3421 150.87 77.3281C148.194 80.3141 138.654 82.6811 132.58 81.5151L122.663 87.6581L118.578 74.8571Z" fill="white"/>
<path d="M122.662 88.5151C122.556 88.5086 122.452 88.4854 122.353 88.4461C122.233 88.3972 122.124 88.3228 122.035 88.228C121.946 88.1333 121.879 88.0204 121.838 87.8971L117.754 75.0971C117.692 74.8917 117.706 74.6706 117.794 74.4748C117.882 74.2791 118.039 74.1222 118.234 74.0331L132.715 67.6851C134.248 64.0765 135.086 60.2113 135.186 56.2921C135.188 56.1758 135.213 56.0611 135.26 55.9549C135.307 55.8487 135.376 55.7531 135.461 55.6741C135.542 55.5936 135.638 55.5307 135.745 55.4894C135.851 55.4481 135.965 55.4293 136.079 55.4341C136.944 55.4894 137.789 55.7256 138.557 56.1274C139.325 56.5293 140.001 57.0879 140.54 57.7671C141.131 58.6374 141.545 59.6158 141.757 60.6464C141.969 61.6769 141.975 62.7391 141.775 63.7721C143.491 63.1201 146.305 62.3651 148.467 63.4291C149.213 63.8355 149.845 64.4221 150.307 65.1354C150.768 65.8487 151.044 66.666 151.109 67.5131C151.589 68.5131 154.369 74.7191 151.521 77.9131C148.604 81.1391 138.927 83.4721 132.784 82.4131L123.141 88.3841C122.998 88.4741 122.831 88.5196 122.662 88.5151ZM119.642 75.3381L123.176 86.3531L132.167 80.7941C132.356 80.6922 132.574 80.657 132.785 80.6941C138.825 81.8611 147.885 79.4241 150.252 76.7821C152.105 74.6891 150.352 69.8821 149.497 68.1691C149.458 68.0944 149.435 68.0128 149.428 67.9291C149.417 67.3324 149.249 66.749 148.942 66.2372C148.635 65.7254 148.199 65.303 147.678 65.0121C145.653 63.9831 142.187 65.3901 141.021 66.0121C140.877 66.0944 140.712 66.1318 140.547 66.1195C140.382 66.1072 140.224 66.0457 140.094 65.9431C139.962 65.8396 139.863 65.7005 139.809 65.5424C139.754 65.3842 139.746 65.2137 139.785 65.0511C140.437 62.3061 140.231 60.2121 139.202 58.8401C138.614 58.1069 137.809 57.5784 136.902 57.3301C136.708 61.277 135.777 65.1528 134.157 68.7571C134.062 68.9434 133.904 69.0896 133.711 69.1691L119.642 75.3381Z" fill="#2E2E76"/>
<path d="M142.393 72.0772C141.758 72.0892 141.128 71.9725 140.54 71.7342C140.036 71.5402 139.592 71.2158 139.254 70.7941C138.917 70.3724 138.697 69.8686 138.618 69.3342C138.549 68.8542 138.378 67.5152 144.28 65.8682C144.497 65.8106 144.727 65.84 144.922 65.9501C145.117 66.0602 145.262 66.2422 145.324 66.4573C145.387 66.6724 145.363 66.9035 145.258 67.1011C145.152 67.2988 144.974 67.4475 144.76 67.5152C143.226 67.8875 141.757 68.4889 140.402 69.2992C140.468 69.4991 140.581 69.6807 140.73 69.8296C140.879 69.9785 141.06 70.0907 141.26 70.1572C142.049 70.5002 144.486 70.8782 149.77 67.1032C149.957 66.9706 150.188 66.9175 150.414 66.9557C150.64 66.9939 150.841 67.1201 150.973 67.3067C151.106 67.4933 151.159 67.7249 151.121 67.9506C151.083 68.1763 150.957 68.3776 150.77 68.5102C146.889 71.2882 144.212 72.0772 142.393 72.0772Z" fill="#2E2E76"/>
<path d="M141.981 75.063C141.451 75.1287 140.913 75.0557 140.42 74.8511C139.927 74.6466 139.495 74.3175 139.167 73.896C138.24 72.489 139.373 70.533 139.476 70.327C139.532 70.2277 139.608 70.1409 139.699 70.0716C139.789 70.0023 139.893 69.952 140.004 69.9237C140.114 69.8954 140.229 69.8898 140.342 69.907C140.455 69.9243 140.563 69.9642 140.66 70.0242C140.757 70.0843 140.841 70.1633 140.907 70.2565C140.972 70.3498 141.019 70.4554 141.043 70.5669C141.067 70.6785 141.068 70.7938 141.046 70.9058C141.025 71.0179 140.981 71.1244 140.917 71.219C140.677 71.631 140.299 72.592 140.574 72.969C140.746 73.243 141.501 73.484 143.011 73.278C145.812 73.0169 148.44 71.8059 150.458 69.846C150.61 69.6851 150.819 69.5898 151.04 69.5804C151.261 69.5709 151.477 69.648 151.643 69.7953C151.808 69.9426 151.909 70.1486 151.925 70.3694C151.941 70.5902 151.87 70.8085 151.728 70.978C149.431 73.2407 146.427 74.6461 143.218 74.959C142.809 75.0278 142.395 75.0626 141.981 75.063Z" fill="#2E2E76"/>
<path d="M143.8 77.3623C143.352 77.4133 142.898 77.3523 142.479 77.1845C142.06 77.0168 141.689 76.7476 141.4 76.4013C141.176 76.0313 141.049 75.6107 141.032 75.1787C141.015 74.7466 141.107 74.3171 141.3 73.9302C141.346 73.8274 141.411 73.7349 141.494 73.6581C141.576 73.5813 141.673 73.5219 141.778 73.4835C141.884 73.445 141.996 73.4282 142.109 73.4342C142.221 73.4402 142.331 73.4688 142.432 73.5183C142.634 73.6166 142.79 73.7897 142.867 74.0009C142.944 74.2122 142.936 74.445 142.844 74.6503C142.737 74.899 142.712 75.1757 142.775 75.4393C142.875 75.6113 143.358 75.7483 144.319 75.6453C146.816 75.1994 149.197 74.2538 151.319 72.8652C151.51 72.7378 151.744 72.6915 151.969 72.7365C152.194 72.7815 152.393 72.9142 152.52 73.1053C152.647 73.2964 152.694 73.5303 152.649 73.7555C152.604 73.9807 152.471 74.1788 152.28 74.3063C152.108 74.4063 148.231 76.9833 144.49 77.3603L143.8 77.3623Z" fill="#2E2E76"/>
<path d="M146.613 79.2152C145.832 79.2262 145.058 79.0622 144.348 78.7352C143.938 78.5587 143.568 78.3003 143.261 77.9759C142.954 77.6514 142.717 77.2677 142.564 76.8482C142.53 76.7423 142.518 76.6308 142.527 76.52C142.536 76.4092 142.567 76.3014 142.618 76.2025C142.669 76.1037 142.739 76.0159 142.824 75.9441C142.909 75.8724 143.007 75.818 143.113 75.7842C143.219 75.7504 143.33 75.7378 143.441 75.7471C143.552 75.7564 143.66 75.7874 143.759 75.8384C143.858 75.8893 143.945 75.9593 144.017 76.0442C144.089 76.1291 144.143 76.2273 144.177 76.3332C144.378 76.7377 144.72 77.0549 145.138 77.2253C145.962 77.6023 147.574 77.7742 150.526 76.5732C150.739 76.4909 150.976 76.4957 151.186 76.5865C151.395 76.6774 151.561 76.847 151.646 77.0588C151.732 77.2705 151.731 77.5074 151.643 77.7184C151.555 77.9293 151.388 78.0974 151.178 78.1863C149.733 78.8076 148.185 79.1564 146.613 79.2152Z" fill="#2E2E76"/>
<path d="M74.31 132.851C74.31 132.851 72.594 152.068 37.455 152.617C19.855 152.892 3.99696 150.217 0.873962 138.685L4.30597 124.272L72.286 126.331L74.31 132.851Z" fill="#F5B3A5"/>
<path d="M11.203 118.781C11.203 118.781 8.83496 119.57 4.78596 141.429L0.427979 174.373H37.867L56.157 118.781H11.203Z" fill="#2E2E76"/>
<path d="M70.192 118.61C70.192 118.61 71.942 151.725 74.07 174.373H24.449L34.915 121.423L70.192 118.61Z" fill="#2E2E76"/>
<path d="M51.6555 132.405L37.046 174.083L38.6654 174.651L53.2749 132.972L51.6555 132.405Z" fill="white"/>
<path d="M32.4109 54.9873L34.47 31.1033L36.975 10.6853L57.324 11.5093C57.324 11.5093 69.4029 41.1243 51.0789 38.9273L51.457 56.1883L32.4109 54.9873Z" fill="white"/>
<path d="M52.3479 57.0822L31.4839 55.7822L33.6459 31.0062L36.2539 9.76025L57.942 10.6182L58.1479 11.1332C58.4569 11.8882 65.5259 29.5262 60.0009 36.8012C58.2849 39.0322 55.6089 40.0612 52.0009 39.8552L52.3479 57.0822ZM33.3369 54.1992L50.5979 55.2632L50.2209 37.9633L51.2209 38.0632C54.6869 38.4752 57.1579 37.7202 58.6329 35.7632C63.0939 29.8952 57.8779 15.2423 56.7459 12.3253L37.769 11.5703L35.3689 31.1992L33.3369 54.1992Z" fill="#2E2E76"/>
<path d="M65.352 10.4811C65.935 6.50012 59.312 6.36313 59.312 6.36313C61.234 5.78013 61.817 4.68213 61.645 3.82413C60.684 -1.18587 51.3499 2.82413 51.3499 2.82413C52.4499 0.524134 50.25 0.42414 50.25 0.42414C46.65 0.28714 40.47 3.16912 36.215 5.43412C34.739 5.57112 16.0719 7.90513 33.1949 34.3971C33.1949 34.3971 39.029 35.9411 39.063 25.6811C39.063 25.6811 35.8029 20.7741 40.3329 19.6411C40.7567 19.5403 41.2002 19.5608 41.6129 19.7004C42.0255 19.8399 42.3904 20.0928 42.666 20.4302C43.2462 21.1351 43.7202 21.9211 44.073 22.7632C44.166 22.9674 44.3158 23.1406 44.5044 23.2622C44.693 23.3838 44.9125 23.4487 45.137 23.4491H45.171C45.4649 23.4303 45.7402 23.2982 45.9386 23.0805C46.1371 22.8628 46.2433 22.5766 46.235 22.2821L46.063 18.2331C54.235 17.3781 64.633 15.3531 65.352 10.4811Z" fill="#2E2E76"/>
<path d="M32.105 41.2271C32.105 41.2271 50.464 57.0471 51.665 43.2861L60.965 48.2271C63.8767 49.7756 66.3541 52.0288 68.171 54.7811L83.922 78.9741L126.131 70.3951C126.131 70.3951 124.347 73.0721 125.651 80.4151C127.161 88.9251 132.308 91.3281 132.308 91.3281L70.196 109.172L74.314 132.85C74.314 132.85 70.539 127.497 39.314 129.075C12.204 130.448 0.813965 138.683 0.813965 138.683C0.813965 138.683 3.52496 88.9591 2.59796 70.0511C1.91196 56.3251 10.834 51.5201 10.834 51.5201L32.105 41.2271Z" fill="#2563F6"/>
<path d="M70.5349 96.1331C70.5349 96.1331 79.4569 108.487 71.5649 119.468C68.2684 115.934 66.2297 111.411 65.7649 106.6C65.7649 106.633 65.3879 98.8781 70.5349 96.1331Z" fill="#2E2E76"/>
<path d="M119.264 77.2591C120.777 78.9645 122.508 80.4643 124.411 81.7201C120.127 84.8279 115.526 87.4737 110.685 89.6131C106.258 91.6721 91.846 96.6481 91.846 96.6481L81.414 78.0141L109.725 63.4641C109.759 63.4641 116.348 73.9301 119.264 77.2591Z" fill="#2E2E76"/>
<path d="M122.798 74.1702C122.798 74.1702 113.636 61.5072 108.214 50.5952C108.214 50.5952 96.375 64.5622 64.873 81.9952C64.873 81.9952 71.119 101.109 75.854 106.154C75.82 106.152 112.573 88.0682 122.798 74.1702Z" fill="white"/>
<path d="M75.821 107.01C75.7047 107.009 75.59 106.983 75.4838 106.936C75.3775 106.889 75.282 106.82 75.203 106.735C70.403 101.622 64.291 83.0572 64.05 82.2682C63.9859 82.0756 63.9921 81.8666 64.0675 81.6782C64.143 81.4898 64.2827 81.3343 64.462 81.2392C95.484 64.0812 107.462 50.1831 107.562 50.0461C107.655 49.9388 107.771 49.8549 107.902 49.8012C108.034 49.7475 108.176 49.7256 108.317 49.7371C108.459 49.752 108.594 49.8044 108.708 49.889C108.823 49.9736 108.913 50.0871 108.969 50.2181C114.288 60.9251 123.382 73.5182 123.485 73.6562C123.587 73.8031 123.641 73.9775 123.641 74.1562C123.641 74.3348 123.587 74.5092 123.485 74.6562C113.259 88.5562 77.708 106.156 76.198 106.913C76.0825 106.977 75.9528 107.01 75.821 107.01ZM65.904 82.4101C67.004 85.7041 72.046 100.22 76.027 105.093C80.727 102.725 111.99 86.7002 121.736 74.1402C116.702 67.0804 112.118 59.7108 108.01 52.0752C104.749 55.5022 92.155 67.7872 65.903 82.4062L65.904 82.4101Z" fill="#2E2E76"/>
<path d="M67.652 99.4281L81.452 96.58L87.766 87.109C87.9171 86.8835 88.126 86.7028 88.371 86.586C88.616 86.4691 88.8879 86.4204 89.1582 86.4449C89.4286 86.4695 89.6873 86.5664 89.9072 86.7255C90.1271 86.8846 90.3001 87.1 90.408 87.349C90.991 88.687 91.163 90.9861 89.55 94.9671C89.55 94.9671 91.986 97.403 96.413 96.167L105.919 90.711C105.919 90.711 107.119 97.197 100.051 102.653C96.2668 105.713 91.5668 107.417 86.701 107.493L68.342 113.567C67.1368 111.344 66.3249 108.929 65.942 106.429C65.7462 105.207 65.7967 103.958 66.0903 102.756C66.384 101.554 66.9149 100.422 67.652 99.4281Z" fill="white"/>
<path d="M67.961 114.63L67.618 114.012C66.3561 111.694 65.5083 109.174 65.113 106.565C64.8908 105.22 64.9467 103.845 65.2773 102.522C65.6079 101.2 66.2061 99.9599 67.035 98.8781L67.241 98.672L80.967 95.8581L87.041 86.6581C87.2712 86.3034 87.5955 86.0196 87.9776 85.8386C88.3598 85.6576 88.7847 85.5864 89.205 85.633C89.6276 85.6693 90.0326 85.8192 90.3769 86.0669C90.7213 86.3146 90.9922 86.6509 91.161 87.0401C91.95 88.8931 91.779 91.4671 90.543 94.7271C91.3603 95.2324 92.277 95.5553 93.2305 95.6737C94.1841 95.7921 95.152 95.7032 96.068 95.4131L106.534 89.4081L106.74 90.6081C106.809 90.8821 107.975 97.6771 100.563 103.373C96.6451 106.504 91.8149 108.274 86.802 108.417L67.961 114.63ZM68.133 100.183C66.9195 101.985 66.4408 104.183 66.795 106.326C67.1175 108.491 67.7896 110.588 68.785 112.537L86.595 106.637H86.767C91.4199 106.528 95.9071 104.888 99.533 101.97C104.303 98.2641 105.092 94.1801 105.161 92.1561L96.754 96.995L96.654 97.0291C91.781 98.3671 89.07 95.6911 88.933 95.5881L88.521 95.1761L88.727 94.6611C90.271 90.8181 90.027 88.7611 89.585 87.7291C89.5399 87.6198 89.464 87.526 89.3665 87.459C89.269 87.3921 89.1542 87.355 89.036 87.3521C88.9234 87.3431 88.8104 87.3636 88.7081 87.4116C88.6059 87.4597 88.5179 87.5336 88.453 87.6261L81.933 97.3721L68.133 100.183Z" fill="#2E2E76"/>
<path d="M19.645 123.483C17.4188 123.478 15.2538 122.754 13.4728 121.418C11.6918 120.082 10.3902 118.207 9.76196 116.071L2.79596 91.912L4.44296 91.432L11.409 115.59C11.9588 117.473 13.1378 119.11 14.7493 120.228C16.3607 121.346 18.3069 121.877 20.263 121.733L69.026 118.027C64.668 110.927 64.6339 105.536 65.3889 102.207C65.7704 100.594 66.4325 99.0607 67.345 97.677L31.451 97.711L21.98 59.411L23.661 58.999L32.823 96.026L71.394 95.992L69.7809 97.502C69.4719 97.776 62.232 104.777 71.291 118.366L72.115 119.601L20.47 123.513C20.1958 123.487 19.9203 123.477 19.645 123.483Z" fill="#2E2E76"/>
<path d="M104.851 60.4451L104.508 63.5331L109.655 64.1161L104.851 60.4451Z" fill="white"/>
<path d="M109.552 64.9762L103.547 64.3242L103.993 60.3782L105.709 60.5502L105.469 62.7812L109.759 63.2612L109.552 64.9762Z" fill="#2E2E76"/>
<path d="M97.645 66.6221L97.302 69.7101L102.449 70.2931L97.645 66.6221Z" fill="white"/>
<path d="M102.346 71.1532L96.341 70.5012L96.787 66.5552L98.503 66.7272L98.263 68.9582L102.553 69.4382L102.346 71.1532Z" fill="#2E2E76"/>
<path d="M89.409 71.769L89.066 74.8571L94.213 75.4401L89.409 71.769Z" fill="white"/>
<path d="M94.11 76.3002L88.105 75.6482L88.551 71.7021L90.267 71.8741L90.027 74.1052L94.317 74.5851L94.11 76.3002Z" fill="#2E2E76"/>
<path d="M112.379 66.785L111.019 67.8313L114.45 72.2922L115.811 71.2459L112.379 66.785Z" fill="#2E2E76"/>
<path d="M109.63 68.8597L108.273 69.9082L114.102 77.4543L115.459 76.4059L109.63 68.8597Z" fill="#2E2E76"/>
<path d="M104.199 72.686L102.765 73.6292L105.858 78.3309L107.292 77.3878L104.199 72.686Z" fill="#2E2E76"/>
<path d="M101.31 74.5237L99.879 75.4692L105.136 83.4256L106.567 82.4801L101.31 74.5237Z" fill="#2E2E76"/>
<path d="M95.9985 78.5801L94.501 79.418L97.2491 84.3294L98.7466 83.4915L95.9985 78.5801Z" fill="#2E2E76"/>
<path d="M92.9913 80.1924L91.495 81.0332L96.1696 89.3521L97.6659 88.5112L92.9913 80.1924Z" fill="#2E2E76"/>
<path d="M67.2772 67.2646L65.565 67.3782L66.4488 80.6979L68.161 80.5843L67.2772 67.2646Z" fill="#2E2E76"/>
</svg>
