<svg width="34" height="35" viewBox="0 0 34 35" fill="none" xmlns="http://www.w3.org/2000/svg">
<path opacity="0.5" d="M17.1519 28.4982C23.1896 28.4982 28.0841 23.6037 28.0841 17.566C28.0841 11.5283 23.1896 6.63379 17.1519 6.63379C11.1142 6.63379 6.21973 11.5283 6.21973 17.566C6.21973 23.6037 11.1142 28.4982 17.1519 28.4982Z" stroke="#1C274C" stroke-width="1.5"/>
<path d="M15.1016 14.1491C15.1018 13.7903 15.1963 13.4379 15.3754 13.1271C15.5546 12.8163 15.8122 12.558 16.1226 12.378C16.4329 12.198 16.785 12.1026 17.1438 12.1013C17.5026 12.1001 17.8553 12.1931 18.1669 12.371C18.4785 12.5488 18.7379 12.8054 18.9192 13.115C19.1005 13.4245 19.1973 13.7763 19.2 14.135C19.2028 14.4938 19.1113 14.847 18.9347 15.1593C18.7581 15.4715 18.5026 15.732 18.1938 15.9146C17.9168 16.0367 17.6754 16.2273 17.4922 16.4683C17.309 16.7094 17.1901 16.993 17.1466 17.2926V18.6539" stroke="#1C274C" stroke-width="1.5" stroke-linecap="round"/>
<path d="M17.1518 23.0321C17.7556 23.0321 18.245 22.5427 18.245 21.9389C18.245 21.3352 17.7556 20.8457 17.1518 20.8457C16.548 20.8457 16.0586 21.3352 16.0586 21.9389C16.0586 22.5427 16.548 23.0321 17.1518 23.0321Z" fill="#1C274C"/>
</svg>
