<svg width="35" height="35" viewBox="0 0 35 35" fill="none" xmlns="http://www.w3.org/2000/svg">
<path opacity="0.5" d="M17.5993 28.6184C23.7277 28.6184 28.6958 23.6503 28.6958 17.5219C28.6958 11.3934 23.7277 6.42529 17.5993 6.42529C11.4708 6.42529 6.50269 11.3934 6.50269 17.5219C6.50269 23.6503 11.4708 28.6184 17.5993 28.6184Z" stroke="#1C274C" stroke-width="1.5"/>
<path d="M15.5181 14.0537C15.5183 13.6895 15.6142 13.3318 15.7961 13.0163C15.9779 12.7008 16.2394 12.4386 16.5544 12.2559C16.8694 12.0732 17.2269 11.9764 17.591 11.9751C17.9552 11.9739 18.3133 12.0682 18.6295 12.2488C18.9457 12.4293 19.209 12.6898 19.3931 13.004C19.5771 13.3182 19.6754 13.6753 19.6782 14.0394C19.6809 14.4035 19.588 14.762 19.4088 15.079C19.2296 15.396 18.9702 15.6604 18.6568 15.8457C18.3756 15.9697 18.1306 16.1631 17.9446 16.4078C17.7587 16.6524 17.638 16.9404 17.5939 17.2445V18.6262" stroke="#1C274C" stroke-width="1.5" stroke-linecap="round"/>
<path d="M17.5992 23.0701C18.212 23.0701 18.7088 22.5733 18.7088 21.9605C18.7088 21.3476 18.212 20.8508 17.5992 20.8508C16.9863 20.8508 16.4895 21.3476 16.4895 21.9605C16.4895 22.5733 16.9863 23.0701 17.5992 23.0701Z" fill="#1C274C"/>
</svg>
