<svg width="20" height="24" viewBox="0 0 20 24" fill="none" xmlns="http://www.w3.org/2000/svg">
<path opacity="0.5" d="M1.51123 22.3115H18.5181" stroke="#1C274C" stroke-width="1.5" stroke-linecap="round"/>
<path d="M12.8105 2.03189L12.0229 2.82058L4.77583 10.0666C4.44043 10.383 4.12418 10.7191 3.82876 11.0732C3.57935 11.3923 3.3655 11.7377 3.191 12.1032C3.0063 12.5259 2.84693 12.9593 2.71374 13.401L1.78368 16.1912L1.55621 16.8736C1.50314 17.0325 1.49538 17.203 1.53381 17.366C1.57224 17.529 1.65533 17.6781 1.77377 17.7966C1.89221 17.915 2.0413 17.9981 2.20433 18.0365C2.36736 18.0749 2.53787 18.0672 2.69673 18.0141L3.37914 17.7866L6.16933 16.8566C6.60997 16.7233 7.04228 16.564 7.46398 16.3793C7.82948 16.2048 8.17485 15.991 8.49396 15.7416C8.84796 15.4461 9.18408 15.1299 9.50055 14.7945L16.7466 7.5485L17.5352 6.7598C17.8634 6.45364 18.1265 6.08456 18.309 5.67455C18.4915 5.26454 18.5896 4.82199 18.5975 4.37327C18.6053 3.92455 18.5227 3.47884 18.3547 3.0627C18.1867 2.64656 17.9366 2.2685 17.6193 1.95105C17.3021 1.6336 16.9242 1.38326 16.5082 1.21494C16.0922 1.04661 15.6465 0.963755 15.1978 0.971298C14.7491 0.978841 14.3064 1.07663 13.8963 1.25884C13.4862 1.44105 13.1169 1.70396 12.8105 2.03189Z" stroke="#1C274C" stroke-width="1.5"/>
<path opacity="0.5" d="M12.0217 2.82166C12.1742 4.02096 12.7301 5.13272 13.598 5.97431C14.4396 6.84225 15.5513 7.39813 16.7506 7.55063M3.38004 17.7877L1.78564 16.1933" stroke="#1C274C" stroke-width="1.5"/>
</svg>
