<svg width="19" height="24" viewBox="0 0 19 24" fill="none" xmlns="http://www.w3.org/2000/svg">
<path opacity="0.5" d="M1.10352 22.2695H17.8579" stroke="#1C274C" stroke-width="1.5" stroke-linecap="round"/>
<path d="M12.235 2.29116L11.4591 3.06814L4.31961 10.2065C3.98919 10.5183 3.67764 10.8494 3.3866 11.1982C3.14091 11.5126 2.93023 11.8528 2.75832 12.2129C2.57636 12.6293 2.41936 13.0563 2.28815 13.4914L1.3719 16.2402L1.14781 16.9125C1.09552 17.069 1.08788 17.2369 1.12574 17.3976C1.1636 17.5582 1.24546 17.705 1.36213 17.8217C1.47881 17.9384 1.62569 18.0203 1.7863 18.0581C1.94691 18.096 2.11489 18.0883 2.27139 18.036L2.94366 17.812L5.69242 16.8957C6.12651 16.7644 6.55241 16.6074 6.96785 16.4255C7.32791 16.2536 7.66816 16.043 7.98253 15.7973C8.33127 15.5062 8.6624 15.1946 8.97418 14.8642L16.1126 7.72585L16.8896 6.94886C17.2128 6.64725 17.4721 6.28364 17.6518 5.87972C17.8316 5.4758 17.9283 5.03982 17.936 4.59776C17.9437 4.15571 17.8624 3.71662 17.6968 3.30666C17.5313 2.8967 17.2849 2.52425 16.9724 2.21152C16.6599 1.89879 16.2876 1.65216 15.8777 1.48634C15.4679 1.32051 15.0289 1.23888 14.5868 1.24631C14.1447 1.25375 13.7087 1.35008 13.3046 1.52959C12.9006 1.7091 12.5368 1.96809 12.235 2.29116Z" stroke="#1C274C" stroke-width="1.5"/>
<path opacity="0.5" d="M11.458 3.06909C11.6083 4.25058 12.1559 5.34584 13.011 6.17493C13.84 7.02998 14.9353 7.57761 16.1168 7.72785M2.94474 17.8129L1.37402 16.2422" stroke="#1C274C" stroke-width="1.5"/>
</svg>
