<svg width="19" height="24" viewBox="0 0 19 24" fill="none" xmlns="http://www.w3.org/2000/svg">
<path opacity="0.5" d="M1.06885 22.3115H18.0757" stroke="#1C274C" stroke-width="1.5" stroke-linecap="round"/>
<path d="M12.3681 2.03189L11.5805 2.82058L4.33345 10.0666C3.99804 10.383 3.68179 10.7191 3.38637 11.0732C3.13697 11.3923 2.92312 11.7377 2.74861 12.1032C2.56392 12.5259 2.40455 12.9593 2.27136 13.401L1.34129 16.1912L1.11383 16.8736C1.06076 17.0325 1.053 17.203 1.09143 17.366C1.12986 17.529 1.21295 17.6781 1.33139 17.7966C1.44982 17.915 1.59892 17.9981 1.76195 18.0365C1.92498 18.0749 2.09549 18.0672 2.25435 18.0141L2.93675 17.7866L5.72695 16.8566C6.16758 16.7233 6.5999 16.564 7.0216 16.3793C7.38709 16.2048 7.73246 15.991 8.05158 15.7416C8.40557 15.4461 8.7417 15.1299 9.05817 14.7945L16.3042 7.5485L17.0929 6.7598C17.421 6.45364 17.6842 6.08456 17.8666 5.67455C18.0491 5.26454 18.1472 4.82199 18.1551 4.37327C18.1629 3.92455 18.0804 3.47884 17.9123 3.0627C17.7443 2.64656 17.4942 2.2685 17.1769 1.95105C16.8597 1.6336 16.4818 1.38326 16.0658 1.21494C15.6498 1.04661 15.2041 0.963755 14.7554 0.971298C14.3067 0.978841 13.8641 1.07663 13.4539 1.25884C13.0438 1.44105 12.6745 1.70396 12.3681 2.03189Z" stroke="#1C274C" stroke-width="1.5"/>
<path opacity="0.5" d="M11.5793 2.82166C11.7318 4.02096 12.2877 5.13272 13.1556 5.97431C13.9972 6.84225 15.109 7.39813 16.3083 7.55063M2.93766 17.7877L1.34326 16.1933" stroke="#1C274C" stroke-width="1.5"/>
</svg>
