<svg width="20" height="24" viewBox="0 0 20 24" fill="none" xmlns="http://www.w3.org/2000/svg">
<path opacity="0.5" d="M1.46362 22.5327H18.4705" stroke="#1C274C" stroke-width="1.5" stroke-linecap="round"/>
<path d="M12.7627 2.25296L11.975 3.04165L4.72798 10.2877C4.39258 10.6041 4.07632 10.9402 3.7809 11.2942C3.5315 11.6134 3.31765 11.9587 3.14315 12.3242C2.95845 12.747 2.79908 13.1804 2.66589 13.6221L1.73583 16.4123L1.50836 17.0947C1.45529 17.2535 1.44753 17.424 1.48596 17.5871C1.52439 17.7501 1.60748 17.8992 1.72592 18.0176C1.84436 18.1361 1.99345 18.2192 2.15648 18.2576C2.31951 18.296 2.49002 18.2883 2.64888 18.2352L3.33128 18.0077L6.12148 17.0777C6.56211 16.9444 6.99443 16.785 7.41613 16.6004C7.78163 16.4259 8.127 16.212 8.44611 15.9626C8.80011 15.6672 9.13623 15.3509 9.4527 15.0156L16.6987 7.76957L17.4874 6.98087C17.8155 6.67471 18.0787 6.30563 18.2612 5.89562C18.4437 5.4856 18.5418 5.04306 18.5496 4.59434C18.5574 4.14562 18.4749 3.69991 18.3068 3.28377C18.1388 2.86763 17.8887 2.48957 17.5715 2.17212C17.2542 1.85467 16.8764 1.60433 16.4603 1.43601C16.0443 1.26768 15.5986 1.18482 15.1499 1.19237C14.7012 1.19991 14.2586 1.2977 13.8485 1.47991C13.4383 1.66212 13.0691 1.92503 12.7627 2.25296Z" stroke="#1C274C" stroke-width="1.5"/>
<path opacity="0.5" d="M11.9741 3.04272C12.1266 4.24203 12.6824 5.35379 13.5504 6.19538C14.392 7.06332 15.5037 7.6192 16.703 7.7717M3.33243 18.0088L1.73804 16.4144" stroke="#1C274C" stroke-width="1.5"/>
</svg>
