<svg width="18" height="23" viewBox="0 0 18 23" fill="none" xmlns="http://www.w3.org/2000/svg">
<path opacity="0.5" d="M0.846924 21.335H16.8469" stroke="#1C274C" stroke-width="1.5" stroke-linecap="round"/>
<path d="M11.4769 2.25606L10.7359 2.99806L3.91791 9.81505C3.60237 10.1127 3.30484 10.429 3.02691 10.7621C2.79227 11.0623 2.59108 11.3872 2.42691 11.7311C2.25315 12.1288 2.10321 12.5365 1.97791 12.9521L1.10291 15.5771L0.88891 16.2191C0.838979 16.3685 0.831682 16.5289 0.867835 16.6823C0.903989 16.8357 0.982163 16.976 1.09359 17.0874C1.20501 17.1988 1.34528 17.277 1.49866 17.3131C1.65203 17.3493 1.81245 17.342 1.96191 17.2921L2.60391 17.0781L5.22891 16.2031C5.64346 16.0777 6.05018 15.9278 6.44691 15.7541C6.79077 15.5899 7.11569 15.3887 7.41591 15.1541C7.74895 14.8761 8.06517 14.5786 8.36291 14.2631L15.1799 7.44606L15.9219 6.70406C16.2306 6.41602 16.4782 6.06879 16.6499 5.68305C16.8216 5.29731 16.9138 4.88097 16.9212 4.45881C16.9286 4.03666 16.8509 3.61734 16.6928 3.22584C16.5347 2.83433 16.2995 2.47866 16.001 2.18001C15.7026 1.88135 15.347 1.64583 14.9556 1.48747C14.5643 1.32911 14.145 1.25116 13.7228 1.25826C13.3007 1.26535 12.8843 1.35735 12.4984 1.52878C12.1126 1.7002 11.7652 1.94754 11.4769 2.25606Z" stroke="#1C274C" stroke-width="1.5"/>
<path opacity="0.5" d="M10.735 2.99902C10.8785 4.12732 11.4014 5.17327 12.218 5.96502C13.0097 6.78158 14.0557 7.30455 15.184 7.44802M2.60498 17.079L1.10498 15.579" stroke="#1C274C" stroke-width="1.5"/>
</svg>
