<svg width="24" height="23" viewBox="0 0 24 23" fill="none" xmlns="http://www.w3.org/2000/svg">
<path opacity="0.5" d="M22.3834 9.88683V11.4575C22.3834 16.3938 22.3834 18.8619 20.8493 20.3949C19.3152 21.928 16.8481 21.929 11.9119 21.929C6.97565 21.929 4.50752 21.929 2.97345 20.3949C1.43938 18.8609 1.44043 16.3938 1.44043 11.4575C1.44043 6.5213 1.44043 4.05318 2.97345 2.51911C4.50647 0.985037 6.97565 0.986084 11.9119 0.986084H13.4826" stroke="#1C274C" stroke-width="1.5" stroke-linecap="round"/>
<path d="M17.4614 1.83009L16.7818 2.50969L10.5366 8.75592C10.2474 9.02882 9.97466 9.31869 9.71987 9.624C9.50525 9.89918 9.32126 10.1969 9.17117 10.512C9.01192 10.8763 8.8745 11.2497 8.75964 11.6303L8.15439 13.4471L7.76276 14.6231C7.71696 14.76 7.71024 14.9071 7.74336 15.0476C7.77647 15.1882 7.84811 15.3168 7.95023 15.4189C8.05235 15.521 8.18091 15.5926 8.32148 15.6257C8.46205 15.6589 8.60906 15.6521 8.74603 15.6064L9.92197 15.2147L11.7388 14.6095C12.1194 14.4949 12.4928 14.3579 12.8571 14.199C13.1722 14.0489 13.4699 13.8649 13.7451 13.6503C14.0504 13.3955 14.3403 13.1227 14.6132 12.8335L20.8594 6.58728L21.539 5.90768C22.0797 5.36696 22.3835 4.63358 22.3835 3.86889C22.3835 3.10419 22.0797 2.37081 21.539 1.83009C20.9983 1.28937 20.2649 0.985596 19.5002 0.985596C18.7355 0.985596 18.0021 1.28937 17.4614 1.83009Z" stroke="#1C274C" stroke-width="1.5"/>
<path opacity="0.5" d="M16.7832 2.50977C16.9142 3.54567 17.3944 4.506 18.1445 5.23235C18.8708 5.98247 19.8312 6.46263 20.8671 6.59364M9.9223 15.2148L8.15576 13.4472" stroke="#1C274C" stroke-width="1.5"/>
</svg>
