<svg width="777" height="325" viewBox="0 0 777 325" fill="none" xmlns="http://www.w3.org/2000/svg">
<path d="M750.649 0.750977H26.3891C11.931 0.750977 0.210449 12.4716 0.210449 26.9296V298.141C0.210449 312.599 11.931 324.319 26.3891 324.319H750.649C765.107 324.319 776.828 312.599 776.828 298.141V26.9296C776.828 12.4716 765.107 0.750977 750.649 0.750977Z" fill="white"/>
<path d="M750.649 1.53638H26.3892C12.3648 1.53638 0.99585 12.9053 0.99585 26.9297V298.141C0.99585 312.165 12.3648 323.534 26.3892 323.534H750.649C764.673 323.534 776.042 312.165 776.042 298.141V26.9297C776.042 12.9053 764.673 1.53638 750.649 1.53638Z" stroke="#BEB9B1" stroke-width="1.5"/>
</svg>
