<svg width="28" height="28" viewBox="0 0 28 28" fill="none" xmlns="http://www.w3.org/2000/svg">
<path d="M11.3573 12.0398C14.2489 12.0398 16.593 9.69571 16.593 6.80409C16.593 3.91248 14.2489 1.56836 11.3573 1.56836C8.4657 1.56836 6.12158 3.91248 6.12158 6.80409C6.12158 9.69571 8.4657 12.0398 11.3573 12.0398Z" stroke="#1C274C" stroke-width="2"/>
<path opacity="0.5" d="M15.6904 4.87311C16.1573 4.16949 16.8383 3.6349 17.6327 3.34849C18.4271 3.06209 19.2925 3.03909 20.101 3.2829C20.9095 3.52672 21.6179 4.02439 22.1215 4.70223C22.6251 5.38007 22.897 6.20204 22.897 7.04647C22.897 7.89089 22.6251 8.71287 22.1215 9.39071C21.6179 10.0685 20.9095 10.5662 20.101 10.81C19.2925 11.0538 18.4271 11.0308 17.6327 10.7444C16.8383 10.458 16.1573 9.92345 15.6904 9.21982" stroke="#1C274C" stroke-width="2"/>
<path d="M11.3574 26.6997C16.5623 26.6997 20.7817 24.3556 20.7817 21.464C20.7817 18.5724 16.5623 16.2283 11.3574 16.2283C6.15252 16.2283 1.93311 18.5724 1.93311 21.464C1.93311 24.3556 6.15252 26.6997 11.3574 26.6997Z" stroke="#1C274C" stroke-width="2"/>
<path opacity="0.5" d="M22.897 17.5288C25.1955 18.0325 26.828 19.309 26.828 20.8043C26.828 22.153 25.5002 23.3237 23.5525 23.9101" stroke="#1C274C" stroke-width="2" stroke-linecap="round"/>
</svg>
