<svg width="608" height="365" viewBox="0 0 608 365" fill="none" xmlns="http://www.w3.org/2000/svg">
<path d="M176.012 211.126H173.255V205.512H176.012V211.126ZM176.012 199.897H173.255V194.283H176.012V199.897ZM176.012 188.668H173.255V183.054H176.012V188.668ZM176.012 177.439H173.255V171.825H176.012V177.439ZM176.012 166.21H173.255V162.795H178.172V165.602H176.012V166.21ZM288.467 165.602H282.952V162.795H288.467V165.602ZM277.437 165.602H271.922V162.795H277.437V165.602ZM266.408 165.602H260.893V162.795H266.408V165.602ZM255.378 165.602H249.864V162.795H255.378V165.602ZM244.349 165.602H238.834V162.795H244.349V165.602ZM233.319 165.602H227.805V162.795H233.319V165.602ZM222.29 165.602H216.775V162.795H222.29V165.602ZM211.26 165.602H205.746V162.795H211.26V165.602ZM200.231 165.602H194.716V162.795H200.231V165.602ZM189.201 165.602H183.687V162.795H189.201V165.602Z" fill="#F5B3A5"/>
<path d="M329.965 238.73H327.208V233.116H329.965V238.73ZM329.965 227.501H327.208V221.887H329.965V227.501ZM329.965 216.272H327.208V210.658H329.965V216.272ZM329.965 205.043H327.208V199.428H329.965V205.043ZM329.965 193.814H327.208V188.199H329.965V193.814ZM329.965 182.585H327.208V176.97H329.965V182.585ZM329.965 171.356H327.208V165.741H329.965V171.356ZM329.965 160.127H327.208V154.512H329.965V160.127ZM329.965 148.898H327.208V143.283H329.965V148.898ZM329.965 137.669H327.208V132.054H329.965V137.669ZM329.965 126.44H327.208V120.825H329.965V126.44ZM329.965 115.211H327.208V109.596H329.965V115.211ZM329.965 103.982H327.208V98.3672H329.965V103.982ZM329.965 92.7527H327.208V87.1382H329.965V92.7527ZM329.965 81.5237H327.208V75.9092H329.965V81.5237ZM329.965 70.2947H327.208V64.6802H329.965V70.2947ZM329.965 59.0657H327.208V53.4511H329.965V59.0657ZM329.965 47.8366H327.208V42.2221H329.965V47.8366ZM428.771 39.8827H426.013V34.2682H428.771V39.8827ZM329.965 36.6076H327.208V30.9931H329.965V36.6076ZM428.771 28.6537H426.013V23.0392H428.771V28.6537ZM329.965 25.3786H327.208V19.7641H329.965V25.3786ZM428.771 17.4247H426.013V11.8102H428.771V17.4247ZM329.965 14.1496H327.208V8.53505H329.965V14.1496ZM428.771 6.19567H426.013V1.51691H426.473V0.113281H428.771V6.19567ZM420.958 2.92054H415.444V0.113281H420.958V2.92054ZM409.929 2.92054H404.414V0.113281H409.929V2.92054ZM398.899 2.92054H393.385V0.113281H398.899V2.92054ZM387.87 2.92054H382.355V0.113281H387.87V2.92054ZM376.84 2.92054H371.326V0.113281H376.84V2.92054ZM365.811 2.92054H360.296V0.113281H365.811V2.92054ZM354.781 2.92054H349.267V0.113281H354.781V2.92054ZM343.752 2.92054H338.237V0.113281H343.752V2.92054ZM332.722 2.92054H327.208V0.113281H332.722V2.92054Z" fill="#F5B3A5"/>
<path d="M376.841 34.2705H280.333V212.531H376.841V34.2705Z" fill="white"/>
<path d="M378.219 213.935H278.954V32.8672H378.219V213.935ZM281.711 211.128H375.462V35.6744H281.711V211.128Z" fill="#F5B3A5"/>
<path d="M325.554 95.5608L315.535 85.595L317.741 83.2557L325.416 90.882L339.203 75.3018L341.592 77.454L325.554 95.5608Z" fill="#2E2E76"/>
<path d="M376.841 34.2705H280.333V52.9855H376.841V34.2705Z" fill="white"/>
<path d="M378.219 54.3895H278.954V32.8672H378.219V54.3895ZM281.711 51.5822H375.462V35.6744H281.711V51.5822Z" fill="#F5B3A5"/>
<path d="M289.524 47.3698C291.554 47.3698 293.2 45.694 293.2 43.6268C293.2 41.5596 291.554 39.8838 289.524 39.8838C287.493 39.8838 285.847 41.5596 285.847 43.6268C285.847 45.694 287.493 47.3698 289.524 47.3698Z" fill="#2563F6"/>
<path d="M301.473 47.3698C303.503 47.3698 305.149 45.694 305.149 43.6268C305.149 41.5596 303.503 39.8838 301.473 39.8838C299.442 39.8838 297.796 41.5596 297.796 43.6268C297.796 45.694 299.442 47.3698 301.473 47.3698Z" fill="#89EFD7"/>
<path d="M313.421 47.3698C315.452 47.3698 317.098 45.694 317.098 43.6268C317.098 41.5596 315.452 39.8838 313.421 39.8838C311.391 39.8838 309.745 41.5596 309.745 43.6268C309.745 45.694 311.391 47.3698 313.421 47.3698Z" fill="#F5B3A5"/>
<path d="M396.923 238.495H252.896V325.754H396.923V238.495Z" fill="white"/>
<path d="M398.302 327.158H251.518V237.092H398.302V327.158ZM254.275 324.351H395.544V239.899H254.275V324.351Z" fill="#F5B3A5"/>
<path d="M282.217 277.986C290.11 277.986 296.509 271.471 296.509 263.435C296.509 255.398 290.11 248.884 282.217 248.884C274.323 248.884 267.924 255.398 267.924 263.435C267.924 271.471 274.323 277.986 282.217 277.986Z" fill="white"/>
<path d="M282.217 279.202C273.669 279.202 266.776 272.137 266.776 263.481C266.776 254.779 273.715 247.761 282.217 247.761C290.719 247.761 297.658 254.826 297.658 263.481C297.704 272.137 290.765 279.202 282.217 279.202ZM282.217 250.053C274.956 250.053 269.073 256.042 269.073 263.435C269.073 270.827 275.002 276.816 282.217 276.816C289.432 276.816 295.36 270.78 295.36 263.435C295.36 256.089 289.478 250.053 282.217 250.053Z" fill="#2E2E76"/>
<path d="M279.046 271.435L271.509 263.761L273.117 262.124L279.046 268.113L290.673 256.275L292.327 257.913L279.046 271.435Z" fill="#2E2E76"/>
<path d="M336.353 255.761H308.825V258.1H336.353V255.761Z" fill="#2E2E76"/>
<path d="M382.033 262.639H308.825V264.978H382.033V262.639Z" fill="#2E2E76"/>
<path d="M382.033 269.471H308.825V271.81H382.033V269.471Z" fill="#2E2E76"/>
<path d="M282.079 315.369C289.972 315.369 296.371 308.855 296.371 300.819C296.371 292.782 289.972 286.268 282.079 286.268C274.185 286.268 267.786 292.782 267.786 300.819C267.786 308.855 274.185 315.369 282.079 315.369Z" fill="white"/>
<path d="M282.079 316.539C273.531 316.539 266.638 309.474 266.638 300.818C266.638 292.163 273.577 285.098 282.079 285.098C290.581 285.098 297.52 292.163 297.52 300.818C297.52 309.474 290.581 316.539 282.079 316.539ZM282.079 287.437C274.818 287.437 268.935 293.473 268.935 300.818C268.935 308.164 274.864 314.2 282.079 314.2C289.294 314.2 295.222 308.164 295.222 300.818C295.222 293.473 289.34 287.437 282.079 287.437Z" fill="#2E2E76"/>
<path d="M279.184 308.819L271.647 301.146L273.301 299.462L279.184 305.497L290.856 293.66L292.465 295.298L279.184 308.819Z" fill="#2E2E76"/>
<path d="M336.353 293.145H308.825V295.484H336.353V293.145Z" fill="#2E2E76"/>
<path d="M382.033 299.976H308.825V302.315H382.033V299.976Z" fill="#2E2E76"/>
<path d="M382.033 306.854H308.825V309.194H382.033V306.854Z" fill="#2E2E76"/>
<path d="M475.187 59.5366V127.847H404.874V30.5283H448.532L475.187 59.5366Z" fill="white"/>
<path d="M476.565 129.25H403.495V29.125H449.13L476.565 58.9755V129.25ZM406.252 126.443H473.808V60.0984L447.935 31.9323H406.252V126.443Z" fill="#F5B3A5"/>
<path d="M475.187 59.5366L475.187 59.7706H448.303V30.5283H448.532L475.187 59.5366Z" fill="white"/>
<path d="M476.566 61.1745H446.924V29.125H449.13L476.565 58.9755L476.566 61.1745ZM449.681 58.3673H472.246L449.681 33.8506V58.3673Z" fill="#F5B3A5"/>
<path d="M443.247 51.5811H417.511V53.9204H443.247V51.5811Z" fill="#2E2E76"/>
<path d="M459.792 64.6826H417.742V67.022H459.792V64.6826Z" fill="#2E2E76"/>
<path d="M459.792 77.7812H417.742V80.1206H459.792V77.7812Z" fill="#2E2E76"/>
<path d="M459.792 90.8828H417.742V93.2222H459.792V90.8828Z" fill="#2E2E76"/>
<path d="M459.792 103.983H417.742V106.323H459.792V103.983Z" fill="#2E2E76"/>
<path d="M202.575 40.3963C178.586 36.7937 156.297 53.684 152.758 78.1071C151.334 87.9325 153.172 97.524 157.446 105.665L150.001 129.012L174.679 123.631C179.229 126.205 184.284 128.029 189.753 128.872C213.742 132.474 236.031 115.584 239.57 91.1609C243.154 66.6909 226.564 43.999 202.575 40.3963Z" fill="white"/>
<path d="M147.979 130.884L155.975 105.806C151.563 97.1968 150.001 87.5585 151.38 77.9203C155.01 52.7954 178.08 35.3436 202.759 39.0398C227.437 42.736 244.579 66.2234 240.948 91.3483C237.318 116.473 214.248 133.925 189.569 130.229C184.238 129.433 179.183 127.702 174.496 125.082L147.979 130.884ZM174.955 122.088L175.415 122.369C179.918 124.942 184.836 126.626 189.983 127.422C213.191 130.884 234.836 114.508 238.237 90.9273C241.637 67.3463 225.553 45.2626 202.391 41.8003C179.183 38.338 157.538 54.7136 154.137 78.2946C152.804 87.5585 154.367 96.7757 158.687 104.964L158.962 105.478L152.069 127.094L174.955 122.088Z" fill="#F5B3A5"/>
<path d="M186.214 84.2819L193.338 91.3L205.286 77.8252" fill="white"/>
<path d="M193.384 92.9848L185.433 85.1245L187.042 83.4402L193.246 89.6161L204.413 77.0303L206.114 78.621L193.384 92.9848Z" fill="#2E2E76"/>
<path d="M212.639 101.734H178.862V67.3447H212.639V101.734ZM181.159 99.3942H210.342V69.6841H181.159V99.3942Z" fill="#2E2E76"/>
<path d="M192.556 220.95C192.556 220.95 198.531 220.482 202.207 231.711C202.207 231.711 205.884 242.004 200.828 249.49L191.637 251.362L184.744 223.757L192.556 220.95Z" fill="#2E2E76"/>
<path d="M182.905 227.033L202.713 218.237C202.713 218.237 206.343 210.376 206.297 201.768C206.297 201.768 215.121 202.048 212.409 213.932C212.409 213.932 223.898 207.616 225.323 217.395C225.323 217.395 229.735 226.331 226.15 230.402C222.566 234.472 209.79 237.7 201.656 236.11L188.374 244.485L182.905 227.033Z" fill="white"/>
<path d="M188.374 245.655C188.237 245.655 188.099 245.608 187.961 245.561C187.639 245.421 187.363 245.14 187.271 244.813L181.803 227.361C181.619 226.8 181.895 226.191 182.446 225.911L201.84 217.255C202.529 215.571 205.194 208.833 205.148 201.721C205.148 201.394 205.286 201.113 205.516 200.879C205.746 200.645 206.022 200.552 206.343 200.552C206.481 200.552 210.066 200.692 212.318 203.733C213.834 205.745 214.386 208.506 213.972 211.921C216.27 211.032 220.038 210.003 222.933 211.453C224.864 212.436 226.058 214.307 226.472 217.021C227.115 218.378 230.838 226.846 227.024 231.198C223.117 235.596 210.158 238.777 201.931 237.327L189.018 245.468C188.788 245.608 188.604 245.655 188.374 245.655ZM184.33 227.689L189.064 242.707L201.104 235.128C201.334 234.987 201.656 234.941 201.931 234.987C210.02 236.578 222.152 233.256 225.323 229.654C227.805 226.8 225.461 220.249 224.312 217.91C224.266 217.816 224.22 217.676 224.22 217.582C223.944 215.524 223.163 214.214 221.876 213.605C219.165 212.202 214.523 214.12 212.961 214.962C212.547 215.196 212.088 215.149 211.72 214.869C211.352 214.588 211.215 214.12 211.307 213.652C212.18 209.909 211.904 207.055 210.525 205.184C209.606 203.967 208.365 203.406 207.446 203.125C207.17 211.313 203.954 218.378 203.77 218.705C203.632 218.939 203.448 219.173 203.172 219.267L184.33 227.689Z" fill="#2E2E76"/>
<path d="M214.799 223.245C213.788 223.245 212.961 223.057 212.318 222.777C210.893 222.168 209.928 220.952 209.744 219.502C209.652 218.846 209.423 217.022 217.327 214.776C217.924 214.589 218.568 214.963 218.752 215.571C218.935 216.18 218.568 216.835 217.97 217.022C215.397 217.77 212.777 218.846 212.134 219.455C212.226 219.782 212.502 220.297 213.283 220.624C214.34 221.092 217.603 221.607 224.68 216.46C225.185 216.086 225.921 216.226 226.288 216.741C226.656 217.256 226.518 218.004 226.013 218.379C220.774 222.122 217.235 223.245 214.799 223.245Z" fill="#2E2E76"/>
<path d="M214.247 227.314C212.409 227.314 211.168 226.8 210.479 225.723C209.238 223.805 210.755 221.138 210.893 220.858C211.214 220.296 211.95 220.109 212.455 220.483C213.007 220.811 213.191 221.513 212.823 222.074C212.501 222.636 211.996 223.946 212.363 224.46C212.593 224.835 213.604 225.162 215.626 224.881C222.336 223.992 225.553 220.249 225.599 220.203C226.012 219.735 226.748 219.688 227.207 220.109C227.667 220.53 227.713 221.279 227.299 221.747C227.161 221.934 223.439 226.145 215.902 227.174C215.35 227.267 214.799 227.314 214.247 227.314Z" fill="#2E2E76"/>
<path d="M216.683 230.449C215.167 230.449 214.064 230.028 213.466 229.139C212.455 227.735 213.237 225.957 213.329 225.77C213.604 225.162 214.294 224.928 214.845 225.209C215.397 225.49 215.672 226.191 215.397 226.753C215.305 226.987 215.167 227.595 215.305 227.829C215.443 228.063 216.086 228.25 217.373 228.11C221.785 227.642 226.702 224.367 226.748 224.32C227.299 223.946 227.989 224.133 228.356 224.647C228.724 225.209 228.54 225.911 228.035 226.285C227.805 226.425 222.612 229.934 217.603 230.449C217.327 230.402 217.005 230.449 216.683 230.449Z" fill="#2E2E76"/>
<path d="M220.452 232.93C219.303 232.93 218.292 232.696 217.419 232.275C215.581 231.386 215.075 229.888 215.029 229.701C214.845 229.093 215.167 228.438 215.764 228.251C216.362 228.064 217.005 228.391 217.189 228.999C217.189 229.046 217.511 229.748 218.476 230.216C219.579 230.731 221.739 230.964 225.691 229.327C226.288 229.093 226.932 229.374 227.207 229.982C227.437 230.59 227.162 231.245 226.564 231.526C224.22 232.462 222.198 232.93 220.452 232.93Z" fill="#2E2E76"/>
<path d="M123.622 306.104C123.622 306.104 121.324 332.305 74.265 333.054C50.6895 333.428 29.4578 329.779 25.2758 314.058L29.8714 294.407L120.911 297.214L123.622 306.104Z" fill="#F5B3A5"/>
<path d="M39.1089 286.921C39.1089 286.921 35.938 287.997 30.5152 317.801L24.6787 362.717H74.8169L99.3115 286.921H39.1089Z" fill="#2E2E76"/>
<path d="M118.062 286.689C118.062 286.689 120.405 331.839 123.255 362.719H56.8022L70.8188 290.526L118.062 286.689Z" fill="#2E2E76"/>
<path d="M93.2294 305.455L73.664 362.28L75.8325 363.054L95.3978 306.229L93.2294 305.455Z" fill="white"/>
<path d="M67.51 199.943L70.2674 167.379L73.6222 139.54L100.874 140.663C100.874 140.663 117.051 181.041 92.5102 178.046L93.0157 201.58L67.51 199.943Z" fill="white"/>
<path d="M94.2101 202.797L66.2688 201.02L69.164 167.239L72.6567 138.277L101.701 139.447L101.977 140.149C102.39 141.178 111.857 165.227 104.458 175.146C102.161 178.187 98.576 179.591 93.7506 179.31L94.2101 202.797ZM68.7504 198.821L91.8664 200.271L91.3609 176.69L92.6936 176.83C97.3351 177.392 100.644 176.362 102.62 173.696C108.594 165.695 101.609 145.717 100.093 141.74L74.6788 140.71L71.4618 167.473L68.7504 198.821Z" fill="#2E2E76"/>
<path d="M111.627 139.259C112.409 133.832 103.539 133.645 103.539 133.645C106.113 132.849 106.894 131.352 106.664 130.182C105.377 123.351 92.8771 128.826 92.8771 128.826C94.3477 125.691 91.4066 125.55 91.4066 125.55C86.5812 125.363 78.3091 129.293 72.6105 132.381C70.6344 132.569 45.6342 135.75 68.5663 171.87C68.5663 171.87 76.3789 173.976 76.4249 159.986C76.4249 159.986 72.059 153.295 78.1252 151.751C79.2741 151.471 80.515 151.892 81.2503 152.828C82.2613 154.138 82.8587 155.261 83.1345 156.009C83.3642 156.571 83.9617 156.945 84.5591 156.945H84.605C85.4322 156.898 86.0297 156.196 86.0297 155.354L85.7999 149.833C96.7375 148.663 110.662 145.903 111.627 139.259Z" fill="#2E2E76"/>
<path d="M67.0964 181.182C67.0964 181.182 91.683 202.751 93.2914 183.989L105.746 190.726C109.652 192.832 112.961 195.92 115.396 199.663L136.49 232.648L193.016 220.951C193.016 220.951 190.627 224.601 192.373 234.613C194.395 246.216 201.288 249.492 201.288 249.492L118.108 273.821L123.622 306.104C123.622 306.104 118.567 298.806 76.7472 300.958C40.4418 302.829 25.1844 314.058 25.1844 314.058C25.1844 314.058 28.8149 246.263 27.5741 220.483C26.655 201.768 38.6036 195.218 38.6036 195.218L67.0964 181.182Z" fill="#2563F6"/>
<path d="M118.567 256.041C118.567 256.041 130.516 272.885 119.946 287.857C119.946 287.857 113.512 281.774 112.179 270.311C112.179 270.311 111.674 259.784 118.567 256.041Z" fill="#2E2E76"/>
<path d="M183.825 230.31C187.042 234.053 190.718 236.392 190.718 236.392C190.718 236.392 184.284 241.539 172.336 247.153C166.407 249.96 147.106 256.745 147.106 256.745L133.135 231.339L171.049 211.501C171.095 211.501 179.919 225.771 183.825 230.31Z" fill="#2E2E76"/>
<path d="M188.558 226.051C188.558 226.051 176.288 208.787 169.027 193.908C169.027 193.908 153.172 212.951 110.984 236.719C110.984 236.719 119.348 262.78 125.69 269.657C125.644 269.704 174.863 245 188.558 226.051Z" fill="white"/>
<path d="M125.644 270.874C125.323 270.874 125.047 270.734 124.817 270.5C118.383 263.528 110.203 238.216 109.881 237.14C109.698 236.625 109.927 236.017 110.433 235.736C151.977 212.343 168.016 193.394 168.154 193.207C168.384 192.926 168.797 192.739 169.165 192.785C169.533 192.832 169.9 193.066 170.038 193.441C177.161 208.038 189.34 225.209 189.478 225.396C189.753 225.818 189.753 226.379 189.478 226.753C175.783 245.702 128.172 269.704 126.15 270.734C125.966 270.827 125.828 270.874 125.644 270.874ZM112.363 237.327C113.834 241.819 120.589 261.61 125.92 268.254C132.216 265.026 174.082 243.176 187.134 226.051C184.836 222.776 175.185 208.693 168.751 195.967C164.385 200.646 147.52 217.396 112.363 237.327Z" fill="#2E2E76"/>
<path d="M114.707 260.485L133.182 256.602L141.637 243.689C142.511 242.332 144.533 242.519 145.176 244.016C145.957 245.841 146.187 248.976 144.027 254.403C144.027 254.403 147.29 257.725 153.218 256.041L165.948 248.601C165.948 248.601 167.557 257.444 158.09 264.883C149.036 271.995 140.213 271.48 140.213 271.48L115.626 279.762C115.626 279.762 113.053 275.177 112.409 270.03C111.674 264.041 114.707 260.485 114.707 260.485Z" fill="white"/>
<path d="M115.121 281.213L114.661 280.371C114.569 280.184 111.95 275.505 111.306 270.218C110.479 263.715 113.742 259.878 113.88 259.738L114.155 259.457L132.538 255.62L140.718 243.128C141.362 242.146 142.465 241.584 143.613 241.724C144.762 241.818 145.773 242.567 146.233 243.643C147.29 246.169 147.06 249.678 145.406 254.123C146.463 254.825 148.944 256.088 152.805 255.059L166.821 246.871L167.097 248.509C167.189 248.883 168.752 258.147 158.825 265.914C150.231 272.651 141.913 272.791 140.397 272.791L115.121 281.213ZM115.35 261.562C114.707 262.451 112.961 265.399 113.558 269.937C114.018 273.54 115.442 276.862 116.224 278.406L140.075 270.358H140.305C140.397 270.358 148.852 270.733 157.4 263.995C163.788 258.942 164.845 253.375 164.937 250.614L153.678 257.211L153.54 257.258C147.014 259.083 143.384 255.433 143.2 255.293L142.648 254.731L142.924 254.03C144.992 248.789 144.67 245.982 144.073 244.579C143.889 244.157 143.521 244.064 143.338 244.064C143.2 244.064 142.786 244.064 142.556 244.438L133.825 257.726L115.35 261.562Z" fill="#2E2E76"/>
<path d="M50.4141 293.332C44.3479 293.332 38.8791 289.215 37.1788 283.226L27.8496 250.287L30.0556 249.632L39.3846 282.571C40.9012 287.858 45.8645 291.367 51.2413 290.946L116.545 285.893C110.709 276.208 110.663 268.862 111.674 264.324C112.317 261.61 113.374 259.551 114.293 258.148L66.223 258.194L53.5391 205.979L55.791 205.418L68.0153 255.855L119.67 255.808L117.51 257.867C117.096 258.241 107.4 267.786 119.532 286.314L120.635 287.998L51.4711 293.332C51.1035 293.285 50.7358 293.332 50.4141 293.332Z" fill="#2E2E76"/>
<path d="M164.523 207.382L164.064 211.593L170.957 212.388" fill="white"/>
<path d="M170.819 213.558L162.777 212.622L163.374 207.241L165.672 207.522L165.351 210.563L171.095 211.218L170.819 213.558Z" fill="#2E2E76"/>
<path d="M154.873 215.804L154.413 220.015L161.306 220.81" fill="white"/>
<path d="M161.168 221.979L153.126 221.044L153.724 215.663L156.021 215.944L155.7 218.985L161.444 219.64L161.168 221.979Z" fill="#2E2E76"/>
<path d="M143.843 222.822L143.383 227.033L150.277 227.829" fill="white"/>
<path d="M150.139 228.998L142.097 228.062L142.694 222.682L144.992 222.962L144.67 226.004L150.415 226.659L150.139 228.998Z" fill="#2E2E76"/>
<path d="M174.597 216.03L172.776 217.456L177.371 223.538L179.192 222.111L174.597 216.03Z" fill="#2E2E76"/>
<path d="M170.946 218.888L169.127 220.318L176.939 230.611L178.757 229.18L170.946 218.888Z" fill="#2E2E76"/>
<path d="M163.613 224.029L161.693 225.314L165.835 231.725L167.755 230.439L163.613 224.029Z" fill="#2E2E76"/>
<path d="M159.781 226.608L157.864 227.897L164.908 238.748L166.825 237.458L159.781 226.608Z" fill="#2E2E76"/>
<path d="M152.688 232.09L150.683 233.232L154.363 239.929L156.369 238.786L152.688 232.09Z" fill="#2E2E76"/>
<path d="M148.643 234.307L146.64 235.454L152.903 246.791L154.906 245.644L148.643 234.307Z" fill="#2E2E76"/>
<path d="M114.201 216.681L111.908 216.836L113.092 234.996L115.384 234.841L114.201 216.681Z" fill="#2E2E76"/>
<path d="M322.796 177.345L302.759 157.507L307.539 152.454L322.428 167.239L349.451 136.733L354.598 141.412L322.796 177.345Z" fill="#2E2E76"/>
<path d="M510.573 206.028L508.965 179.967C508.965 179.967 487.411 183.523 501.336 144.783L532.311 152.69L529.369 175.616L534.608 203.127L510.573 206.028Z" fill="white"/>
<path d="M509.516 207.338L507.908 181.23C505.84 181.277 501.612 180.856 498.625 177.207C493.937 171.452 494.489 160.41 500.233 144.455L500.601 143.473L533.551 151.848L530.518 175.616L535.941 204.156L509.516 207.338ZM510.022 178.61L511.63 204.718L533.184 202.051L528.174 175.616L531.024 153.532L502.071 146.14C495.729 164.293 497.66 172.2 500.417 175.616C503.588 179.546 508.735 178.75 508.781 178.75L510.022 178.61Z" fill="#2E2E76"/>
<path d="M517.558 158.305C517.558 158.305 520.132 152.363 523.9 155.919C525.509 157.416 525.923 161.861 520.5 164.153C520.5 164.153 520.224 174.306 530.242 174.634C530.242 174.634 542.007 161.065 536.814 146.795C536.814 146.795 554.277 150.117 556.07 134.022C556.621 129.203 553.083 120.313 542.696 120.126C537.595 120.032 528.404 123.167 529.002 135.66C529.002 135.66 506.759 124.664 498.441 148.058C498.487 148.011 506.897 158.585 517.558 158.305Z" fill="#2E2E76"/>
<path d="M408.091 232.648C408.091 232.648 403.495 227.033 412.227 210.19C412.227 210.19 418.661 199.897 423.257 198.961L434.746 208.318L419.58 238.263L408.091 232.648Z" fill="#2E2E76"/>
<path d="M480.977 309.66C480.977 309.66 492.283 331.791 531.943 328.375C555.426 326.363 572.062 319.485 576.245 303.765L571.649 289.729L483.873 298.15L480.977 309.66Z" fill="#2563F6"/>
<path d="M564.802 286.453C564.802 286.453 571.189 288.465 576.612 318.269L582.449 363.185H532.311L504.599 286.453H564.802Z" fill="#2E2E76"/>
<path d="M490.352 293.94C490.352 293.94 487.595 332.306 483.873 363.186H550.325L542.283 290.057L490.352 293.94Z" fill="#2E2E76"/>
<path d="M513.868 305.934L511.699 306.708L531.265 363.533L533.433 362.76L513.868 305.934Z" fill="white"/>
<path d="M417.696 200.366C417.328 199.009 403.357 185.3 403.357 185.3L384.699 180.294C384.102 180.153 383.55 180.668 383.642 181.276C384.102 183.616 385.664 188.341 390.444 190.634L389.479 203.454L425.554 233.585L431.115 207.197L417.696 200.366Z" fill="white"/>
<path d="M426.289 235.69L388.33 204.015L389.295 191.335C384.653 188.762 383.091 184.13 382.539 181.51C382.401 180.808 382.631 180.106 383.137 179.638C383.642 179.17 384.331 178.983 385.021 179.17L403.955 184.27L404.184 184.504C412.411 192.598 417.236 197.605 418.477 199.476L432.401 206.588L426.289 235.69ZM390.719 202.985L424.819 231.432L429.782 207.804L416.73 201.161L416.639 200.739C415.949 199.523 409.148 192.598 402.852 186.376L384.975 181.557C385.526 183.943 387.089 187.686 391.041 189.604L391.776 189.932L390.719 202.985Z" fill="#2E2E76"/>
<path d="M360.345 171.761L356.182 178.214L367.822 185.995L371.984 179.542L360.345 171.761Z" fill="#2E2E76"/>
<path d="M294.993 132.708C282.86 151.516 288.007 176.735 306.482 189.04C324.956 201.392 349.727 196.152 361.813 177.343C373.946 158.535 368.798 133.316 350.324 121.011C331.896 108.706 307.125 113.946 294.993 132.708ZM355.793 173.366C345.866 188.759 325.6 193.017 310.48 182.911C295.36 172.805 291.178 152.171 301.105 136.778C311.031 121.385 331.298 117.128 346.418 127.234C361.491 137.293 365.719 157.973 355.793 173.366Z" fill="#2563F6"/>
<path d="M370.838 176.298L364.405 186.271L407.507 215.085L413.939 205.112L370.838 176.298Z" fill="#2563F6"/>
<path d="M555.013 192.036L533.092 181.182C508.275 205.979 508.275 188.2 508.275 188.2L492.007 200.365L470.132 227.969L423.257 198.961C423.257 198.961 428.174 208.927 423.256 220.483C418.661 231.244 408.091 232.648 408.091 232.648L465.996 264.464L462.319 275.693L483.919 281.307L480.702 309.848C480.702 309.848 501.795 299.929 527.117 299.554C557.448 299.086 576.29 303.765 576.29 303.765L564.158 206.541C563.377 200.552 560.022 195.218 555.013 192.036Z" fill="#89EFD7"/>
<path d="M530.242 292.956C529.323 292.956 528.358 292.863 527.439 292.629L458.735 276.019L461.86 274.616C461.906 274.569 468.753 271.387 471.327 262.731C474.084 253.421 470.729 248.508 470.591 248.321L468.891 245.888L471.74 246.449L516.272 255.62L527.393 226.144L529.553 226.986L517.696 258.333L473.578 249.257C474.544 251.877 475.509 256.649 473.532 263.433C471.694 269.703 467.88 273.399 465.352 275.271L527.99 290.43C532.31 291.459 536.86 289.447 539.066 285.564L561.998 244.765L563.974 245.935L541.042 286.733C538.79 290.617 534.608 292.956 530.242 292.956Z" fill="#2E2E76"/>
<path d="M489.201 223.164L486.72 250.981L489.009 251.193L491.489 223.375L489.201 223.164Z" fill="#2E2E76"/>
<path d="M472.43 247.152C472.43 247.152 475.463 257.633 471.648 265.259C471.648 265.259 467.374 274.289 460.021 275.693C460.021 275.693 455.426 268.675 460.481 255.574C460.481 255.574 463.698 247.152 472.43 247.152Z" fill="#2E2E76"/>
<path d="M384.148 194.096C384.148 194.096 377.99 203.453 385.389 206.354C385.389 206.354 385.986 210.565 389.892 210.939C389.892 210.939 396.005 217.677 401.657 213.747C401.657 213.747 402.209 211.173 401.427 207.711C399.727 200.365 392.144 189.978 384.148 194.096Z" fill="white"/>
<path d="M397.843 216.133C394.35 216.133 391.087 213.84 389.341 212.062C386.308 211.548 384.837 208.974 384.377 207.196C382.585 206.354 381.436 205.091 380.885 203.407C379.552 199.102 382.999 193.722 383.137 193.488L383.32 193.254L383.596 193.113C386.308 191.71 389.203 191.71 392.006 193.067C397.291 195.593 401.289 202.237 402.484 207.524C403.311 211.22 402.714 213.981 402.714 214.074L402.622 214.542L402.254 214.823C400.83 215.712 399.313 216.133 397.843 216.133ZM384.929 194.985C384.01 196.482 382.309 200.131 383.091 202.658C383.458 203.828 384.331 204.67 385.802 205.231L386.445 205.465L386.537 206.167C386.537 206.307 387.089 209.489 390.03 209.77L390.444 209.816L390.719 210.144C390.949 210.378 395.958 215.759 400.6 213.045C400.692 212.203 400.83 210.284 400.324 207.992C399.267 203.36 395.683 197.277 391.087 195.125C388.973 194.096 386.905 194.096 384.929 194.985Z" fill="#2E2E76"/>
<path d="M472.66 248.65C472.384 248.463 451.29 240.088 451.29 240.088C451.29 240.088 446.097 233.631 444.994 226.894C444.902 226.332 444.397 225.958 443.845 226.051C441.823 226.379 437.687 228.25 440.031 238.497C440.031 238.497 429.966 234.941 428.266 244.766C428.266 244.766 425.784 259.317 432.954 261.423C440.077 263.528 451.382 261.704 451.382 261.704L469.075 269.47C469.075 269.47 472.292 265.821 473.349 259.785C474.636 252.393 472.66 248.65 472.66 248.65Z" fill="white"/>
<path d="M469.397 270.873L451.29 262.919C449.314 263.2 439.387 264.51 432.724 262.545C424.635 260.159 427.117 245.187 427.255 244.532C427.806 241.444 429.185 239.198 431.299 237.935C433.781 236.437 436.768 236.578 438.652 236.952C437.963 232.788 438.284 229.653 439.709 227.548C440.904 225.723 442.604 225.115 443.799 224.928C444.948 224.74 446.051 225.536 446.235 226.752C447.154 232.414 451.198 237.981 452.071 239.151C472.981 247.479 473.211 247.62 473.303 247.713L473.579 247.9L473.717 248.181C473.808 248.368 475.831 252.392 474.498 260.065C473.395 266.381 470.086 270.171 469.948 270.358L469.397 270.873ZM451.566 260.533L468.753 268.066C469.672 266.803 471.511 263.808 472.246 259.597C473.211 253.983 472.246 250.614 471.832 249.538C469.626 248.602 458.459 244.157 450.922 241.163L450.647 241.069L450.463 240.835C450.233 240.555 445.132 234.145 443.983 227.267C443.248 227.407 442.283 227.782 441.593 228.858C440.398 230.683 440.26 233.911 441.272 238.262L441.731 240.321L439.755 239.619C439.709 239.619 435.481 238.169 432.448 239.946C430.885 240.882 429.92 242.567 429.507 244.953C428.863 248.696 428.312 258.802 433.367 260.299C440.169 262.311 451.152 260.58 451.29 260.58L451.566 260.533Z" fill="#2E2E76"/>
<path d="M432.953 246.076C432.264 246.076 430.701 245.983 428.404 245.796C427.76 245.749 427.301 245.188 427.347 244.532C427.393 243.877 427.944 243.41 428.587 243.456C430.518 243.597 432.678 243.737 433.045 243.737C433.689 243.644 434.24 244.111 434.332 244.72C434.424 245.375 433.964 245.936 433.321 246.03C433.275 246.076 433.137 246.076 432.953 246.076Z" fill="#2E2E76"/>
<path d="M432.907 250.849L427.99 250.755C427.346 250.755 426.841 250.194 426.887 249.539C426.887 248.884 427.438 248.369 428.082 248.416L432.999 248.51C433.642 248.51 434.148 249.071 434.102 249.726C434.056 250.334 433.551 250.849 432.907 250.849Z" fill="#2E2E76"/>
<path d="M428.311 256.229C427.76 256.229 427.255 255.808 427.163 255.247C427.071 254.592 427.53 254.03 428.128 253.937L432.494 253.328C433.137 253.235 433.688 253.703 433.78 254.311C433.872 254.966 433.413 255.527 432.815 255.621L428.449 256.229C428.403 256.229 428.357 256.229 428.311 256.229Z" fill="#2E2E76"/>
<path d="M608 362.018H0V364.357H608V362.018Z" fill="#2E2E76"/>
</svg>
