<svg width="220" height="183" viewBox="0 0 220 183" fill="none" xmlns="http://www.w3.org/2000/svg">
<path d="M26.035 46.4479L11.073 31.864L14.642 28.192L25.795 39.001L45.938 16.6279L49.781 20.0939L26.035 46.4479Z" fill="#2E2E76"/>
<path d="M166.248 67.4839L165.048 48.3699C165.048 48.3699 148.954 50.978 159.348 22.564L182.477 28.364L180.277 45.179L184.189 65.3569L166.248 67.4839Z" fill="white"/>
<path d="M165.461 68.444L164.261 49.2961C162.958 49.3552 161.659 49.1206 160.459 48.6098C159.259 48.099 158.189 47.325 157.329 46.345C153.829 42.124 154.241 34.026 158.529 22.324L158.804 21.603L183.404 27.746L181.139 45.178L185.188 66.111L165.461 68.444ZM165.839 47.3441L167.039 66.4921L183.133 64.5361L179.393 45.1481L181.521 28.9481L159.902 23.5261C155.166 36.8411 156.608 42.6401 158.667 45.1451C161.035 48.0271 164.878 47.4451 164.912 47.4451L165.839 47.3441Z" fill="#2E2E76"/>
<path d="M171.466 32.448C171.466 32.448 173.388 28.09 176.202 30.698C177.402 31.798 177.712 35.0561 173.663 36.7381C173.663 36.7381 173.457 44.1851 180.938 44.4251C180.938 44.4251 189.723 34.473 185.845 24.007C185.845 24.007 198.885 26.443 200.223 14.639C200.635 11.104 197.992 4.58405 190.237 4.44705C186.428 4.37805 179.565 6.67706 180.011 15.8401C180.011 15.8401 163.402 7.77605 157.191 24.934C157.225 24.932 163.505 32.648 171.466 32.448Z" fill="#2E2E76"/>
<path d="M89.726 86.9749C89.726 86.9749 86.294 82.8569 92.814 70.5029C92.814 70.5029 97.614 62.9538 101.05 62.2668L109.629 69.1298L98.305 91.0919L89.726 86.9749Z" fill="#2E2E76"/>
<path d="M144.15 143.494C144.15 143.494 152.592 159.725 182.206 157.22C199.741 155.744 212.164 150.7 215.287 139.17L211.855 128.875L146.312 135.052L144.15 143.494Z" fill="#2563F6"/>
<path d="M206.743 126.439C206.743 126.439 211.513 127.915 215.562 149.774L219.92 182.717H182.481L161.789 126.439H206.743Z" fill="#2E2E76"/>
<path d="M151.151 131.929C151.151 131.929 149.092 160.068 146.312 182.717H195.933L189.928 129.081L151.151 131.929Z" fill="#2E2E76"/>
<path d="M168.708 140.737L167.089 141.305L181.699 182.984L183.318 182.416L168.708 140.737Z" fill="white"/>
<path d="M96.897 63.332C96.622 62.332 86.19 52.282 86.19 52.282L72.258 48.61C72.1555 48.5859 72.0486 48.5871 71.9467 48.6136C71.8448 48.6401 71.7508 48.6911 71.6731 48.7621C71.5953 48.8332 71.5361 48.9222 71.5005 49.0213C71.465 49.1204 71.4541 49.2267 71.469 49.331C71.7257 50.7904 72.3181 52.1701 73.1996 53.3611C74.081 54.5522 75.2274 55.5221 76.548 56.194L75.827 65.594L102.727 87.625L106.879 68.271L96.897 63.332Z" fill="white"/>
<path d="M103.314 89.2399L74.9691 66.0079L75.6901 56.7079C74.3783 55.943 73.248 54.9026 72.3772 53.6585C71.5063 52.4145 70.9157 50.9964 70.6461 49.5019C70.5947 49.2541 70.6088 48.9971 70.687 48.7563C70.7652 48.5156 70.9049 48.2993 71.0921 48.1289C71.2782 47.9571 71.505 47.8354 71.7512 47.7754C71.9973 47.7154 72.2547 47.719 72.499 47.7859L86.637 51.5259L86.809 51.6979C92.951 57.6349 96.555 61.3059 97.481 62.6789L107.881 67.8949L103.314 89.2399ZM76.7531 65.2529L102.215 86.1169L105.921 68.7869L96.1751 63.9139L96.106 63.6049C95.591 62.7129 90.5121 57.6339 85.8111 53.0699L72.4621 49.5349C72.7268 50.7949 73.2714 51.9793 74.0555 53.0005C74.8396 54.0218 75.8432 54.8537 76.9921 55.4349L77.541 55.6749L76.7531 65.2529Z" fill="#2E2E76"/>
<path d="M54.0379 42.318L50.9301 47.0508L59.6217 52.7582L62.7295 48.0253L54.0379 42.318Z" fill="#2E2E76"/>
<path d="M5.27406 13.7109C2.03667 18.6451 0.335115 24.4285 0.384594 30.3296C0.434073 36.2308 2.23235 41.9848 5.55201 46.864C8.87168 51.7432 13.5636 55.5284 19.0346 57.741C24.5055 59.9535 30.5096 60.4941 36.2878 59.2943C42.0659 58.0945 47.3586 55.2082 51.4963 51.0005C55.6341 46.7927 58.4313 41.4524 59.534 35.655C60.6367 29.8575 59.9955 23.8633 57.6915 18.4302C55.3875 12.9971 51.5242 8.36934 46.59 5.13195C43.3155 2.97746 39.648 1.49015 35.7977 0.755245C31.9474 0.0203372 27.99 0.0522578 24.1521 0.849178C20.3141 1.6461 16.6711 3.19237 13.4317 5.39941C10.1923 7.60644 7.42019 10.4309 5.27406 13.7109ZM50.674 43.4969C48.0203 47.5353 44.2287 50.696 39.7786 52.5794C35.3285 54.4628 30.4199 54.9843 25.6734 54.0779C20.9269 53.1716 16.5558 50.8781 13.1129 47.4875C9.66988 44.0969 7.30963 39.7614 6.33064 35.0294C5.35165 30.2973 5.79788 25.3813 7.61287 20.9029C9.42785 16.4245 12.5301 12.5848 16.5273 9.86953C20.5245 7.15423 25.2371 5.68523 30.0692 5.64828C34.9012 5.61133 39.6358 7.0081 43.674 9.66195C46.3569 11.4226 48.6664 13.6948 50.4705 16.3486C52.2745 19.0025 53.5377 21.9859 54.1878 25.1284C54.8379 28.2708 54.8623 31.5106 54.2593 34.6624C53.6564 37.8142 52.4381 40.8163 50.674 43.4969Z" fill="#2563F6"/>
<path d="M61.9023 45.6641L57.099 52.979L89.2826 74.1124L94.0859 66.7975L61.9023 45.6641Z" fill="#2563F6"/>
<path d="M199.433 57.223L183.064 49.262C164.533 67.449 164.533 54.4089 164.533 54.4089L152.385 63.3309L136.05 83.577L101.05 62.301C102.127 64.7929 102.682 67.4788 102.682 70.1934C102.682 72.908 102.127 75.594 101.05 78.0859C100.035 80.385 98.4719 82.4003 96.4979 83.9556C94.5238 85.511 92.1987 86.5589 89.726 87.0079L132.964 110.343L130.219 118.579L146.347 122.697L143.947 143.63C154.927 138.97 166.683 136.41 178.606 136.08C201.254 135.737 215.324 139.168 215.324 139.168L206.264 67.8599C205.979 65.6933 205.219 63.6164 204.038 61.7776C202.857 59.9389 201.285 58.3836 199.433 57.223Z" fill="#89EFD7"/>
<path d="M180.941 131.24C180.236 131.245 179.533 131.164 178.848 131L127.548 118.818L129.882 117.789C131.577 116.874 133.074 115.633 134.287 114.137C135.501 112.641 136.406 110.92 136.951 109.073C139.01 102.244 136.505 98.641 136.402 98.504L135.132 96.72L137.26 97.132L170.512 103.858L178.812 82.239L180.425 82.857L171.571 105.849L138.628 99.192C139.349 101.114 140.069 104.614 138.594 109.592C137.57 113.08 135.423 116.132 132.486 118.274L179.259 129.392C180.838 129.755 182.491 129.604 183.979 128.962C185.466 128.32 186.71 127.22 187.529 125.823L204.653 95.899L206.129 96.757L189.005 126.68C188.164 128.067 186.98 129.214 185.568 130.013C184.156 130.811 182.563 131.234 180.941 131.24Z" fill="#2E2E76"/>
<path d="M150.302 80.0329L148.458 100.438L150.167 100.592L152.011 80.1874L150.302 80.0329Z" fill="#2E2E76"/>
<path d="M137.767 97.613C137.767 97.613 140.032 105.3 137.184 110.893C137.184 110.893 133.993 117.516 128.502 118.545C128.502 118.545 125.07 113.398 128.845 103.789C128.845 103.789 131.247 97.613 137.767 97.613Z" fill="#2E2E76"/>
<path d="M71.8461 58.6991C71.8461 58.6991 67.2461 65.5621 72.7731 67.6901C72.7731 67.6901 73.2191 70.7791 76.1361 71.0531C76.1361 71.0531 80.7001 75.9951 84.9211 73.1121C85.1618 71.6399 85.1033 70.1343 84.7491 68.6851C83.4811 63.2971 77.8171 55.7131 71.8461 58.6991Z" fill="white"/>
<path d="M82.107 74.865C79.6938 74.6928 77.4309 73.6288 75.759 71.88C74.8634 71.7047 74.0374 71.2748 73.38 70.6417C72.7227 70.0087 72.2619 69.1994 72.053 68.311C71.4453 68.0605 70.8982 67.683 70.4484 67.2037C69.9986 66.7244 69.6565 66.1544 69.445 65.532C68.445 62.375 71.0241 58.4321 71.1271 58.2571L71.264 58.085L71.47 57.985C72.4387 57.4807 73.5138 57.2145 74.6059 57.2086C75.6981 57.2027 76.7759 57.4572 77.75 57.951C81.696 59.804 84.682 64.677 85.574 68.551C85.9455 70.1242 86.004 71.7553 85.746 73.3511L85.677 73.694L85.4031 73.9C84.4182 74.528 83.275 74.8627 82.107 74.865ZM72.43 59.389C71.744 60.489 70.474 63.164 71.057 65.017C71.2204 65.4693 71.4892 65.8761 71.8412 66.2037C72.1932 66.5314 72.6182 66.7704 73.081 66.901L73.561 67.073L73.63 67.5881C73.7203 68.2513 74.0233 68.8674 74.4936 69.3438C74.9638 69.8202 75.576 70.1312 76.238 70.23L76.547 70.264L76.753 70.504C76.925 70.676 80.665 74.6221 84.131 72.6321C84.2654 71.3938 84.1958 70.1418 83.925 68.926C83.136 65.526 80.459 61.0681 77.025 59.4891C76.3188 59.1185 75.5364 58.9163 74.7391 58.8985C73.9418 58.8806 73.1512 59.0475 72.4291 59.386L72.43 59.389Z" fill="#2E2E76"/>
<path d="M137.974 98.7101C137.768 98.5731 122.017 92.43 122.017 92.43C122.017 92.43 118.139 87.694 117.317 82.753C117.302 82.6558 117.268 82.5625 117.216 82.4786C117.165 82.3947 117.097 82.3219 117.017 82.2644C116.938 82.2069 116.847 82.1659 116.751 82.1437C116.655 82.1215 116.556 82.1185 116.459 82.1351C114.949 82.3751 111.859 83.7481 113.611 91.2631C113.611 91.2631 106.096 88.655 104.826 95.863C104.826 95.863 102.973 106.535 108.326 108.079C113.645 109.623 122.087 108.285 122.087 108.285L135.299 113.985C136.949 111.928 138.047 109.485 138.49 106.885C139.418 101.49 137.974 98.7101 137.974 98.7101Z" fill="white"/>
<path d="M135.499 115.045L121.978 109.211C120.502 109.417 113.09 110.378 108.114 108.936C102.074 107.186 103.927 96.205 104.03 95.724C104.145 94.7444 104.475 93.8024 104.997 92.9657C105.519 92.129 106.221 91.4185 107.05 90.885C108.737 90.0017 110.683 89.7462 112.541 90.164C112.026 87.11 112.266 84.8109 113.33 83.2639C113.674 82.7455 114.124 82.3061 114.65 81.9748C115.177 81.6434 115.768 81.4277 116.384 81.342C116.591 81.3092 116.803 81.3179 117.007 81.3676C117.211 81.4173 117.404 81.5069 117.573 81.6313C117.742 81.7558 117.885 81.9125 117.993 82.0925C118.101 82.2725 118.172 82.4722 118.203 82.68C118.889 86.832 121.909 90.916 122.561 91.774C138.175 97.882 138.346 97.985 138.415 98.054L138.621 98.191L138.721 98.3969C138.79 98.5339 140.299 101.485 139.304 107.113C138.831 109.877 137.661 112.476 135.904 114.662L135.499 115.045ZM122.184 107.427L135.018 112.952C136.342 111.103 137.233 108.981 137.626 106.741C138.18 104.298 138.073 101.751 137.317 99.3629C135.67 98.6769 127.331 95.4169 121.703 93.2199L121.497 93.151L121.36 92.979C121.188 92.773 117.38 88.0719 116.522 83.0269C116.16 83.0862 115.814 83.2206 115.506 83.4216C115.199 83.6226 114.937 83.8857 114.738 84.1939C113.846 85.5319 113.738 87.9 114.498 91.094L114.841 92.604L113.365 92.089C113.331 92.089 110.174 91.0249 107.909 92.3289C107.292 92.7384 106.774 93.2807 106.393 93.916C106.013 94.5513 105.779 95.2636 105.709 96.0009C105.228 98.7459 104.817 106.159 108.591 107.257C113.67 108.733 121.871 107.463 121.974 107.463L122.184 107.427Z" fill="#2E2E76"/>
<path d="M108.29 96.8239C107.775 96.8239 106.608 96.7549 104.89 96.6179C104.775 96.6117 104.663 96.5825 104.56 96.5321C104.457 96.4818 104.364 96.4113 104.289 96.3248C104.213 96.2383 104.156 96.1375 104.12 96.0285C104.084 95.9194 104.07 95.8042 104.079 95.6897C104.088 95.5752 104.12 95.4636 104.173 95.3616C104.226 95.2597 104.299 95.1693 104.387 95.0959C104.475 95.0225 104.577 94.9675 104.687 94.9342C104.797 94.9009 104.913 94.8899 105.027 94.9019C106.468 95.0019 108.081 95.1079 108.356 95.1079C108.468 95.0917 108.581 95.098 108.691 95.1263C108.8 95.1546 108.902 95.2045 108.992 95.273C109.082 95.3415 109.157 95.4272 109.213 95.5251C109.269 95.623 109.305 95.7311 109.319 95.8431C109.332 95.9551 109.324 96.0687 109.293 96.1772C109.262 96.2857 109.21 96.3871 109.139 96.4752C109.069 96.5633 108.982 96.6364 108.882 96.6903C108.783 96.7442 108.674 96.7777 108.562 96.7889C108.53 96.8239 108.427 96.8239 108.29 96.8239Z" fill="#2E2E76"/>
<path d="M108.255 100.324L104.583 100.255C104.36 100.24 104.151 100.138 104.002 99.972C103.852 99.8056 103.773 99.5874 103.782 99.3638C103.791 99.1403 103.887 98.929 104.049 98.775C104.211 98.6209 104.427 98.5362 104.651 98.5389L108.323 98.6079C108.437 98.6084 108.549 98.6323 108.654 98.6782C108.758 98.7241 108.852 98.791 108.929 98.8747C109.006 98.9584 109.066 99.0571 109.103 99.1646C109.141 99.2722 109.155 99.3863 109.147 99.4999C109.128 99.7238 109.026 99.9325 108.861 100.085C108.696 100.238 108.48 100.323 108.255 100.324Z" fill="#2E2E76"/>
<path d="M104.824 104.271C104.62 104.269 104.422 104.196 104.266 104.065C104.109 103.933 104.003 103.751 103.966 103.55C103.935 103.327 103.994 103.101 104.129 102.921C104.264 102.741 104.464 102.622 104.687 102.589L107.947 102.143C108.17 102.111 108.397 102.169 108.577 102.304C108.757 102.44 108.876 102.641 108.908 102.864C108.94 103.087 108.882 103.314 108.747 103.494C108.611 103.674 108.41 103.793 108.187 103.825L104.927 104.271H104.824Z" fill="#2E2E76"/>
</svg>
